/* XPM */
static char *result[] = {
/* columns rows colors chars-per-pixel */
"64 64 53 1 ",
"  c black",
". c #120507",
"X c #24090D",
"o c #2A0B0F",
"O c #2F0D11",
"+ c #300E13",
"@ c #380E13",
"# c #391017",
"$ c #3E1118",
"% c #430F15",
"& c #451016",
"* c #4A1117",
"= c #45131A",
"- c #4D1219",
"; c #53141B",
": c #5B161E",
"> c #5F181E",
", c #60171F",
"< c #61181F",
"1 c #67231C",
"2 c #68261C",
"3 c #6B2D19",
"4 c #521620",
"5 c #5D1720",
"6 c #551821",
"7 c #5D1821",
"8 c #621720",
"9 c #631922",
"0 c #6C1B25",
"q c #6F1D29",
"w c #721D27",
"e c #741E29",
"r c #7A1F2B",
"t c #75202E",
"y c #7C202C",
"u c #7C2130",
"i c #7A4018",
"p c #83222E",
"a c #852331",
"s c #8C2532",
"d c #922634",
"f c #952836",
"g c #9B2937",
"h c #962839",
"j c #9D2A3A",
"k c #A32C3D",
"l c #A92F3F",
"z c #A72F40",
"x c #A92F40",
"c c #AA3041",
"v c #229D6E",
"b c #F4EF02",
"n c #F9F601",
/* pixels */
"vvvvvvvvvvvvvvvvvvvvvvvvvvvvvvvvvvvvvvvvvvvvvvvvvvvvvvvvvvvvvvvv",
"vvvvvvvvvvvvvvvvvvvvvvvvvvvvvvvvvvvvvvvvvvvvvvvvvvvvvvvvvvvvvvvv",
"vvvvvvvvvvvvvvvvvvvvvvvvvvvvvvvvvvvvvvvvvvvvvvvvvvvvvvvvvvvvvvvv",
"vvvvvvvvvvvvvvvvvvvvvvvvvvvvvvvvvvvvvvvvvvvvvvvvvvvvvvvvvvvvvvvv",
"vvvvvvvvvvvvvvvvvvvvvvvvvvvvvvvvvvvvvvvvvvvvvvvvvvvvvvvvvvvvvvvv",
"vvvvvvvvvvvvvvvvvvvvvvvvvvvvvvvvvvvvvvvvvvvvvvvvvvvvvvvvvvvvvvvv",
"vvvvvvvvvvvvvvvvvvvvvvvvvvvvvvvvvvvvvvvvvvvvvvvvvvvvvvvvvvvvvvvv",
"vvvvvvvvvvvvvvvvvvvvvvvvvvvvvvvvvvvvvvvvvvvvvvvvvvvvvvvvvvvvvvvv",
"vvvvvvvvvvvvvvvvvvvvvvvvvvvvvvvvvvvvvvvvvvvvvvvvvvvvvvvvvvvvvvvv",
"vvvvvvvvvvvvvvvvvvvvvvvvvv           vvvvvvvvvvvvvvvvvvvvvvvvvvv",
"vvvvvvvvvvvvvvvvvvvvvvvvvv 5ryrw6==$    vvvvvvvvvvvvvvvvvvvvvvvv",
"vvvvvvvvvvvvvvvvvvvvvvv   -wkjklzhhht-+. vvvvvvvvvvvvvvvvvvvvvvv",
"vvvvvvvvvvvvvvvvvvvvv  =6->wgdkkzzklcjp9O vvvvvvvvvvvvvvvvvvvvvv",
"vvvvvvvvvvvvvvvvvvvvv ezldewwskgjjkllkkca$  vvvvvvvvvvvvvvvvvvvv",
"vvvvvvvvvvvvvvvvvvvv =hkkzlkd,<<0wsklllczh= vvvvvvvvvvvvvvvvvvvv",
"vvvvvvvvvvvvvvvvvvv  4djjkxks,,331,pkklkzzq vvvvvvvvvvvvvvvvvvvv",
"vvvvvvvvvvvvvvvvvv o=tjzkjgks,1nb2:rdkkkgs9  vvvvvvvvvvvvvvvvvvv",
"vvvvvvvvvvvvvvvvvv 4uahjjgagjdprrrdkdyyse09X vvvvvvvvvvvvvvvvvvv",
"vvvvvvvvvvvvvvvvvv 6yauerrrrasdddfffsaw0999X vvvvvvvvvvvvvvvvvvv",
"vvvvvvvvvvvvvvvvvv -0ee9::;000wwyyyeew9;7>7O vvvvvvvvvvvvvvvvvvv",
"vvvvvvvvvvvvvvvvvv -70q9;*;:5550wwww099;799+ vvvvvvvvvvvvvvvvvvv",
"vvvvvvvvvvvvvvvvvv 69909**;;;;550w<w097;:90@ vvvvvvvvvvvvvvvvvvv",
"vvvvvvvvvvvvvvvvvv ;9595-;;;;;;5<0<y099;>>9@ vvvvvvvvvvvvvvvvvvv",
"vvvvvvvvvvvvvvvvvv -:599;-;;;;;;<<<009::::9* vvvvvvvvvvvvvvvvvvv",
"vvvvvvvvvvvvvvvvvv -:5899-::;;;::>>909:57::= vvvvvvvvvvvvvvvvvvv",
"vvvvvvvvvvvvvvvvvv -;5899;-:5;;5;::>8::57;:; vvvvvvvvvvvvvvvvvvv",
"vvvvvvvvvvvvvvvvvv -;;;8>;-;:;;;:;;::;::>>6; vvvvvvvvvvvvvvvvvvv",
"vvvvvvvvvvvvvvvvvv =;-;;;;***;;;-;;;;-;;:;;  vvvvvvvvvvvvvvvvvvv",
"vvvvvvvvvvvvvvvvvv O=;--******:;--*-;-;;--  vvvvvvvvvvvvvvvvvvvv",
"vvvvvvvvvvvvvvvvvv   -74-*****::;-;;;;*;74 vvvvvvvvvvvvvvvvvvvvv",
"vvvvvvvvvvvvvvvvvvvv 7ssa0:-;**;:;;;;-:rdy vvvvvvvvvvvvvvvvvvvvv",
"vvvvvvvvvvvvvvvvvvvv 7ahgdddp0,,99,00;espt vvvvvvvvvvvvvvvvvvvvv",
"vvvvvvvvvvvvvvvvvvv .60uuaprrpsddfr>:;,<<0 vvvvvvvvvvvvvvvvvvvvv",
"vvvvvvvvvvvvvvvvvvv O9eueeeeweererp<>-><90 vvvvvvvvvvvvvvvvvvvvv",
"vvvvvvvvvvvvvvvvvvv O0euyq0000900w000;-,90 vvvvvvvvvvvvvvvvvvvvv",
"vvvvvvvvvvvvvvvvvvv X9eyreeee00we<,,,>*-;0 vvvvvvvvvvvvvvvvvvvvv",
"vvvvvvvvvvvvvvvvvvv X59e099qe00w0000,;*>;: vvvvvvvvvvvvvvvvvvvvv",
"vvvvvvvvvvvvvvvvvvvv ::99970qeee0,:,0:->:> vvvvvvvvvvvvvvvvvvvvv",
"vvvvvvvvvvvvvvvvvvvv ;:>97::wewq95;;;;:,;9 vvvvvvvvvvvvvvvvvvvvv",
"vvvvvvvvvvvvvvvvvvvv 6;;<::900008:---;;::qh  vvvvvvvvvvvvvvvvvvv",
"vvvvvvvvvvvvvvvvvvvv 4;;;::::9858---*;;:ehzj vvvvvvvvvvvvvvvvvvv",
"vvvvvvvvvvvvvvvvvvvv qq6;;;::::;56-;;;:yddsp vvvvvvvvvvvvvvvvvvv",
"vvvvvvvvvvvvvvvvvvvv ajjp0:::::;55580wpsp00w vvvvvvvvvvvvvvvvvvv",
"vvvvvvvvvvvvvvvvvvv =5er00wrpepppddhppsrew99 vvvvvvvvvvvvvvvvvvv",
"vvvvvvvvvvvvvvvvvvv 599ew:;;8080wrprrw00<999 vvvvvvvvvvvvvvvvvvv",
"vvvvvvvvvvvvvvvvvvv 79998;*;;-;:80ewy<9<:990 vvvvvvvvvvvvvvvvvvv",
"vvvvvvvvvvvvvvvvvvv :7:985:*****;;:<r0,:;:50 vvvvvvvvvvvvvvvvvvv",
"vvvvvvvvvvvvvvvvvvv :;:988:;5;;*-;-:<0:,7::9 vvvvvvvvvvvvvvvvvvv",
"vvvvvvvvvvvvvvvvvvv ;:;899;:,,;:5;:;88:::::9 vvvvvvvvvvvvvvvvvvv",
"vvvvvvvvvvvvvvvvvvv 6;;;:>*:,,:;6:;;:;;;:8:= vvvvvvvvvvvvvvvvvvv",
"vvvvvvvvvvvvvvvvvvv s5;-;-**-*-;--;;;;;;;5= vvvvvvvvvvvvvvvvvvvv",
"vvvvvvvvvvvvvvvvvvv yr8::*%*-**;:;**--;::et vvvvvvvvvvvvvvvvvvvv",
"vvvvvvvvvvvvvvvvvvv 000e0,>;--;;-;**;;;:rja vvvvvvvvvvvvvvvvvvvv",
"vvvvvvvvvvvvvvvvvvv 9,0qwww,0e<,55::990err5= vvvvvvvvvvvvvvvvvvv",
"vvvvvvvvvvvvvvvvvvv 9995,rw-wpppe0e08;:ee059 vvvvvvvvvvvvvvvvvvv",
"vvvvvvvvvvvvvvvvvvv 999;,r0:;:<<::;;:-;79999 vvvvvvvvvvvvvvvvvvv",
"vvvvvvvvvvvvvvvvvvv 09;;w0<<:;*-;:;;:;;:::>5 vvvvvvvvvvvvvvvvvvv",
"vvvvvvvvvvvvvvvvvvv 9::90<>>-::;*-*;:;*;;::; vvvvvvvvvvvvvvvvvvv",
"vvvvvvvvvvvvvvvvvvv 7;99:::;;:;5;;-*;%%;;;:6 vvvvvvvvvvvvvvvvvvv",
"vvvvvvvvvvvvvvvvvvv  :>5;;;-;;5;;**;-%*;-;;; vvvvvvvvvvvvvvvvvvv",
"vvvvvvvvvvvvvvvvvvvv  :;;;*-*;--;;*=*%*;--;  vvvvvvvvvvvvvvvvvvv",
"vvvvvvvvvvvvvvvvvvvvv ;;;;;-**-:;-*-*%**-;  vvvvvvvvvvvvvvvvvvvv",
"vvvvvvvvvvvvvvvvvvvvvv =;-*;-=;;;*-**%%;  vvvvvvvvvvvvvvvvvvvvvv",
"vvvvvvvvvvvvvvvvvvvvvvv                  vvvvvvvvvvvvvvvvvvvvvvv"
};
