/* XPM */
static char *result[] = {
/* columns rows colors chars-per-pixel */
"64 64 56 1 ",
"  c black",
". c #1D0306",
"X c #1F080A",
"o c #220406",
"O c #2C0507",
"+ c #250609",
"@ c #2A070A",
"# c #26080B",
"$ c #2C090C",
"% c #310709",
"& c #330B0E",
"* c #3A0C0F",
"= c #360D10",
"- c #3B0E11",
"; c #3F1014",
": c #410B0F",
"> c #550B0E",
", c #5A0E0F",
"< c #420E12",
"1 c #4B0E13",
"2 c #520F15",
"3 c #5E0E12",
"4 c #431115",
"5 c #4A1316",
"6 c #4C1418",
"7 c #531216",
"8 c #5C1215",
"9 c #53151A",
"0 c #5B151B",
"q c #57181D",
"w c #5C191D",
"e c #631216",
"r c #63161C",
"t c #6A161B",
"y c #63191E",
"u c #6B191E",
"i c #71171C",
"p c #72191E",
"a c #5F1A20",
"s c #651720",
"d c #641A21",
"f c #6C1B22",
"g c #731D24",
"h c #7A1E26",
"j c #761F28",
"k c #791F28",
"l c #752026",
"z c #7C2026",
"x c #772129",
"c c #7C212A",
"v c #812227",
"b c #83232B",
"n c #89262E",
"m c #872530",
"M c #8B2730",
"N c #229D6E",
/* pixels */
"NNNNNNNNNNNNNNNNNNNNNNNNNNNNNNNNNNNNNNNNNNNNNNNNNNNNNNNNNNNNNNNN",
"NNNNNNNNNNNNNNNNNNNNNNNNNNNNNNNNNNNNNNNNNNNNNNNNNNNNNNNNNNNNNNNN",
"NNNNNNNNNNNNNNNNNNNNNNNNNNNNNNNNNNNNNNNNNNNNNNNNNNNNNNNNNNNNNNNN",
"NNNNNNNNNNNNNNNNNNNNNNNNNNNNNNNNNNNNNNNNNNNNNNNNNNNNNNNNNNNNNNNN",
"NNNNNNNNNNNNNNNNNNNNNNNNNNNNNNNNNNNNNNNNNNNNNNNNNNNNNNNNNNNNNNNN",
"NNNNNNNNNNNNNNNNNNNNNNNNNNNNNNNNNNNNNNNNNNNNNNNNNNNNNNNNNNNNNNNN",
"NNNNNNNNNNNNNNNNNNNNNNNNNNNNNNNNNNNNNNNNNNNNNNNNNNNNNNNNNNNNNNNN",
"NNNNNNNNNNNNNNNNNNNNNNNNNNNNNNNNNNNNNNNNNNNNNNNNNNNNNNNNNNNNNNNN",
"NNNNNNNNNNNNNNNNNNNNNNNNNNNNNNNNNNNNNNNNNNNNNNNNNNNNNNNNNNNNNNNN",
"NNNNNNNNNNNNNNNNNNNNNNNNNNNNNNNNNNNNNNNNNNNNNNNNNNNNNNNNNNNNNNNN",
"NNNNNNNNNNNNNNNNNNNNNNNNNNNNNNNNNNNNNNNNNNNNNNNNNNNNNNNNNNNNNNNN",
"NNNNNNNNNNNNNNNNNNNNNNNNNNNNNNNNNNNNNNNNNNNNNNNNNNNNNNNNNNNNNNNN",
"NNNNNNNNNNNNNNNNNNNNNNNNNNNNNNNNNNNNNNNNNNNNNNNNNNNNNNNNNNNNNNNN",
"NNNNNNNNNNNNNNNNNNNNNNNNNNNNNN       NNNNNNNNNNNNNNNNNNNNNNNNNNN",
"NNNNNNNNNNNNNNNNNNNNNNNNNNNN  kMMnnzg   NNNNNNNNNNNNNNNNNNNNNNNN",
"NNNNNNNNNNNNNNNNNNNN        MMMbbbbvkg0  NNNNNNNNNNNNNNNNNNNNNNN",
"NNNNNNNNNNNNNNNNNN  zvbvbvvbbMMMbbmbg0rsf NNNNNNNNNNNNNNNNNNNNNN",
"NNNNNNNNNNNNNNN   bvvbvbvbvhhvvvvhfh00skj  NNNNNNNNNNNNNNNNNNNNN",
"NNNNNNNNNNNN   xMMnbbnhggvvhhvjs0071121rwa    NNNNNNNNNNNNNNNNNN",
"NNNNNNNNNN  wpppbnnnbbztghhhhvjs7929r2129fxcgf NNNNNNNNNNNNNNNNN",
"NNNNNNNNN zziit,pbnvvkfphfgggckffffsfrsrfkkkkbm   NNNNNNNNNNNNNN",
"NNNNNNN  bnpii,>ihhhtruggg3egjckxgffssrscbbkkbmcf NNNNNNNNNNNNNN",
"NNNNNN bnnbptptetphhhkgtte2etfgfsa00r2::1rgfkcckfq NNNNNNNNNNNNN",
"NNNN  lbnnnzilztivbbbvhi21etegggfff222:1<9hgkkmckg NNNNNNNNNNNNN",
"NNN dmnnmnmbzcvlilzzvbg8>rrtttihjjkfa::10smmmxmcxjj NNNNNNNNNNNN",
"NNN nMnnnmmbvzvltihpptrttpttt3tgmkmgs028fcccxjgjcja NNNNNNNNNNNN",
"NNN lnMnmnnmbzlutzzhtue3tutt3egvbvjfss22sffsffckgq6 NNNNNNNNNNNN",
"NNN wlnnnnmbbztupczpie,>,etttpbkkbfsjf22091<9sxbfadd    NNNNNNNN",
"NNN qwylxczccbteuzcput,>,3uzhzvvbkkkjsrs21921rsfgccxa0s  NNNNNNN",
"NNN qq996qlccclutgzge8te>3zbhgggggghjjjr1*2sssssfjmcxkffc NNNNNN",
"NNN yqq6665alllfuphgregietccs220rssgfjs1<<12gbksdsjcmxsfcx NNNNN",
"NNN 95665546qdfy8tutpgvktsgr0080tfs0s09<1910gkgdgddfsffxxf NNNNN",
"NNN 4:45454q69yyyyfflzlzlfu08q0rgfdw95556qyw0wy7780yyflfy0 NNNNN",
"NNN ***45466659qqqlluydlluuy8987fufw00rwq499955455dywyqq66 NNNNN",
"NNN &&&-496555665qfllllzlll90057yfgfwdqqq96q955;;*66;qq64;6 NNNN",
"NNN &&--49644666qyaafdllluxyyu8rysdy076qqq64-4454*4;6a96546 NNNN",
"NNN *-;--464;466qdwwqwyydqwyw89q09444696444--;45wdq9wq94;664 NNN",
"NNN 555q664;;49qwwqq9q7qq65557555**4666444-=;;-;6qfdq59466q4 NNN",
"NNN 9545644$&466wqq9qq6751w875<44-;44;;;;4=**=-4546q45666664 NNN",
"NN $q6;;466-*;;qdq5qq76777575*-5-<;-;*;;;;4----;555566566654 NNN",
"NN #q4;-464---qaw957q955:1::<*4**<****---*45=-=;645445566644 NNN",
"NN $6--55-*;-6qw7445545*%%%%&&;=&-*-*----*---&=5464;4;;56;;; NNN",
"NN ;64454;;&56q6*$#$&*4:*%O%%%-*$*5;-4-&$#$&=&$*--*=&*--==== NNN",
"NN 46544;5=&69q*###$**;4:&%OO$*=*&-**-;&$&&&-$#&*$&-**--==== NNN",
"NNN 5---44&4994$#&&**&*;*$%%$#&*$&$&**-----55$$-;4*;-=*-=&=$ NNN",
"NNN 5--;444665&$&&--&$&$OOOo@$@@$&&&$&&&&&---$=--4;**&&;=&$# NNN",
"NNN 5--<;4466-o$&&&O*O&#O%$$&;;**;4&$$o.X++@$$=--&*---===-=$ NNN",
"NNN 54--=*&=$#oO####%$*%&&*-*444&=&$O.o$$#++X+=;&**-<;--44== NNN",
"NNN 4-*=--44-$+..+$&%*****---45&==@@$+.&-&$+.+===-;;;--;5;== NNN",
"NNNN 644-4q4--=@@+$&*&-*-<---<*&&o..+@.+&==+XX$=-&-==&=&-;;; NNN",
"NNNN 644-694--$+++$$%-<<-*--4-&%&...o@+++&&$++$;-;;*&=4-=44; NNN",
"NNNNN 646964--+o...@%<-**%&*&&@@$o...o+$$$-+@#$$-*-$$=44;;; NNNN",
"NNNNN =466444=+....$&&&&%@O%@@o..oo..@&=$&$#+$==-==----4;;4 NNNN",
"NNNNNN =666---$.....++++$@oOO+.o.oo.+$&$$$$#+$=-*&--=-=-;; NNNNN",
"NNNNNNN 664;-4<$.+.++o..oOooo.ooo..o+=-=$&$X.+$$oo$&$&$+X NNNNNN",
"NNNNNNNN 664-;-=.+.+o...oooo..ooo...+$$&++o+..+$#$=;$+#+ NNNNNNN",
"NNNNNNNN 66;44;#.++...X.ooo$@Oo.Oo...++$=++$$.X$$&$$$#$ NNNNNNNN",
"NNNNNNNNN 5;46;$.++X@@#&&$&=%Oo+oo..++$=-$$==X.#$$#$&$ NNNNNNNNN",
"NNNNNNNNNN 44;4=+.XX@=-=&@$=-%#+%@.o+$==-==-=#+#$&=-  NNNNNNNNNN",
"NNNNNNNNNNN  44-$..X#$=-===44<=&%$@o@&=-=-;4-+X+$$  NNNNNNNNNNNN",
"NNNNNNNNNNNNN ;;=&==;;;4--446466-=$#@;44-         NNNNNNNNNNNNNN",
"NNNNNNNNNNNNNN   ;;666444444666;=$==     NNNNNNNNNNNNNNNNNNNNNNN",
"NNNNNNNNNNNNNNNNN   =44;46666;=     NNNNNNNNNNNNNNNNNNNNNNNNNNNN",
"NNNNNNNNNNNNNNNNNNN             NNNNNNNNNNNNNNNNNNNNNNNNNNNNNNNN"
};
