/* XPM */
static char *result[] = {
/* columns rows colors chars-per-pixel */
"64 64 66 1 ",
"  c black",
". c #010101",
"X c #020202",
"o c gray1",
"O c #060606",
"+ c #070707",
"@ c #2B2122",
"# c #2F2527",
"$ c #2D2626",
"% c #2F2829",
"& c #312829",
"* c #392C2E",
"= c red",
"- c #FF0101",
"; c #FF0202",
": c #FF0302",
"> c #FF0303",
", c #FF0606",
"< c #FF0909",
"1 c #FF0B0B",
"2 c #FE1A19",
"3 c #FE201F",
"4 c #FF2424",
"5 c #FD3E3C",
"6 c #FD403E",
"7 c #FD4240",
"8 c #FD4341",
"9 c #FD4846",
"0 c #FD4E4B",
"q c #FD524F",
"w c #FD5451",
"e c #FC5B59",
"r c #FC5E5B",
"t c #FC6764",
"y c #FC6865",
"u c #FC6A67",
"i c #FC6B67",
"p c #FC706C",
"a c #FC7571",
"s c #FC7975",
"d c #FC7B77",
"f c #FC7D79",
"g c #229D6E",
"h c #FB8783",
"j c #FB8A86",
"k c #FB9994",
"l c #FB9C97",
"z c #FAA9A4",
"x c #FAAEA8",
"c c #FAC5BF",
"v c #F9CBC4",
"b c #F9CDC7",
"n c #F9CFC8",
"m c #E6D4CA",
"M c #F9D4CD",
"N c #F5D7D0",
"B c #F6D7D0",
"V c #F7DAD2",
"C c #F9D8D1",
"Z c #F8DAD3",
"A c #F9DAD3",
"S c gray99",
"D c #FDFDFD",
"F c #FEFDFD",
"G c #FEFEFE",
"H c white",
/* pixels */
"gggggggggggggggggggggggggggggggggggggggggggggggggggggggggggggggg",
"gggggggggggggggggggggggggggggggggggggggggggggggggggggggggggggggg",
"gggggggggggggggggggggHHHHggggggggHHHHggggggggggggggggggggggggggg",
"gggggggggggggggggggHHHHHggggggggggHHHHgggggggggggggggggggggggggg",
"ggggggggggggggggggHHHHHggggggggggggHHHHggggggggggggggggggggggggg",
"gggggggggggggggggHHHHHHgggggggggggggHHHHgggggggggggggggggggggggg",
"ggggggggggggggggHHHHHH               HHHHggggggggggggggggggggggg",
"ggggggggggggggggHHHHHH               OHHHHgggggggggggggggggggggg",
"gggggggggggggggHHHHHHH                 +HHgggggggggggggggggggggg",
"gggggggggggggggHHHHHHH                  .HHggggggggggggggggggggg",
"gggggggggggggg HHHHHHH                    Hggggggggggggggggggggg",
"ggggggggggggg  HHHHHHH                    Xggggggggggggggggggggg",
"gggggggggggg   HHHHHHH                     ogggggggggggggggggggg",
"ggggggggggg    HHHHHHH                       ggggggggggggggggggg",
"ggggggggg      HHHHHH                         gggggggggggggggggg",
"gggggggg        HHHHH                          ggggggggggggggggg",
"ggggggg                                         gggggggggggggggg",
"gggggg                                           ggggggggggggggg",
"gggggg                             A             ggggggggggggggg",
"ggggg                              A              gggggggggggggg",
"ggggg                              AA             gggggggggggggg",
"gggg                            A  AAA             ggggggggggggg",
"gggg                          AA  AAAA             ggggggggggggg",
"gggg                        AAAA  AACvb            ggggggggggggg",
"gggg                      AAAAA  AAAcuic           ggggggggggggg",
"ggg                     ,hAAAAA  AAAk1,h            gggggggggggg",
"ggg                   y=-eAAAA  AAAAy=-e            gggggggggggg",
"ggg                  Ar=-wAAA  AAAAAr=-wA           gggggggggggg",
"ggg                  Aq--rAAAAAAAAAAq--rA           gggggggggggg",
"ggg     g           AA9=-tAAAAAAAAAA9=-tA           gggggggggggg",
"ggg     g            A8--pAAAAAAAAAA8--pA           gggggggggggg",
"gggg    gg           A7=;dAAAAAAAAAA7=;dA          ggggggggggggg",
"gggg     g           A5=:sAAAAAAAAAA5=:sA          ggggggggggggg",
"gggg     gg          A6=;aAAAAAAAAAA6=;aA          ggggggggggggg",
"ggggg     gg    A     0->fAAAAAAAAAA0->fA         gggggggggggggg",
"ggggg      gg   AA    j<3zAAAAAAAAAAj<3zA         gggggggggggggg",
"gggggg     gggg AA     lxMAAAAAAAAAAnlxM         ggggggggggggggg",
"gggggg     gggg  A      AAAAAAAAAAAAAAA    g     ggggggggggggggg",
"ggggggg     gggg gA     AAAA%AAAA&AAAA g        gggggggggggggggg",
"ggggggg     gggg  gA    AAAAA*#$@AAAAAg   g     gggggggggggggggg",
"gggggggg    ggggg  gA    AAAAAAAAAAAA g  gg    ggggggggggggggggg",
"gggggggg    gggggggggg    AAAAAAAAA     ggg    ggggggggggggggggg",
"ggggggggg   gggggggg    H  AAAAA          g   gggggggggggggggggg",
"ggggggggg   ggggggg     HH   HH   H           gggggggggggggggggg",
"ggggggggg  gggggg       HH HHHHH HH           gggggggggggggggggg",
"gggggggg   ggggg         HHH HH HH             ggggggggggggggggg",
"ggggggg   ggggg           H  SG H               gggggggggggggggg",
"ggggg    gggggg       2      DG       g22         gggggggggggggg",
"ggggggggggggggg      22      GG        2222    ggggggggggggggggg",
"ggggggggggggg gg    22       HF  .     AB2222ggggggggggggggggggg",
"ggggggggggggg  gg  222       H4 .       AAN22ggggggggggggggggggg",
"ggggggggggggg  gggg22A       HH          AAmgggggggggggggggggggg",
"ggggggggggggg   gggggV                .   Zggggggggggggggggggggg",
"ggggggggggggg    ggggg                     ggggggggggggggggggggg",
"ggggggggggggg   gggggg                      gggggggggggggggggggg",
"ggggggggggggg   gggggg                      gggggggggggggggggggg",
"ggggggggggggg g gggggg HHHHHHgggggggHHHHHHHggggggggggggggggggggg",
"ggggggggggggggg  gggg  HHHHHHgggggggHHHHHHHHgggggggggggggggggggg",
"gggggggggggggggg       HHHHHHggggggggHHHHHHHgggggggggggggggggggg",
"gggggggggggggggggg    gHHHGHHgggggggggHHHHHHHggggggggggggggggggg",
"ggggggggggggggggggggggg      ggggggggg       ggggggggggggggggggg",
"ggggggggggggggggggggggg      gggggggggg      ggggggggggggggggggg",
"gggggggggggggggggggggggg    gggggggggggg    gggggggggggggggggggg",
"gggggggggggggggggggggggggggggggggggggggggggggggggggggggggggggggg"
};
