/* XPM */
static char *result[] = {
/* columns rows colors chars-per-pixel */
"64 64 64 1 ",
"  c black",
". c #000100",
"X c #000101",
"o c #010101",
"O c #020202",
"+ c gray1",
"@ c #010705",
"# c #060606",
"$ c #070707",
"% c #2B2122",
"& c #2F2527",
"* c #2D2626",
"= c #2F2829",
"- c #312829",
"; c #392C2E",
": c red",
"> c #FF0101",
", c #FF0202",
"< c #FF0302",
"1 c #FF0303",
"2 c #FF0606",
"3 c #FF0909",
"4 c #FF0B0B",
"5 c #FE1A19",
"6 c #FE201F",
"7 c #FF2424",
"8 c #FD3E3C",
"9 c #FD403E",
"0 c #FD4240",
"q c #FD4341",
"w c #FD4846",
"e c #FD4E4B",
"r c #FD524F",
"t c #FD5451",
"y c #FC5B59",
"u c #FC5E5B",
"i c #FC6764",
"p c #FC6865",
"a c #FC6A67",
"s c #FC6B67",
"d c #FC706C",
"f c #FC7571",
"g c #FC7975",
"h c #FC7B77",
"j c #FC7D79",
"k c #229D6E",
"l c #FB8783",
"z c #FB8A86",
"x c #FB9994",
"c c #FB9C97",
"v c #FAA9A4",
"b c #FAAEA8",
"n c #FAC5BF",
"m c #F9CBC4",
"M c #F9CDC7",
"N c #F9CFC8",
"B c #F9D4CD",
"V c #F6D7D0",
"C c #F7DAD2",
"Z c #F9D8D1",
"A c #F8D9D2",
"S c #F8DAD3",
"D c #F9DAD3",
"F c white",
/* pixels */
"kkkkkkkkkkkkkkkkkkkkkkkkkkkkkkkkkkkkkkkkkkkkkkkkkkkkkkkkkkkkkkkk",
"kkkkkkkkkkkkkkkkkkkkkkkkkFFFFkkkkkkkkFFFFkkkkkkkkkkkkkkkkkkkkkkk",
"kkkkkkkkkkkkkkkkkkkkkkkFFFFFkkkkkkkkkkFFFFkkkkkkkkkkkkkkkkkkkkkk",
"kkkkkkkkkkkkkkkkkkkkkkFFFFFkkkkkkkkkkkkFFFFkkkkkkkkkkkkkkkkkkkkk",
"kkkkkkkkkkkkkkkkkkkkkFFFFFFkkkkkkkkkkkkkFFFFkkkkkkkkkkkkkkkkkkkk",
"kkkkkkkkkkkkkkkkkkkkFFFFFF               FFFFkkkkkkkkkkkkkkkkkkk",
"kkkkkkkkkkkkkkkkkkkkFFFFFF               #FFFFkkkkkkkkkkkkkkkkkk",
"kkkkkkkkkkkkkkkkkkkFFFFFFF                 $FFkkkkkkkkkkkkkkkkkk",
"kkkkkkkkkkkkkkkkkkkFFFFFFF                  oFFkkkkkkkkkkkkkkkkk",
"kkkkkkkkkkkkkkkkkk FFFFFFF                    Fkkkkkkkkkkkkkkkkk",
"kkkkkkkkkkkkkkkkk  FFFFFFF                    Okkkkkkkkkkkkkkkkk",
"kkkkkkkkkkkkkkkk   FFFFFFF                     +kkkkkkkkkkkkkkkk",
"kkkkkkkkkkkkkkk    FFFFFFF                       kkkkkkkkkkkkkkk",
"kkkkkkkkkkkkk      FFFFFF                         kkkkkkkkkkkkkk",
"kkkkkkkkkkkk        FFFFF                          kkkkkkkkkkkkk",
"kkkkkkkkkkk                                         kkkkkkkkkkkk",
"kkkkkkkkkk                                           kkkkkkkkkkk",
"kkkkkkkkkk                             D             kkkkkkkkkkk",
"kkkkkkkkk                              D              kkkkkkkkkk",
"kkkkkkkkk                              DD             kkkkkkkkkk",
"kkkkkkkk                            D  DDD             kkkkkkkkk",
"kkkkkkkk                          DD  DDDD             kkkkkkkkk",
"kkkkkkkk                        DDDD  DDZmM            kkkkkkkkk",
"kkkkkkkk                      DDDDD  DDDnasn           kkkkkkkkk",
"kkkkkkk                     2lDDDDD  DDDx42l            kkkkkkkk",
"kkkkkkk                   p:>yDDDD  DDDDp:>y            kkkkkkkk",
"kkkkkkk                  Du:>tDDD  DDDDDu:>tD           kkkkkkkk",
"kkkkkkk                  Dr>>uDDDDDDDDDDr>>uD           kkkkkkkk",
"kkkkkkk     k           DDw:>iDDDDDDDDDDw:>iD           kkkkkkkk",
"kkkkkkk     k            Dq>>dDDDDDDDDDDq>>dD           kkkkkkkk",
"kkkkkkkk    kk           D0:,hDDDDDDDDDD0:,hD          kkkkkkkkk",
"kkkkkkkk     k           D8:<gDDDDDDDDDD8:<gD          kkkkkkkkk",
"kkkkkkkk     kk          D9:,fDDDDDDDDDD9:,fD          kkkkkkkkk",
"kkkkkkkkk     kk    D     e>1jDDDDDDDDDDe>1jD         kkkkkkkkkk",
"kkkkkkkkk      kk   DD    z36vDDDDDDDDDDz36vD         kkkkkkkkkk",
"kkkkkkkkkk     kkkk DD     cbBDDDDDDDDDDNcbB         kkkkkkkkkkk",
"kkkkkkkkkk     kkkk  D      DDDDDDDDDDDDDDD    k     kkkkkkkkkkk",
"kkkkkkkkkkk     kkkk kD     DDDD=DDDD-DDDD k        kkkkkkkkkkkk",
"kkkkkkkkkkk     kkkk  kD    DDDDD;&*%DDDDDk   k     kkkkkkkkkkkk",
"kkkkkkkkkkkk    kkkkk  kD    DDDDDDDDDDDDkk  kk    kkkkkkkkkkkkk",
"kkkkkkkkkkkk    kkkkkkkkk     DDDDDDDDD kk  kkk    kkkkkkkkkkkkk",
"kkkkkkkkkkkkk   kkkkkkkk       DDDDD       kkkk   kkkkkkkkkkkkkk",
"kkkkkkkkkkkkk   kkkkkk      F               kkk   kkkkkkkkkkkkkk",
"kkkkkkkkkkkkk  kkkkkk       FF   FF   F       kk  kkkkkkkkkkkkkk",
"kkkkkkkkkkkk   kkkk          FF FFFF FF            kkkkkkkkkkkkk",
"kkkkkkkkkkk   kkkk            FFFFFFFF              kkkkkkkkkkkk",
"kkkkkkkkk    kkkk              F FF F            k    kkkkkkkkkk",
"kkkkkkkkkkkkkkkkk       55       FF      55      kkkkkkkkkkkkkkk",
"kkkkkkkkkkkkkkkkk      555       FF      5555    kkkkkkkkkkkkkkk",
"kkkkkkkkkkkkk kkkk    555        FF       V5555kkkkkkkkkkkkkkkkk",
"kkkkkkkkkkkkk  kkkk  555A        F7       DDA55kkkkkkkkkkkkkkkkk",
"kkkkkkkkkkkkk  kkkkkk55D         FF        DDSkkkkkkkkkkkkkkkkkk",
"kkkkkkkkkkkkk   kkkkkkkC                    Skkkkkkkkkkkkkkkkkkk",
"kkkkkkkkkkkkk    kkkkkkk                     kkkkkkkkkkkkkkkkkkk",
"kkkkkkkkkkkkk   kkkkkkk@                     kkkkkkkkkkkkkkkkkkk",
"kkkkkkkkkkkkk   kkkkkkk           .XXOOOo    kkkkkkkkkkkkkkkkkkk",
"kkkkkkkkkkkkk k kkkkkk  FFFFFFFkkkkkkkFFFFFFFkkkkkkkkkkkkkkkkkkk",
"kkkkkkkkkkkkkkk  kkkk   FFFFFFkkkkkkkkFFFFFFFkkkkkkkkkkkkkkkkkkk",
"kkkkkkkkkkkkkkkk       kFFFFFFkkkkkkkkkFFFFFFkkkkkkkkkkkkkkkkkkk",
"kkkkkkkkkkkkkkkkkk    kkFFFFFFkkkkkkkkkFFFFFFkkkkkkkkkkkkkkkkkkk",
"kkkkkkkkkkkkkkkkkkkkkkkk      kkkkkkkkk      kkkkkkkkkkkkkkkkkkk",
"kkkkkkkkkkkkkkkkkkkkkkkk      kkkkkkkkk      kkkkkkkkkkkkkkkkkkk",
"kkkkkkkkkkkkkkkkkkkkkkkkk    kkkkkkkkkkk    kkkkkkkkkkkkkkkkkkkk",
"kkkkkkkkkkkkkkkkkkkkkkkkkkkkkkkkkkkkkkkkkkkkkkkkkkkkkkkkkkkkkkkk"
};
