/* XPM */
static char *result[] = {
/* columns rows colors chars-per-pixel */
"64 64 64 1 ",
"  c black",
". c #000100",
"X c #000101",
"o c #010101",
"O c #020202",
"+ c gray1",
"@ c #060606",
"# c #070707",
"$ c #2B2122",
"% c #2F2527",
"& c #2D2626",
"* c #2F2829",
"= c #312829",
"- c #392C2E",
"; c red",
": c #FF0101",
"> c #FF0202",
", c #FF0302",
"< c #FF0303",
"1 c #FF0606",
"2 c #FF0909",
"3 c #FF0B0B",
"4 c #FE1A19",
"5 c #FE201F",
"6 c #FF2424",
"7 c #FD3E3C",
"8 c #FD403E",
"9 c #FD4240",
"0 c #FD4341",
"q c #FD4846",
"w c #FD4E4B",
"e c #FD524F",
"r c #FD5451",
"t c #FC5B59",
"y c #FC5E5B",
"u c #FC6764",
"i c #FC6865",
"p c #FC6A67",
"a c #FC6B67",
"s c #FC706C",
"d c #FC7571",
"f c #FC7975",
"g c #FC7B77",
"h c #FC7D79",
"j c #229D6E",
"k c #FB8783",
"l c #FB8A86",
"z c #FB9994",
"x c #FB9C97",
"c c #FAA9A4",
"v c #FAAEA8",
"b c #FAC5BF",
"n c #F9CBC4",
"m c #F9CDC7",
"M c #F9CFC8",
"N c #E6D4CA",
"B c #F9D4CD",
"V c #F5D7D0",
"C c #F6D7D0",
"Z c #F9D8D1",
"A c #F8D9D2",
"S c #F8DAD3",
"D c #F9DAD3",
"F c white",
/* pixels */
"jjjjjjjjjjjjjjjjjjjjjjjjjjjjjjjjjjjjjjjjjjjjjjjjjjjjjjjjjjjjjjjj",
"jjjjjjjjjjjjjjjjjjjjjjjjjjjjFFFFjjjjjjjjFFFFjjjjjjjjjjjjjjjjjjjj",
"jjjjjjjjjjjjjjjjjjjjjjjjjjFFFFFjjjjjjjjjjFFFFjjjjjjjjjjjjjjjjjjj",
"jjjjjjjjjjjjjjjjjjjjjjjjjFFFFFjjjjjjjjjjjjFFFFjjjjjjjjjjjjjjjjjj",
"jjjjjjjjjjjjjjjjjjjjjjjjFFFFFFjjjjjjjjjjjjjFFFFjjjjjjjjjjjjjjjjj",
"jjjjjjjjjjjjjjjjjjjjjjjFFFFFF               FFFFjjjjjjjjjjjjjjjj",
"jjjjjjjjjjjjjjjjjjjjjjjFFFFFF               @FFFFjjjjjjjjjjjjjjj",
"jjjjjjjjjjjjjjjjjjjjjjFFFFFFF                 #FFjjjjjjjjjjjjjjj",
"jjjjjjjjjjjjjjjjjjjjjjFFFFFFF                  oFFjjjjjjjjjjjjjj",
"jjjjjjjjjjjjjjjjjjjjj FFFFFFF                    Fjjjjjjjjjjjjjj",
"jjjjjjjjjjjjjjjjjjjj  FFFFFFF                    Ojjjjjjjjjjjjjj",
"jjjjjjjjjjjjjjjjjjj   FFFFFFF                     +jjjjjjjjjjjjj",
"jjjjjjjjjjjjjjjjjj    FFFFFFF                       jjjjjjjjjjjj",
"jjjjjjjjjjjjjjjj      FFFFFF                         jjjjjjjjjjj",
"jjjjjjjjjjjjjjj        FFFFF                          jjjjjjjjjj",
"jjjjjjjjjjjjjj                                         jjjjjjjjj",
"jjjjjjjjjjjjj                                           jjjjjjjj",
"jjjjjjjjjjjjj                             D             jjjjjjjj",
"jjjjjjjjjjjj                              D              jjjjjjj",
"jjjjjjjjjjjj                              DD             jjjjjjj",
"jjjjjjjjjjj                            D  DDD             jjjjjj",
"jjjjjjjjjjj                          DD  DDDD             jjjjjj",
"jjjjjjjjjjj                        DDDD  DDZnm            jjjjjj",
"jjjjjjjjjjj                      DDDDD  DDDbpab           jjjjjj",
"jjjjjjjjjj                     1kDDDDD  DDDz31k            jjjjj",
"jjjjjjjjjj                   i;:tDDDD  DDDDi;:t            jjjjj",
"jjjjjjjjjj                  Dy;:rDDD  DDDDDy;:rD           jjjjj",
"jjjjjjjjjj                  De::yDDDDDDDDDDe::yD           jjjjj",
"jjjjjjjjjj     j           DDq;:uDDDDDDDDDDq;:uD           jjjjj",
"jjjjjjjjjj     j            D0::sDDDDDDDDDD0::sD           jjjjj",
"jjjjjjjjjjj    jj           D9;>gDDDDDDDDDD9;>gD          jjjjjj",
"jjjjjjjjjjj     j           D7;,fDDDDDDDDDD7;,fD          jjjjjj",
"jjjjjjjjjjj     jj          D8;>dDDDDDDDDDD8;>dD          jjjjjj",
"jjjjjjjjjjjj     jj    D     w:<hDDDDDDDDDDw:<hD         jjjjjjj",
"jjjjjjjjjjjj      jj   DD    l25cDDDDDDDDDDl25cD         jjjjjjj",
"jjjjjjjjjjjjj     jjjj DD     xvBDDDDDDDDDDMxvB         jjjjjjjj",
"jjjjjjjjjjjjj     jjjj  D      DDDDDDDDDDDDDDD    j     jjjjjjjj",
"jjjjjjjjjjjjjj     jjjj jD     DDDD*DDDD=DDDD j        jjjjjjjjj",
"jjjjjjjjjjjjjj     jjjj  jD    DDDDD-%&$DDDDDj   j     jjjjjjjjj",
"jjjjjjjjjjjjjjj    jjjjj  jD    DDDDDDDDDDDDjj  jj    jjjjjjjjjj",
"jjjjjjjjjjjjjjj    jjjjjjjjjj    DDDDDDDDD  j  jjj    jjjjjjjjjj",
"jjjjjjjjjjjjjjjj   jjjjjjjj       DDDDD       jjjj   jjjjjjjjjjj",
"jjjjjjjjjjjjjjjj   jjjjjj                      jjj   jjjjjjjjjjj",
"jjjjjjjjjjjjjjjj  jjjjj        F        F       jjj  jjjjjjjjjjj",
"jjjjjjjjjjjjjjj   jjj          FF FFFF FF         j   jjjjjjjjjj",
"jjjjjjjjjjjjjj   jjj            FFFFFFFF           j   jjjjjjjjj",
"jjjjjjjjjjjj    jjjj             F FF F             j    jjjjjjj",
"jjjjjjjjjjjjjjjjjjjj      44     + FF      44       jjjjjjjjjjjj",
"jjjjjjjjjjjjjjjjjjjj    4444       FF      444      jjjjjjjjjjjj",
"jjjjjjjjjjjjjjj jjjjjj4444C        FF       444    jjjjjjjjjjjjj",
"jjjjjjjjjjjjjjj  jjjjj44VDD        F6       A444  jjjjjjjjjjjjjj",
"jjjjjjjjjjjjjjj  jjjjjjND          FF        D44jjjjjjjjjjjjjjjj",
"jjjjjjjjjjjjjjj   jjjjjjS          Oo         jjjjjjjjjjjjjjjjjj",
"jjjjjjjjjjjjjjj    jjjjjj                      jjjjjjjjjjjjjjjjj",
"jjjjjjjjjjjjjjj   jjjjjj                       jjjjjjjjjjjjjjjjj",
"jjjjjjjjjjjjjjj   jjjjjj           .X.          jjjjjjjjjjjjjjjj",
"jjjjjjjjjjjjjjj j jjjjjj FFFFFFFjjjjjjjFFFFFFjjjjjjjjjjjjjjjjjjj",
"jjjjjjjjjjjjjjjjj  jjjj  FFFFFFjjjjjjjjFFFFFFFjjjjjjjjjjjjjjjjjj",
"jjjjjjjjjjjjjjjjjj      FFFFFFFjjjjjjjjjFFFFFFjjjjjjjjjjjjjjjjjj",
"jjjjjjjjjjjjjjjjjjjj    FFFFFFjjjjjjjjjjFFFFFFjjjjjjjjjjjjjjjjjj",
"jjjjjjjjjjjjjjjjjjjjjjjj      jjjjjjjjjj      jjjjjjjjjjjjjjjjjj",
"jjjjjjjjjjjjjjjjjjjjjjjj      jjjjjjjjjj      jjjjjjjjjjjjjjjjjj",
"jjjjjjjjjjjjjjjjjjjjjjjjj    jjjjjjjjjjjj    jjjjjjjjjjjjjjjjjjj",
"jjjjjjjjjjjjjjjjjjjjjjjjjjjjjjjjjjjjjjjjjjjjjjjjjjjjjjjjjjjjjjjj"
};
