/* XPM */
static char *result[] = {
/* columns rows colors chars-per-pixel */
"64 64 67 1 ",
"  c black",
". c #010101",
"X c #020202",
"o c gray1",
"O c #060606",
"+ c #070707",
"@ c #2B2122",
"# c #2F2527",
"$ c #2D2626",
"% c #2F2829",
"& c #312829",
"* c #392C2E",
"= c red",
"- c #FF0101",
"; c #FF0202",
": c #FF0302",
"> c #FF0303",
", c #FF0606",
"< c #FF0909",
"1 c #FF0B0B",
"2 c #FE1A19",
"3 c #FE201F",
"4 c #FF2424",
"5 c #FD3E3C",
"6 c #FD403E",
"7 c #FD4240",
"8 c #FD4341",
"9 c #FD4846",
"0 c #FD4E4B",
"q c #FD524F",
"w c #FD5451",
"e c #FC5B59",
"r c #FC5E5B",
"t c #FC6764",
"y c #FC6865",
"u c #FC6A67",
"i c #FC6B67",
"p c #FC706C",
"a c #FC7571",
"s c #FC7975",
"d c #FC7B77",
"f c #FC7D79",
"g c #229D6E",
"h c #FB8783",
"j c #FB8A86",
"k c #FB9994",
"l c #FB9C97",
"z c #FAA9A4",
"x c #FAAEA8",
"c c #FAC5BF",
"v c #F9CBC4",
"b c #F9CDC7",
"n c #F9CFC8",
"m c #E6D4CA",
"M c #F9D4CD",
"N c #F5D7D0",
"B c #F6D7D0",
"V c #F5D9D1",
"C c #F7DAD2",
"Z c #F9D8D1",
"A c #F8D9D2",
"S c #F9DAD3",
"D c gray99",
"F c #FDFDFD",
"G c #FEFDFD",
"H c #FEFEFE",
"J c white",
/* pixels */
"gggggggggggggggggggggggggggggggggggggggggggggggggggggggggggggggg",
"gggggggggggggggggggggggggggggggggggggggggggggggggggggggggggggggg",
"ggggggggggggggggggggggggggggggggJJJJggggggggJJJJgggggggggggggggg",
"ggggggggggggggggggggggggggggggJJJJJggggggggggJJJJggggggggggggggg",
"gggggggggggggggggggggggggggggJJJJJggggggggggggJJJJgggggggggggggg",
"ggggggggggggggggggggggggggggJJJJJJgggggggggggggJJJJggggggggggggg",
"gggggggggggggggggggggggggggJJJJJJ               JJJJgggggggggggg",
"gggggggggggggggggggggggggggJJJJJJ               OJJJJggggggggggg",
"ggggggggggggggggggggggggggJJJJJJJ                 +JJggggggggggg",
"ggggggggggggggggggggggggggJJJJJJJ                  .JJgggggggggg",
"ggggggggggggggggggggggggg JJJJJJJ                    Jgggggggggg",
"gggggggggggggggggggggggg  JJJJJJJ                    Xgggggggggg",
"ggggggggggggggggggggggg   JJJJJJJ                     oggggggggg",
"gggggggggggggggggggggg    JJJJJJJ                       gggggggg",
"gggggggggggggggggggg      JJJJJJ                         ggggggg",
"ggggggggggggggggggg        JJJJJ                          gggggg",
"gggggggggggggggggg                                         ggggg",
"ggggggggggggggggg                                           gggg",
"ggggggggggggggggg                             S             gggg",
"gggggggggggggggg                              S              ggg",
"gggggggggggggggg                              SS             ggg",
"ggggggggggggggg                            S  SSS             gg",
"ggggggggggggggg                          SS  SSSS             gg",
"ggggggggggggggg                        SSSS  SSZvb            gg",
"ggggggggggggggg                      SSSSS  SSScuic           gg",
"gggggggggggggg                     ,hSSSSS  SSSk1,h            g",
"gggggggggggggg                   y=-eSSSS  SSSSy=-e            g",
"gggggggggggggg                  Sr=-wSSS  SSSSSr=-wS           g",
"gggggggggggggg                  Sq--rSSSSSSSSSSq--rS           g",
"gggggggggggggg     g           SS9=-tSSSSSSSSSS9=-tS           g",
"gggggggggggggg     g            S8--pSSSSSSSSSS8--pS           g",
"ggggggggggggggg    gg           S7=;dSSSSSSSSSS7=;dS          gg",
"ggggggggggggggg     g           S5=:sSSSSSSSSSS5=:sS          gg",
"ggggggggggggggg     gg          S6=;aSSSSSSSSSS6=;aS          gg",
"gggggggggggggggg     gg    S     0->fSSSSSSSSSS0->fS         ggg",
"gggggggggggggggg      gg   SS    j<3zSSSSSSSSSSj<3zS         ggg",
"ggggggggggggggggg     gggg SS     lxMSSSSSSSSSSnlxM         gggg",
"ggggggggggggggggg     gggg  S      SSSSSSSSSSSSSSS    g     gggg",
"gggggggggggggggggg     gggg gS     SSSS%SSSS&SSSS g        ggggg",
"gggggggggggggggggg     gggg  gS    SSSSS*#$@SSSSSg   g     ggggg",
"ggggggggggggggggggg    ggggg  gS    SSSSSSSSSSSSgg  gg    gggggg",
"ggggggggggggggggggg    ggggggg       SSSSSSSSS  g  ggg    gggggg",
"gggggggggggggggggggg   ggggg          SSSSS J     gggg   ggggggg",
"gggggggggggggggggggg   ggg        J   JJ   JJ      ggg   ggggggg",
"gggggggggggggggggggg  gg          JJ JJJJJ JJ        gg  ggggggg",
"ggggggggggggggggggg   g            JJ JJ JJJ          g   gggggg",
"gggggggggggggggggg   gg             J HD  J            g   ggggg",
"gggggggggggggggg    ggg      22       HF      22       gg    ggg",
"ggggggggggggggggggggggg    222        HH      222      ggggggggg",
"ggggggggggggggggg ggggggg2222B     .  GJ       222    gggggggggg",
"ggggggggggggggggg  gggggg22NS       . J4       A222  ggggggggggg",
"ggggggggggggggggg  gggggggmS          JJ       SS22ggggggggggggg",
"ggggggggggggggggg   ggggggg   .                SCggggggggggggggg",
"ggggggggggggggggg    ggggg                     Vgggggggggggggggg",
"ggggggggggggggggg   ggggg                      ggggggggggggggggg",
"ggggggggggggggggg   ggggg                      ggggggggggggggggg",
"ggggggggggggggggg g ggggggJJJJJJJgggggggJJJJJJgggggggggggggggggg",
"ggggggggggggggggggg  ggggJJJJJJJJgggggggJJJJJJgggggggggggggggggg",
"gggggggggggggggggggg     JJJJJJJggggggggJJJJJJgggggggggggggggggg",
"gggggggggggggggggggggg  JJJJJJJgggggggggJJHJJJgggggggggggggggggg",
"gggggggggggggggggggggggg       ggggggggg      gggggggggggggggggg",
"gggggggggggggggggggggggg      gggggggggg      gggggggggggggggggg",
"ggggggggggggggggggggggggg    gggggggggggg    ggggggggggggggggggg",
"gggggggggggggggggggggggggggggggggggggggggggggggggggggggggggggggg"
};
