/* XPM */
static char *result[] = {
/* columns rows colors chars-per-pixel */
"64 64 63 1 ",
"  c black",
". c #010101",
"X c #020202",
"o c gray1",
"O c #060606",
"+ c #070707",
"@ c #2B2122",
"# c #2F2527",
"$ c #2D2626",
"% c #2F2829",
"& c #312829",
"* c #392C2E",
"= c red",
"- c #FF0101",
"; c #FF0202",
": c #FF0302",
"> c #FF0303",
", c #FF0606",
"< c #FF0909",
"1 c #FF0B0B",
"2 c #FE1A19",
"3 c #FE201F",
"4 c #FF2424",
"5 c #FD3E3C",
"6 c #FD403E",
"7 c #FD4240",
"8 c #FD4341",
"9 c #FD4846",
"0 c #FD4E4B",
"q c #FD524F",
"w c #FD5451",
"e c #FC5B59",
"r c #FC5E5B",
"t c #FC6764",
"y c #FC6865",
"u c #FC6A67",
"i c #FC6B67",
"p c #FC706C",
"a c #FC7571",
"s c #FC7975",
"d c #FC7B77",
"f c #FC7D79",
"g c #229D6E",
"h c #FB8783",
"j c #FB8A86",
"k c #FB9994",
"l c #FB9C97",
"z c #FAA9A4",
"x c #FAAEA8",
"c c #FAC5BF",
"v c #F9CBC4",
"b c #F9CDC7",
"n c #F9CFC8",
"m c #E6D4CA",
"M c #F9D4CD",
"N c #F5D7D0",
"B c #F6D7D0",
"V c #F5D9D1",
"C c #F7DAD2",
"Z c #F9D8D1",
"A c #F8D9D2",
"S c #F9DAD3",
"D c white",
/* pixels */
"gggggggggggggggggggggggggggggggggggggggggggggggggggggggggggggggg",
"gggggggggggggggggggggggggggggggggggggggggggggggggggggggggggggggg",
"gggggggggggggggggggggggDDDDggggggggDDDDggggggggggggggggggggggggg",
"gggggggggggggggggggggDDDDDggggggggggDDDDgggggggggggggggggggggggg",
"ggggggggggggggggggggDDDDDggggggggggggDDDDggggggggggggggggggggggg",
"gggggggggggggggggggDDDDDDgggggggggggggDDDDgggggggggggggggggggggg",
"ggggggggggggggggggDDDDDD               DDDDggggggggggggggggggggg",
"ggggggggggggggggggDDDDDD               ODDDDgggggggggggggggggggg",
"gggggggggggggggggDDDDDDD                 +DDgggggggggggggggggggg",
"gggggggggggggggggDDDDDDD                  .DDggggggggggggggggggg",
"gggggggggggggggg DDDDDDD                    Dggggggggggggggggggg",
"ggggggggggggggg  DDDDDDD                    Xggggggggggggggggggg",
"gggggggggggggg   DDDDDDD                     ogggggggggggggggggg",
"ggggggggggggg    DDDDDDD                       ggggggggggggggggg",
"ggggggggggg      DDDDDD                         gggggggggggggggg",
"gggggggggg        DDDDD                          ggggggggggggggg",
"ggggggggg                                         gggggggggggggg",
"gggggggg                                           ggggggggggggg",
"gggggggg                             S             ggggggggggggg",
"ggggggg                              S              gggggggggggg",
"ggggggg                              SS             gggggggggggg",
"gggggg                            S  SSS             ggggggggggg",
"gggggg                          SS  SSSS             ggggggggggg",
"gggggg                        SSSS  SSZvb            ggggggggggg",
"gggggg                      SSSSS  SSScuic           ggggggggggg",
"ggggg                     ,hSSSSS  SSSk1,h            gggggggggg",
"ggggg                   y=-eSSSS  SSSSy=-e            gggggggggg",
"ggggg                  Sr=-wSSS  SSSSSr=-wS           gggggggggg",
"ggggg                  Sq--rSSSSSSSSSSq--rS           gggggggggg",
"ggggg     g           SS9=-tSSSSSSSSSS9=-tS           gggggggggg",
"ggggg     g            S8--pSSSSSSSSSS8--pS           gggggggggg",
"gggggg    gg           S7=;dSSSSSSSSSS7=;dS          ggggggggggg",
"gggggg     g           S5=:sSSSSSSSSSS5=:sS          ggggggggggg",
"gggggg     gg          S6=;aSSSSSSSSSS6=;aS          ggggggggggg",
"ggggggg     gg    S     0->fSSSSSSSSSS0->fS         gggggggggggg",
"ggggggg      gg   SS    j<3zSSSSSSSSSSj<3zS         gggggggggggg",
"gggggggg     gggg SS     lxMSSSSSSSSSSnlxM         ggggggggggggg",
"gggggggg     gggg  S      SSSSSSSSSSSSSSS    g     ggggggggggggg",
"ggggggggg     gggg gS     SSSS%SSSS&SSSS g        gggggggggggggg",
"ggggggggg     gggg  gS    SSSSS*#$@SSSSSg   g     gggggggggggggg",
"gggggggggg    ggggg  gS    SSSSSSSSSSSSgg  gg    ggggggggggggggg",
"gggggggggg    ggggggggg     SSSSSSSSS     ggg    ggggggggggggggg",
"ggggggggggg   ggggggg     D  SSSSS         gg   gggggggggggggggg",
"ggggggggggg   gggggg      DD   DD   D           gggggggggggggggg",
"ggggggggggg  ggggg         D DDDDD DD           gggggggggggggggg",
"gggggggggg   gggg          DDD DD DD             ggggggggggggggg",
"ggggggggg   gggg            D  DD D               gggggggggggggg",
"ggggggg    ggggg       22      DD       22          gggggggggggg",
"gggggggggggggggg      222      DD        222    gggggggggggggggg",
"gggggggggggggg gg    222       DD        B2222gggggggggggggggggg",
"gggggggggggggg  gg  222A       D4         SN22gggggggggggggggggg",
"gggggggggggggg  gggg22SS       DD          Smggggggggggggggggggg",
"gggggggggggggg   gggggCS                    gggggggggggggggggggg",
"gggggggggggggg    gggggV                     ggggggggggggggggggg",
"gggggggggggggg   ggggggg                     ggggggggggggggggggg",
"gggggggggggggg   ggggggg                      gggggggggggggggggg",
"gggggggggggggg g gggggg DDDDDDDggggggDDDDDDDDggggggggggggggggggg",
"gggggggggggggggg  gggg  DDDDDDgggggggDDDDDDDDggggggggggggggggggg",
"ggggggggggggggggg      DDDDDDDggggggggDDDDDDDDgggggggggggggggggg",
"ggggggggggggggggggg    DDDDDDDgggggggggDDDDDDDgggggggggggggggggg",
"ggggggggggggggggggggggg       gggggggggg      gggggggggggggggggg",
"ggggggggggggggggggggggg       gggggggggg      gggggggggggggggggg",
"gggggggggggggggggggggggg     gggggggggggg    ggggggggggggggggggg",
"gggggggggggggggggggggggggggggggggggggggggggggggggggggggggggggggg"
};
