/* XPM */
static char *result[] = {
/* columns rows colors chars-per-pixel */
"64 64 171 2 ",
"   c #020304",
".  c #01060B",
"X  c #040B0A",
"o  c #0A0A0B",
"O  c #070A07",
"+  c #04110C",
"@  c #0D0E11",
"#  c #051611",
"$  c #0E1212",
"%  c #061912",
"&  c #081F17",
"*  c #141414",
"=  c #171718",
"-  c #181718",
";  c #161819",
":  c #1C1D1C",
">  c #201F1E",
",  c #08251A",
"<  c #09291D",
"1  c #1D211D",
"2  c #20201E",
"3  c #1E1F21",
"4  c #072420",
"5  c #092C20",
"6  c #1F2121",
"7  c #0B3223",
"8  c #0C382B",
"9  c #232424",
"0  c #272827",
"q  c #282728",
"w  c #2B2C2B",
"e  c #2F2F30",
"r  c #312F30",
"t  c #343433",
"y  c #383738",
"u  c #373939",
"i  c #3B3C3C",
"p  c #0D412F",
"a  c #12412F",
"s  c #0F4430",
"d  c #0F4936",
"f  c #114D36",
"g  c #104D3D",
"h  c #12543B",
"j  c #13593F",
"k  c #2C453C",
"l  c #40403F",
"z  c #3F3E40",
"x  c #145C41",
"c  c #166748",
"v  c #176B4D",
"b  c #166748",
"n  c #197352",
"m  c #1B7C57",
"M  c #1C7E5A",
"N  c #424343",
"B  c #4A4B4B",
"V  c #505050",
"C  c gray37",
"Z  c gray39",
"A  c #757676",
"S  c #1D845D",
"D  c #1F8E64",
"F  c #1D8660",
"G  c #1F9165",
"H  c #209367",
"J  c #219469",
"K  c #229D6E",
"L  c #2B976D",
"P  c #269D70",
"I  c #2B9E72",
"U  c #339E75",
"Y  c #379F78",
"T  c #399F78",
"R  c #32A177",
"E  c #3CA07A",
"W  c #35A278",
"Q  c #5C8575",
"!  c #409173",
"~  c #51957B",
"^  c #618678",
"/  c #638076",
"(  c #45A17D",
")  c #48A17F",
"_  c #559B81",
"`  c #6B9182",
"'  c #7B9E93",
"]  c #4CA181",
"[  c #53A284",
"{  c #58A386",
"}  c #5CA389",
"|  c #64A48C",
" . c #6BA58E",
".. c #6EA590",
"X. c #76A693",
"o. c #7BA696",
"O. c #7BA39C",
"+. c #898989",
"@. c #838786",
"#. c #87908D",
"$. c #88918E",
"%. c #969897",
"&. c #9B9D9C",
"*. c gray57",
"=. c #85A79A",
"-. c #8DA89E",
";. c #83A89A",
":. c #8DA7A1",
">. c #95A5A2",
",. c #94AAA1",
"<. c #9BAAA4",
"1. c #9BA0A0",
"2. c #97B5A9",
"3. c #A4A4A4",
"4. c #A2A9A6",
"5. c #A6A7A8",
"6. c #A6ACA9",
"7. c #ACACAC",
"8. c #B0AEAF",
"9. c #AEB0AF",
"0. c #A1B5AE",
"q. c #B1B1AF",
"w. c #AFAFB1",
"e. c #B2AFB1",
"r. c #AFB0B1",
"t. c #B3B4B4",
"y. c #B6B9B6",
"u. c #B9B9B7",
"i. c #B6B7B8",
"p. c #B9B6B9",
"a. c #B7B9B9",
"s. c #BCBCBC",
"d. c #C0BEBF",
"f. c #BEC1BF",
"g. c #BEBEC0",
"h. c #C1BFC1",
"j. c #BFC1C1",
"k. c #C3C3C3",
"l. c #C8C7C7",
"z. c #C7C8C7",
"x. c #C9C8C7",
"c. c #C6C7C8",
"v. c #C7C8C9",
"b. c #CBCCCC",
"n. c #D0CFCF",
"m. c #CED0CE",
"M. c #D1CFD4",
"N. c #CFD2D1",
"B. c #D3D3D3",
"V. c #D8D7D7",
"C. c #D8DAD7",
"Z. c #DBD7D9",
"A. c #D7D9D8",
"S. c #DCDCDC",
"D. c #D5D6D8",
"F. c #E0DEDF",
"G. c #E0E1DF",
"H. c #DEE2E0",
"J. c #E3E4E3",
"K. c #E9E7E7",
"L. c #E7E8E7",
"P. c #E9E9E7",
"I. c #E7EAEA",
"U. c #EBECEB",
"Y. c #EFF0ED",
"T. c #EFF5F2",
"R. c #F4F4F3",
"E. c #F8F7F5",
"W. c #F9F9F7",
"Q. c #F8F7F9",
"!. c #FCFDFC",
/* pixels */
"K K K K K K K K K K K K K K K K K K K K K K K K K K K K K K K K K K K K K K K K K K K K K K K K K K K K K K K K K K K K K K K K ",
"K K K K K K K K K K K K K K K K K K K K K K K K K K K K K K K K K K K K K K K K K K K K K K K K K K K K K K K K K K K K K K K K ",
"K K K K K K K K K K K K K K K K K K K K K K K K K K K K K K K K K K K K K K K K K K K K K K K K K K K K K K K K K K K K K K K K ",
"K K K K K K K K K K K K K K K K K K K K K K K K K K K K K K K K K K K K K K K K K K K K K K K K K K K K K K K K K K K K K K K K ",
"K K K K K K K K K K K K K K K K K K K K K K K K K K K K K K K K K K K K K K K K K K K K K K K K K K K K K K K K K K K K K K K K ",
"K K K K K K K K K K K K K K K K K K K K K K K K K K K K K K K K K K K K K K K K K K K K K K K K K K K K K K K K K K K K K K K K ",
"K K K K K K K K K K K K K K K K K K K K K K K K K K K K K K K K K K K K K K K K K K K K K K K K K K K K K K K K K K K K K K K K ",
"K K K K K K K K K K K K K K K K K K K K K K K K K K K K K K K K K K K K K K K K K K K K K K K K K K K K K K K K K K K K K K K K ",
"K K K K K K K K K K K K K K K K K K K K K K K K K K K K K K K K K K K K K K K K K K K K K K K K K K K K K K K K K K K K K K K K ",
"K K K K K K K K K K K K K K K K K K K K K K K K K K K K K K K K K K K K K K K K K K K K K K K K K K K K K K K K K K K K K K K K ",
"K K K K K K K K K K K K K K K K K K K K K K K K K K K K K K K K K K K K K K K K K K K K K K K K K K K K K K K K K K K K K K K K ",
"K K K K K K K K K K K K K K K K K K K K K K K K K K K K K K K K K K K K K K K K K K K K K K K K K K K K K K K K K K K K K K K K ",
"K K K K K K K K K K K K K K K K K K K K K K K K K K K K K K K K K K K K K K K K K K K K K K K K K K K K K K K K K K K K K K K K ",
"K K K K K K K K K K K K K K K K K K K K K K K K K K K K K K K K K K K K K K K K K K K K K K K K K K K K K K K K K K K K K K K K ",
"K K K K K K K K K K K K K K K K K K K K K K K K K K K K K K K K K K K K K K K K K K K K K K K K K K K K K K K K K K K K K K K K ",
"K K K K K K K K K K K K K K K K K K K K K K K K K K K K K K K K K K K K K K K K K K K K K K K K K K K K K K K K K K K K K K K K ",
"K K K K K K K K K K K K K K K K K K K K K K K K K K K K K K K K K K K K K K K K K K K K K K K K K K K K K K K K K K K K K K K K ",
"K K K K K K K K K K K K K K K K K K K K K K K K K K K K K K K K K G K P K K K K K K K K K K K K K K K K K K K K K K K K K K K K ",
"K K K K K K K K K K K K K K K K K K K K K K K K K K K K K K G M b x x v F J K K K K K K K K K K K K K K K K K K K K K K K K K K ",
"K K K K K K K K K K K K K K K K K K K K K K K K K K K K K n s %     . 4 8 v G K K K K K K K K K K K K K K K K K K K K K K K K K ",
"K K K K K K K K K K K K K K K K K K K K K K K K K K K G h X       . . .   & b G K K K K K K K K K K K K K K K K K K K K K K K K ",
"K K K K K K K K K K K K K K K K K K K K K K K K K K G x X         @ @ @ X   < m K K K K K K K K K K K K K K K K K K K K K K K K ",
"K K K K K K K K K K K K K K K K K K K K K K K K K K M ,       X $ 3 e q : @ X h K K K K K K K K K K K K K K K K K K K K K K K K ",
"K K K K K K K K K K K K K K K K K K K K K K K K P G g       $ 9 9 t z z w ; X 8 S K K K K K K K K K K K K K K K K K K K K K K K ",
"K K K K K K K K K K K K K K K K K K K K K K K K K n #   O o ; 0 0 u N B i 6 o 7 S K K K K K K K K K K K K K K K K K K K K K K K ",
"K G K K K K K K K K K K K K K K K K K K K K K K K h   o * * ; 1 1 w u N u :   , S K K K K K K K K K K K K K K K K K K K K K K K ",
"K K K K K K K K K K K K K K K K K K K K K K K K D 7 O * 9 w y u t w q e 0 *   < S G K K K K K K K K K K K K K K K K K K K K K K ",
"K K K K K K K K K K K K K K K K K K K K K K K K v & O * * : t B B N w 1 ; o   , S K K K K K K K K K K K K K K K K K K K K K K K ",
"K K K K K K K K K K K K K K K K K K K K K K K G f $ : * o o - t z B y > ; o   < F K K K K K K K K K K K K K K K K K K K K K K K ",
"K K K K K K K K K K K K K K K K K K K K K K G n , - w = * 3 9 2 9 y z w - O O a G K K K K K K K K K K K K K K K K K K K K K K K ",
"K K K K K K K K K K K K K K K K K K K K K K G s o 9 - * 3 e t q : : 9 q - O + j K K K K K K K K K K K K K K K K K K K K K K K K ",
"K K K K K K K K K K K K K K K K K K K K K K v % - 1 * = w i i t > * * > - O , n K K K K K K K K K K K K K K K K K K K K K K K K ",
"K K K K K K K K K K K K K K K K K K K K K S 7 O : - * 9 i N l r > - > : * O 7 J K K K K K K K K K K K K K K K K K K K K K K K K ",
"K K K K K K K K K K K K K K K K K K K K G x o : t N Z @.+.@.A B y r q : o X n K K K K K K K K K K K K K K K K K K K K K K K K K ",
"K K K K K K K K K K K K K K K K K K K K S k C +.&.5.7.7.7.7.7.6.&.*.A l @ f J K K K K K K K K K K K K K K K K K K K K K K K K K ",
"K K K K K K K K K K K K K K K K K K K J A &.7.7.7.7.7.7.7.e.t.y.t.t.8.3.@.! P K K K K K K K K K K K K K K K K K K K K K K K K K ",
"K K K K K K K K K K K K K K K K K K P ` 3.7.t.t.t.t.t.y.u.u.s.s.g.g.a.r.r.<.| I K K K K K K K K K K K K K K K K K K K K K K K K ",
"K K K K K K K K K K K K K K K K K K ~ 1.7.7.i.u.s.s.s.s.s.k.c.z.c.c.j.s.i.r.7.=.E K K K K K K K K K K K K K K K K K K K K K K K ",
"K K K K K K K K K K K K K K K K K P Q %.7.y.u.f.s.k.g.h.k.v.b.n.b.b.k.s.s.a.r.r.<.{ K K K K K K K K K K K K K K K K K K K K K K ",
"K K K K K K K K K K K K K K K K P ~ #.6.q.a.s.s.k.s.g.h.c.v.b.b.B.m.b.j.a.a.y.r.7.6.o.U K K K K K K K K K K K K K K K K K K K K ",
"K K K K K K K K K K K K K K K K Y ^ %.5.t.p.u.s.s.s.s.g.j.k.c.c.v.b.N.b.v.k.f.s.t.7.6.,.T K K K K K K K K K K K K K K K K K K K ",
"K K K K K K K K K K K K K K K R _ +.&.5.8.t.p.s.p.i.a.a.u.s.s.h.k.b.m.m.n.b.b.z.k.u.r.7.<.[ K K K K K K K K K K K K K K K K K K ",
"K K K K K K K K K K K K K K I ] ' 1.5.5.8.t.t.t.t.t.t.t.y.y.y.s.k.c.b.b.b.m.b.b.v.k.f.t.6.<.) K K K K K K K K K K K K K K K K K ",
"K K K K K K K K K K K K K P I { >.6.5.7.8.t.t.t.t.t.w.t.t.t.t.p.f.k.b.b.b.v.c.k.c.k.k.k.t.6.,.) K K K K K K K K K K K K K K K K ",
"K K K K K K K K K K K K K K R ! o.7.5.8.8.q.t.e.e.e.7.8.8.t.i.u.s.c.v.b.b.l.k.h.k.k.c.c.f.t.0.<.) K K K K K K K K K K K K K K K ",
"K K K K K K K K K K K K K K I Y _ 1.7.7.8.q.q.8.w.8.7.w.w.t.i.u.f.c.b.v.c.k.k.h.k.k.k.k.k.s.y.7.-.( K K K K K K K K K K K K K K ",
"K K K K K K K K K K K K K K P U ] O.5.8.7.7.7.7.7.7.7.7.9.t.p.s.j.k.z.k.h.k.h.d.g.g.g.h.j.f.s.r.6.-.W K K K K K K K K K K K K K ",
"K K K K K K K K K K K K K K P I ]  .:.7.7.7.7.7.7.7.7.w.w.t.p.s.k.k.k.k.h.h.d.d.h.c.v.c.k.f.y.y.9.7.X.I K K K K K K K K K K K K ",
"K K K K K K K K K K K K K K K K E { X.<.6.7.5.7.7.7.7.7.e.t.u.h.j.k.k.k.h.d.k.v.n.V.C.V.B.m.k.s.y.0.4.o.K K K K K K K K K K K K ",
"K K K K K K K K K K K K K K K K K )  .;.6.6.7.7.7.7.7.8.t.y.s.h.k.h.h.s.k.z.n.V.H.G.G.J.H.H.Z.B.k.y.9.4.| K K K K K K K K K K K ",
"K K K K K K K K K K K K K K K K I I ] X.-.6.7.7.7.7.7.8.t.u.s.d.s.g.s.k.v.B.S.H.K.P.P.Y.U.P.J.Z.B.z.y.7.4.P K K K K K K K K K K ",
"K K K K K K K K K K K K K K K K K K I { =.,.6.7.7.7.7.8.t.p.p.y.a.s.c.b.C.S.J.I.U.U.P.Y.Y.U.U.S.B.v.j.9.6.E K K K K K K K K K K ",
"K K K K K K K K K K K K K K K K K K I I { ;.<.6.7.7.7.8.8.q.y.y.s.c.b.B.S.F.J.J.J.J.L.P.U.U.J.S.m.j.s.a.7.] K K K K K K K K K K ",
"K K K K K K K K K K K K K K K K K K K K P ~ X.,.3.7.7.8.q.q.y.u.j.v.B.D.S.S.Z.Z.S.G.J.U.U.I.J.B.k.u.y.t.9.] K K K K K K K K K K ",
"K K K K K K K K K K K K K K K K K K K K K I E ..<.7.7.7.7.t.y.s.l.b.B.B.B.B.B.A.S.J.P.U.U.L.J.D.b.j.t.q.6.| K K K K K K K K K K ",
"K K K K K K K K K K K K K K K K K K K K K K U ) <.7.7.7.q.t.u.k.v.b.v.c.v.n.B.S.J.U.U.U.Y.I.J.H.B.c.s.7.6.=.W K K K K K K K K K ",
"K K K K K K K K K K K K K K K K K K K K K K P _ 4.7.7.7.t.u.k.l.l.k.k.x.n.C.F.J.U.Y.R.R.R.Y.U.J.S.B.c.t.9.<.] K K K K K K K K K ",
"K K K K K K K K K K K K K K K K K K K K K P Y -.7.7.7.e.u.h.k.s.d.d.x.n.C.G.U.Y.R.E.E.E.E.R.R.U.J.Z.b.s.9.6.} K K K K K K K K K ",
"K K K K K K K K K K K K K K K K K K K K K I X.7.7.7.t.s.k.k.s.p.s.x.B.F.K.U.R.R.!.!.!.!.!.Q.E.R.I.F.B.k.9.6...I K K K K K K K K ",
"K K K K K K K K K K K K K K K K K K K K K } 6.7.7.w.y.d.s.p.t.u.x.B.G.K.Y.R.W.!.!.!.!.!.!.E.E.R.U.J.A.c.r.6.X.I K K K K K K K K ",
"K K K K K K K K K K K K K K K K K K K K ) <.7.7.7.e.e.t.t.8.y.c.B.S.I.T.Q.!.!.!.!.!.!.!.!.!.Q.Q.U.J.V.b.a.7.;.I K K K K G K K K ",
"K K K K K K K K K K K K K K K K K K K T -.7.7.7.7.w.7.e.7.y.k.b.S.I.U.E.Q.!.!.!.!.!.!.!.!.!.Q.T.U.J.Z.b.s.9.,.R K K K K K K K K ",
"K K K K K K K K K K K K K K K K K K P | 7.7.7.7.7.7.7.8.t.u.b.C.J.U.R.Q.!.!.!.!.!.!.!.!.!.W.Q.R.U.F.D.b.s.7.0.W K K K K K K K K ",
"K K K K K K K K K K K K K K K K K K U -.6.7.7.6.7.7.7.r.a.j.b.V.J.Y.E.W.!.!.!.!.!.!.!.!.!.!.Q.R.I.S.B.b.s.0.2.W K K K K K K K K "
};
