/* XPM */
static char *result[] = {
/* columns rows colors chars-per-pixel */
"64 64 137 2 ",
"   c #030303",
".  c #020807",
"X  c #070708",
"o  c #090709",
"O  c #060B0A",
"+  c #0B0B0B",
"@  c #100F0F",
"#  c #05150F",
"$  c #051710",
"%  c #061912",
"&  c #131314",
"*  c #191717",
"=  c #171718",
"-  c #1B1B1B",
";  c #09251A",
":  c #0B2C1F",
">  c #21201F",
",  c #1F1F20",
"<  c #201F21",
"1  c #0A2E20",
"2  c #0C3626",
"3  c #242424",
"4  c #292726",
"5  c #282728",
"6  c #2D2C2D",
"7  c #302F2F",
"8  c #302F30",
"9  c #333133",
"0  c #3A3C3B",
"q  c #0F4631",
"w  c #104933",
"e  c #125139",
"r  c #1B583F",
"t  c #3F3F40",
"y  c #155F43",
"u  c #166043",
"i  c #176B4B",
"p  c #186B4B",
"a  c #19704F",
"s  c #1A7552",
"d  c #1B7B56",
"f  c #1C7F59",
"g  c #4B4A4B",
"h  c gray32",
"j  c #5A7166",
"k  c #6D6C6C",
"l  c #706C6C",
"z  c #707170",
"x  c #1D845D",
"c  c #1D885F",
"v  c #1F8C62",
"b  c #1F9165",
"n  c #209367",
"m  c #209568",
"M  c #229D6E",
"N  c #259E70",
"B  c #299F72",
"V  c #2BA073",
"C  c #35A379",
"Z  c #3BA57C",
"A  c #40A67F",
"S  c #48A580",
"D  c #43A882",
"F  c #48AB85",
"G  c #53AC8A",
"H  c #59AD8D",
"J  c #5EAE90",
"K  c #63B596",
"L  c #6CB297",
"P  c #6FB39A",
"I  c #73B59C",
"U  c #7CB7A1",
"Y  c #7DBFA6",
"T  c #858484",
"R  c #8B8B8B",
"E  c #959595",
"W  c #83B9A4",
"Q  c #86BDA8",
"!  c #8DBCA9",
"~  c #91BEAD",
"^  c #A0A0A0",
"/  c #B7B7B8",
"(  c #BAB9B9",
")  c #8FC1AE",
"_  c #8EC6B2",
"`  c #9EC0B3",
"'  c #9ECDBB",
"]  c #A2C2B6",
"[  c #A7C5BA",
"{  c #ACC4BB",
"}  c #A4CBBC",
"|  c #B0C6BD",
" . c #ADCCC1",
".. c #B2CFC5",
"X. c #BECAC7",
"o. c #A9D1C3",
"O. c #B0D0C4",
"+. c #B4D5C9",
"@. c #BBD4CB",
"#. c #C4C4C4",
"$. c #C0CAC6",
"%. c #C0CFCB",
"&. c #CECECE",
"*. c #D0CFCE",
"=. c #C6D1CD",
"-. c #CED0CE",
";. c #D0CFD0",
":. c #CED1D0",
">. c #D3D4D3",
",. c #D6D8D7",
"<. c #D6D7D8",
"1. c #D8D7D8",
"2. c #D7D9D9",
"3. c #DBDCDC",
"4. c #E0DFDE",
"5. c #D6E4DF",
"6. c #DDE0DE",
"7. c #E0E0DF",
"8. c #DEDFE0",
"9. c #E1DFE1",
"0. c #DFE0E1",
"q. c #E2E3E3",
"w. c #E9E6E7",
"e. c #E5E8E7",
"r. c #E8E9E7",
"t. c #E6E7E8",
"y. c #E7E9E9",
"u. c #EBECEC",
"i. c #F0EFEF",
"p. c #EEF0EF",
"a. c #EFF1F0",
"s. c #F4F4F4",
"d. c #F8F8F7",
"f. c #F7F7F8",
"g. c #F8F7F8",
"h. c #F7F8F8",
"j. c #FCFCFC",
/* pixels */
"M M M M M M M M M M M M M M M M M M M M M M M M M M M M M M M M M M M M M M M M M M M M M M M M M M M M M M M M M M M M M M M M ",
"M M M M M M M M M M M M M M M M M M M M M M M M M M M M M M M M M M M M M M M M M M M M M M M M M M M M M M M M M M M M M M M M ",
"M M M M M M M M M M M M M M M M M M M M M M M M M M M M M M M M M M M M M M M M M M M M M M M M M M M M M M M M M M M M M M M M ",
"M M M M M M M M M M M M M M M M M M M M M M M M M M M M M M M M M M M M M M M M M M M M M M M M M M M M M M M M M M M M M M M M ",
"M M M M M M M M M M M M M M M M M M M M M M M M M M M M M M M M M M M M M M M M M M M M M M M M M M M M M M M M M M M M M M M M ",
"M M M M M M M M M M M M M M M M M M M M M M M M M M M M M M M M M M M M M M M M M M M M M M M M M M M M M M M M M M M M M M M M ",
"M M M M M M M M M M M M M M M M M M M M M M M M M M M M M M M M M M M M M M M M M M M M M M M M M M M M M M M M M M M M M M M M ",
"M M M M M M M M M M M M M M M M M M M M M M M M M M M M M M M M M M M M M M M M M M M M M M M M M M M M M M M M M M M M M M M M ",
"M M M M M M M M M M M M M M M M M M M M M M M M M M M M M M M M M M M M M M M M M M M M M M M M M M M M M M M M M M M M M M M M ",
"M M M M M M M M M M M M M M M M M M M M M M M M M M M M M M M M M M M M M M M M M M M M M M M M M M M M M M M M M M M M M M M M ",
"M M M M M M M M M M M M M M M M M M M M M M M M M M M M M M M M M M M M M M M M M M M M M M M M M M M M M M M M M M M M M M M M ",
"M M M M M M M M M M M M M M M M M M M M M M M M M M M M M M M M M M M M M M M M M M M M M M M M M M M M M M M M M M M M M M M M ",
"M M M M M M M M M M M M M M M M M M M M M M M M M M M M M M M M M M M M M M M M M M M M M M M M M M M M M M M M M M M M M M M M ",
"M M M M M M M M M M M M M M M M M M M M M M M M M M M M M M M M M M M M M M M M M M M M M M M M M M M M M M M M M M M M M M M M ",
"M M M M M M M M M M M M M M M M M M M M M M M M M M M M M M M M M M M M M M M M M M M M M M M M M M M M M M M M M M M M M M M M ",
"M M M M M M M M M M M M M M M M M M M M M M M M M M M M M M M M M M M M M M M M M M M M M M M M M M M M M M M M M M M M M M M M ",
"M M M M M M M M M M M M M M M M M M M M M M M M M M M M M M M M M M M M M M M M M M M M M M M M M M M M M M M M M M M M M M M M ",
"M M M M M M M M M M M M M M M M M M M M M M M M M M M M M M M M M M M M M M M M M M M M M M M M M M M M M M M M M M M M M M M M ",
"M M M M M M M M M M M M M M M M M M M M M M M M M M M M M M M M M M M M M M M M M M M M M M M M M M M M M M M M M M M M M M M M ",
"M M M M M M M M M M M M M M M M M M M M M M M M M M M M M M M M M M M M M M M M M M M M M M M M M M M M M M M M M M M M M M M M ",
"M M M M M M M M M M M M M M M M M M M M M M M M M M M M M M M M M M M M M M M M M M M M M M M M M M M M M M M M M M M M M M M M ",
"M M M M M M M M M M M M M M M M M M M M M M M M M M M M M M M M M M M M M M M M M M M M M M M M M M M M M M M M M M M M M M M M ",
"M M M M M M M M M M M M M M M M M M M M M M M M M M M M M M M M M M M M M M M M M M M M M M M M M M M M M M M M M M M M M M M M ",
"M M M M M M M M M M M M M M M M M M M M M M M M M M M M M M M M M M M M M M M M M M M M M M M M M M M M M M M M M M M M M M M M ",
"M M M M M M M M M M M M M M M M M M M M M M M M M M M M M M M M M M M M M M M M M M M M M M M M M M M M M M M M M M M M M M M M ",
"M M M M M M M M M M M M M M M M M M M M M M M M M M M M M M M M M M M M M M M M M M M M M M M M M M M M M M M M M M M M M M M M ",
"M M M M M M M M M M M M M M M M M M M M M M M M M M M M M M M M M M M M M M M M M M M M M M M M M M M M M M M M M M M M M M M M ",
"M M M M M M M M M M M M M M M M M M M M M M M M M M M M M M M M M M M M M M M M M M M M M M M M M M M M M M M M M M M M M M M M ",
"M M M M M M M M M M M M M M M M M M M M M M M M M M M M M M M M M M M M M M M M M M M M M M M M M M M M M M M M M M M M M M M M ",
"M M M M M M M M M M M M M M M M M M M M M M M M M M M M M M M M M M M M M M M M M M M M M M M M M M M M M M M M M M M M M M M M ",
"M M M M M M M M M M M M M M M M M M M M M M M M M M M M M M M M M M M M M M M M M M M M M M M M M M M M M M M M M M M M M M M M ",
"M M M M M M M M M M M M M M M M M M M M M M M M M M M M M M M M M M M M M M M M M M M M M M M M M M M M M M M M M M M M M M M M ",
"M M M M M M M M M M M M M M M M M M M M M M M M M M M M M M M M M M M M M M M M M M M M M M M M M M M M M M M M M M M M M M M M ",
"M M M M M M M M M M M M M M M M M M M M M M M M M M M M M M M M M M M M M M M M M M M M M M M M M M M M M M M M M M M M M M M M ",
"M M M M M M M M M M M M M M M M M M M M M M M M M M M M M M M M M M M M M M M M M M M M M M M M M M M M M M M M M M M M M M M M ",
"M M M M M M M M M M M M M M M M M M M M M M M M M M M M M M M M M M M M M M M M M M M M M M M M M M M M M M M M M M M M M M M M ",
"M M M M M M M M M M M M M M M M M M M M M M M M M M M M M M M M M M M M M M M M M M M M M M M M M M M M M M M M M M M M M M M M ",
"M M M M M M M M M M M M M M M M M M M M M M M M M M M M M M M M M M M M M M M M M M M M M M M M M M M M M M M M M M M M M M M M ",
"M M M M M M M M M M M M M M M M M M M M M M M M M M M M M M M M M M M M M M M M M M M M M M M M M M M M M M M M M M M M M M M M ",
"M M M M M M M M M M M M M M M M M M M M M M M M M M M M M M M M M M M M M M M M M M M M M M M M M M M M M M M M M M M M M M M M ",
"M M M M M M M M M M M M M M M M M M M M M M M M M M M M M M M M M M M M N M M M M M M M M M M M M M M M M M M M M M M M M M M M ",
"M M M M M M M M M M M M b x s s x m M M M M M M M M M M M M M M M M M M N V Z D F F D C V V M M M M M M M M M M M M M M M M M M ",
"M M M M M M M M M M b i : O O o O 2 d M M M M M M M M M M M M M M C G I ) }  .@.@.@.+.o.' _ Y K Z V M M M M M M M M M M M M M M ",
"M M M M M M M M M v w . X o + + o . $ s M M M M M M M M M M N Z I } =.,.8.0.q.t.p.a.a.a.s.a.y.0.+.Y F V M M M M M M M M M M M M ",
"M M M M M M M M b q   . @ & & & o X   ; v M M M M M M M N C I | :.2.3.e.q.q.u.i.s.f.g.g.g.g.h.s.a.0.@.Y Z V b M M M M M M M M M ",
"M M M M M M M M u     + = , , = @ X     y M M M M M M B H ] -.>.2.q.q.q.t.u.p.s.f.h.j.j.j.j.g.g.h.a.a.0. .G V M M M M M M M M M ",
"M M M M M M M x $     & 3 4 4 , & o     : n M M M B Z U X.>.1.3.q.q.q.e.q.t.p.s.h.j.j.j.j.j.j.j.h.s.a.y.0.@.G V M M M M M M M M ",
"M M M M M M M e     O - - 3 5 3 = + X   # x M M B H ~ &.>.1.4.9.q.q.q.e.t.u.s.f.j.j.j.j.j.j.j.j.h.h.h.a.e.0.o.Z M M M M M M M M ",
"M M M M M M c %     X X + + X o + o   o   p N C L | *.>.2.7.q.q.q.q.q.w.u.i.s.g.j.j.j.j.j.j.j.j.j.j.h.a.r.q.2.Q B M M M M M M M ",
"M M M M M M y .     o o X X X X           y A ~ $.*.>.1.3.q.q.q.q.q.r.w.q.q.q.u.h.j.j.j.j.j.j.j.j.j.h.s.u.w.4.=.G M M M M M M M ",
"M M M M V b :       + 3 7 9 7 > & X     & j / $.*.>.1.7.q.0.9.q.q.4.3.1.2.7.q.e.s.s.h.h.j.j.j.j.j.h.a.a.u.r.7.,.~ B M M M M M M ",
"M M M M b x #       & 4 7 9 7 3 = o X , l ( -.-.>.,.7.7.8.q.8.8.1.1.2.3.3.q.q.e.s.s.h.g.g.j.j.j.g.s.q.e.q.w.q.2.X.Z M M M M M M ",
"M M M M M d .     + 3 7 9 9 9 7 , @ 8 T #.&.&.>.,.4.q.0.0.q.3.<.1.3.3.q.q.q.q.u.s.s.s.s.g.g.j.g.s.a.t.3.q.q.7.3.-.H M M M M M M ",
"M M M M M d . + 4 7 7 7 9 9 9 7 7 g E #.&.&.:.>.2.0.0.q.9.2.>.<.3.4.q.q.e.e.s.s.s.s.s.g.g.j.j.g.s.s.e.q.6.3.3.,.>.I M M M M M M ",
"M M M M M d + 6 @   X     X X + 9 E #.&.&.&.;.<.7.8.q.q.3.2.3.8.q.q.q.u.a.s.s.s.s.h.h.h.d.j.j.g.s.s.u.e.3.2.2.>.>.W B M M M M M ",
"M M M M M d .       @ < 4 > * h E &.&.&.&.&.;.<.0.q.3.3.2.3.8.0.q.w.u.i.s.s.h.s.h.s.h.g.d.j.d.g.s.s.p.0.q.3.,.>.&.! M M M M M M ",
"M M M M b x       + * 4 8 0 z / &.&.&.&.*.;.>.1.0.6.3.2.3.8.0.q.t.u.s.s.s.s.h.h.g.g.g.g.g.g.g.s.f.s.a.q.q.8.1.>.&.! N M M M M M ",
"M M M M V d       + * 3 t T #.&.&.&.&.&.&.&.>.3.3.2.>.3.8.0.q.u.u.s.s.s.a.s.s.s.g.g.g.g.s.g.g.s.s.s.a.t.q.8.3.>.;.! N M M M M M ",
"M M M M M i       o & 0 R &.&.&.&.;.&.;.&.;.<.8.3.>.2.0.q.q.u.u.s.u.u.u.u.i.s.s.s.s.s.s.s.s.s.s.s.s.a.p.q.8.8.<.>.W N M M M M M ",
"M M M M b w       X 3 T #.*.&.:.&.&.&.&.:.;.1.9.<.2.8.0.q.t.u.u.u.q.e.e.u.p.s.s.s.s.s.s.s.s.s.s.a.p.u.u.e.0.0.2.-.W N M M M M M ",
"M M M M n ;       - T &.&.&.&.&.&.*.&.&.:.>.3.3.2.3.9.q.e.r.r.q.7.q.e.r.p.a.s.s.s.s.s.s.s.s.s.s.a.u.t.t.q.q.8.2.>.U N M M M M M ",
"M M M M v #     * T &.&.&.&.&.&.&.:.&.&.:.:.3.3.3.8.q.q.r.r.9.4.7.7.r.p.p.s.s.h.s.s.s.s.s.s.s.s.s.p.t.t.e.e.8.8.&.I M M M M M M ",
"M M M M x $   @ l #.&.&.&.&.&.&.&.&.&.&.&.:.>.<.8.0.q.u.u.7.7.7.q.r.u.p.a.s.s.s.s.s.s.s.s.s.s.s.s.s.u.t.e.0.0.3.X.J M M M M M M ",
"M M M M b :   g ( &.&.;.&.&.&.;.&.&.&.:.&.&.-.>.8.0.e.u.q.7.7.7.r.p.p.s.s.s.a.s.s.s.s.s.s.s.s.s.s.s.a.t.0.0.0.0.| F M M M M M M "
};
