/* XPM */
static char *result[] = {
/* columns rows colors chars-per-pixel */
"64 64 227 2 ",
"   c #020202",
".  c #02060B",
"X  c #0B0B0C",
"o  c #070906",
"O  c #0B0D11",
"+  c #0F1011",
"@  c #031515",
"#  c #141414",
"$  c #151618",
"%  c #171819",
"&  c #1B1B1C",
"*  c #171818",
"=  c #14140A",
"-  c #281905",
";  c #211B1A",
":  c #301F01",
">  c #112118",
",  c #392605",
"<  c #343201",
"1  c #1F2223",
"2  c #0D3A29",
"3  c #232424",
"4  c #2B2C2C",
"5  c #292625",
"6  c #343434",
"7  c #3C3C3C",
"8  c #363837",
"9  c #303030",
"0  c #503700",
"q  c #632E05",
"w  c #53302D",
"e  c #632E2E",
"r  c #114C35",
"t  c #174B30",
"y  c #6C4C01",
"u  c #786F0A",
"i  c #60553C",
"p  c #3F3F41",
"a  c #403F40",
"s  c #145D42",
"d  c #28705D",
"f  c #434444",
"g  c #4C4B4C",
"h  c #585756",
"j  c #6A4747",
"k  c #7F5C40",
"l  c #5B7452",
"z  c #6C6A4B",
"x  c #696D50",
"c  c #447764",
"v  c #930908",
"b  c #982C0D",
"n  c #AE3A29",
"m  c #B33728",
"M  c #BC2F21",
"N  c #9F201D",
"B  c #D71E14",
"V  c #EB0E0A",
"C  c #F60704",
"Z  c #FE0301",
"A  c #F30906",
"S  c #FE0B01",
"D  c #F70B0A",
"F  c #E2150E",
"G  c #FF1400",
"H  c #FF1900",
"J  c #F91309",
"K  c #F81A13",
"L  c #EA1A16",
"P  c #CC251B",
"I  c #D52118",
"U  c #CB3F0C",
"Y  c #ED2701",
"T  c #FF2401",
"R  c #FF2C01",
"E  c #FB2608",
"W  c #FE3301",
"Q  c #FE3C02",
"!  c #FF3208",
"~  c #F82714",
"^  c #EA3701",
"/  c #C53528",
"(  c #D42D25",
")  c #FA372E",
"_  c #F5322B",
"`  c #8D4100",
"'  c #9B6C02",
"]  c #994A34",
"[  c #8A543B",
"{  c #93513A",
"}  c #A4422E",
"|  c #B94433",
" . c #AC6109",
".. c #EE4707",
"X. c #FF4C01",
"o. c #FF4508",
"O. c #FF5B00",
"+. c #FF5508",
"@. c #E85604",
"#. c #FF6400",
"$. c #F96B01",
"%. c #FF7502",
"&. c #FF7900",
"*. c #FF6713",
"=. c #FF7314",
"-. c #FE5E3E",
";. c #F44736",
":. c #D25F08",
">. c #984E4E",
",. c #AF554E",
"<. c #826A4F",
"1. c #927878",
"2. c #BA6759",
"3. c #DB5D57",
"4. c #F2736F",
"5. c #CF796F",
"6. c #629133",
"7. c #1F8E64",
"8. c #3C8B61",
"9. c #358F67",
"0. c #229D6E",
"q. c #299B6E",
"w. c #299669",
"e. c #349166",
"r. c #3B9066",
"t. c #259E70",
"y. c #2B9E72",
"u. c #349F76",
"i. c #399F78",
"p. c #2CA174",
"a. c #3DA07A",
"s. c #34A278",
"d. c #48835C",
"f. c #488962",
"g. c #55916D",
"h. c #569974",
"j. c #4C8E68",
"k. c #6B9177",
"l. c #44A17D",
"z. c #8C8801",
"x. c #B09207",
"c. c #A8A309",
"v. c #9DAB15",
"b. c #FF8101",
"n. c #FF8E01",
"m. c #F18508",
"M. c #FD9300",
"N. c #FE9C03",
"B. c #FF9508",
"V. c #FFAD00",
"C. c #FFA000",
"Z. c #FFBB01",
"A. c #FFB500",
"S. c #EAB400",
"D. c #A1C82C",
"F. c #DCD100",
"G. c #FEC301",
"H. c #FAC801",
"J. c #FFD600",
"K. c #FEDC01",
"L. c #E7C10F",
"P. c #FFE500",
"I. c #FDEC01",
"U. c #FFF200",
"Y. c #EFE80E",
"T. c #DBEC18",
"R. c #868066",
"E. c #4BA280",
"W. c #4AAE87",
"Q. c #58A386",
"!. c #50B08B",
"~. c #6AA58E",
"^. c #66A48B",
"/. c #6EA590",
"(. c #78A694",
"). c #9B9B9B",
"_. c #A89999",
"`. c #B19288",
"'. c #9CA38D",
"]. c #8DA89E",
"[. c #86A79A",
"{. c #95A79C",
"}. c #92A9A1",
"|. c #9CAAA4",
" X c #97B5A9",
".X c #A5ABA9",
"XX c #ACACAC",
"oX c #AAA5A4",
"OX c #B0AFAF",
"+X c #AEB0AF",
"@X c #A1B5AE",
"#X c #AFAFB0",
"$X c #AFB0B0",
"%X c #B3B3B3",
"&X c #B8B7B6",
"*X c #B6B8B7",
"=X c #B7B8B8",
"-X c #BCBCBC",
";X c #B8B8B8",
":X c #B0B0B0",
">X c #AAB29F",
",X c #E5A097",
"<X c #C5AFA2",
"1X c #B0C8BE",
"2X c #C0C1BF",
"3X c #BFBFC0",
"4X c #C0BFC1",
"5X c #BFC0C0",
"6X c #C3C3C3",
"7X c #CBCCCC",
"8X c #C8C8C7",
"9X c #CFD1CF",
"0X c #D0D1CF",
"qX c #D4D4D4",
"wX c #DBDBDB",
"eX c #D7D8D7",
"rX c #D4CECB",
"tX c #DFE0DF",
"yX c #E1DFE0",
"uX c #E4E4E3",
"iX c #ECECEB",
"pX c #E8E9E8",
"aX c #F0EFEF",
"sX c #F3F4F3",
"dX c #FDFDFD",
"fX c #F7F9F8",
"gX c #F0F1EF",
/* pixels */
"0.0.0.0.0.0.0.0.0.0.0.0.0.0.0.0.0.0.0.0.0.0.0.0.0.0.0.0.0.0.0.0.0.0.0.0.0.0.0.0.0.0.0.0.0.0.0.0.0.0.0.0.0.0.0.0.0.0.0.0.0.0.0.0.",
"0.0.0.0.0.0.0.0.0.0.0.0.0.0.0.0.0.0.0.0.0.0.0.0.0.0.0.0.0.0.0.0.0.0.0.0.0.0.0.0.0.0.0.0.t.f.j.0.0.0.0.0.0.0.0.0.0.0.0.0.0.0.0.0.",
"0.0.0.0.0.0.0.0.0.0.0.0.0.0.0.0.0.0.0.0.0.0.0.0.a.h.W.s.0.0.0.0.0.0.0.0.0.0.0.0.p.0.q.f.] I 1.t.0.0.0.0.0.0.0.0.0.0.0.0.0.0.0.0.",
"0.0.0.0.0.0.0.0.0.0.0.0.0.0.0.0.0.0.0.0.0.0.0.0.j./ 4.rX1X!.p.t.0.0.0.p.p.p.s.a.h.<.| F C C ,.p.0.0.0.0.0.0.0.0.0.0.0.0.0.0.0.0.",
"0.0.0.0.0.0.0.0.0.0.0.0.0.0.0.0.0.0.0.0.0.0.t.t.z V J ) 4.,X<XXX{.'.'._.R.5.3.;._ ~ J S Z Z _ ~.0.0.0.0.0.0.0.0.0.0.0.0.0.0.0.0.",
"0.0.0.0.0.0.0.0.0.0.0.0.0.0.0.0.0.0.0.0.0.0.0.9.n Z Z K ;.-.-.;.;.) ) ) ;.) ~ ! ! o.o.R S Z C 2.p.0.0.0.0.0.0.0.0.0.0.0.0.0.0.0.",
"0.0.0.0.0.0.0.0.0.0.0.0.0.0.0.0.0.0.0.0.0.0.t.k A Z Z E +.*.=.*.o.o.o...U U U @.$.&.b.O.W S Z L k.0.0.0.0.0.0.0.0.0.0.0.0.0.0.0.",
"0.0.0.0.0.0.0.0.0.0.0.0.0.0.0.0.0.0.0.0.0.0.f.P Z Z H X.=.B.C.B.B.m. .q , ; : 0 ' S.V.n.O.T S Z ( h.0.0.0.0.0.0.0.0.0.0.0.0.0.0.",
"0.0.0.0.0.0.0.0.0.0.0.0.0.0.0.0.0.0.0.0.0.0.x A Z S R $.N.Z.H.H.L.z.& . @       o y F.V.b.X.H S D / g.p.0.0.0.0.0.0.0.0.0.0.0.0.",
"0.0.0.0.0.0.0.0.0.0.0.0.0.0.0.0.0.0.0.0.0.9.n Z Z G X.M.Z.J.I.Y.6.> . . . + * # X o u H.V.%.Q G Z S P l q.0.0.0.0.0.0.0.0.0.0.0.",
"0.0.0.0.0.0.0.0.0.0.0.0.0.0.0.0.0.0.0.0.9.] C Z S W %.V.K.I.U.D.t   . . # 5 9 4 & X o c.J.V.%.X.G Z Z F [ e.0.0.0.0.0.0.0.0.0.0.",
"0.0.0.0.0.0.0.0.0.0.0.0.0.0.0.0.0.0.0.c n C Z Z R O.M.G.P.U.T.l .     O 3 8 f f 4 X   < F.K.Z.b.X.H Z S A m l w.0.0.0.0.0.0.0.0.",
"0.0.0.0.0.0.0.0.0.0.0.0.0.0.0.0.0.0.0.x F Z Z S W $.C.G.P.U.D.t       # 9 7 f f 8 %     z.I.K.V.$.R Z Z Z V [ e.0.0.0.0.0.0.0.0.",
"0.0.0.0.0.0.0.0.0.0.0.0.0.0.0.0.0.0.0.q.[ A Z S R #.M.Z.J.I.v.@     o * 4 6 8 8 4 & o   < F.K.N.O.T Z Z V z w.0.0.0.0.0.0.0.0.0.",
"0.0.0.0.0.0.0.0.0.0.0.0.0.0.0.0.0.0.0.0.w.{ A Z H Q #.M.Z.K.c.o     X # & 3 5 5 3 # X     c.Z.&.Q S Z S <.0.0.0.0.0.0.0.0.0.0.0.",
"0.0.0.0.0.0.0.0.0.0.0.0.0.0.0.0.0.0.0.0.0.0.l P Z G W O.n.G.c.o   X X 1 4 7 7 8 3 & # X   u M.X.G S Z m p.0.0.0.0.0.0.0.0.0.0.0.",
"0.0.0.0.0.0.0.0.0.0.0.0.0.0.0.0.0.0.0.0.0.0.0.e.m A G R O.M.x.o o # 1 6 f g g g f 6 & +   0 $.R S Z L g.0.0.0.0.0.0.0.0.0.0.0.0.",
"0.0.0.0.0.0.0.0.0.0.0.0.0.0.0.0.0.0.0.0.0.0.0.0.e.] C S T $.x.= o & 5 1 5 9 9 4 9 4 3 # . : ..G Z Z 3.y.0.0.0.0.0.0.0.0.0.0.0.0.",
"0.0.0.0.0.0.0.0.0.0.0.0.0.0.0.0.0.0.0.0.0.0.0.0.0.8.M Z S Q :.< o + + o # & 3 & # = # & X - ^ S Z D g.w.0.0.0.0.0.0.0.0.0.0.0.0.",
"0.0.0.0.0.0.0.0.0.0.0.0.0.0.0.0.0.0.0.0.0.0.0.0.0.0.l F Z T $.y o # # + 3 4 9 3 % # 5 ; X - Y Z Z I u.0.0.0.0.0.0.0.0.0.0.0.0.0.",
"0.0.0.0.0.0.0.0.0.0.0.0.0.0.0.0.0.0.0.0.0.0.0.0.0.0.w.} C G X.y X 4 & $ 4 7 7 9 ; & 4 # o , H Z Z m y.0.0.0.0.0.0.0.0.0.0.0.0.0.",
"0.0.0.0.0.0.0.0.0.0.0.0.0.0.0.0.0.0.0.0.0.0.0.0.0.0.0.l I G o.` X 5 * # 4 7 7 6 & % & X   q H Z C >.0.0.0.0.0.0.0.0.0.0.0.0.0.0.",
"0.0.0.0.0.0.0.0.0.0.0.0.0.0.0.0.0.0.0.0.0.0.0.0.0.0.0.e.} G ! b X 1 $ # 4 7 a 6 % + & O   v S Z A [ 0.0.0.0.0.0.0.0.0.0.0.0.0.0.",
"0.0.0.0.0.0.0.0.0.0.0.0.0.0.0.0.0.0.0.0.0.0.0.0.0.0.0.0.z F ~ b . ; $ # 4 7 f 6 % + 3 X   v Z Z C { 0.0.0.0.0.0.0.0.0.0.0.0.0.0.",
"0.0.0.0.0.0.0.0.0.0.0.0.0.0.0.0.0.0.0.0.0.0.0.0.0.0.0.0.d.I J v o ; % # 4 p f 6 * X 5 O o i n F C m 0.0.0.0.0.0.0.0.0.0.0.0.0.0.",
"0.0.0.0.0.0.0.0.0.0.0.0.0.0.0.0.0.0.0.0.0.0.0.0.0.0.0.0.l I Z v   $ % # 4 f f 6 & O 4 # @ 7.w.8.[ m e.0.0.0.0.0.0.0.0.0.0.0.0.0.",
"0.0.0.0.0.0.0.0.0.0.0.0.0.0.0.0.0.0.0.0.0.0.0.0.0.0.0.0.[ F P w   & & $ 4 6 6 4 & $ 4 # 2 0.0.0.0.d.d.0.0.0.0.0.0.0.0.0.0.0.0.0.",
"0.0.0.0.0.0.0.0.0.0.0.0.0.0.0.0.0.0.0.0.0.0.0.0.0.0.0.0.k k w.s   X * & 3 3 5 3 3 % % . r w.0.0.0.0.0.0.0.0.0.0.0.0.0.0.0.0.0.0.",
"0.0.0.0.0.0.0.0.0.0.0.0.0.0.0.0.0.0.0.0.0.0.0.0.0.0.0.0.w.0.0.s     O 5 w w e e w 6 O   r 0.0.0.0.0.0.0.0.0.0.0.0.0.0.0.0.0.0.0.",
"0.0.0.0.0.0.0.0.0.0.0.0.0.0.0.0.0.0.0.0.0.0.0.0.0.0.0.0.0.0.0.s   . ; e ] >.>.>.>.j 3 . r 0.0.0.0.0.0.0.0.0.0.0.0.0.0.0.0.0.0.0.",
"0.0.0.0.0.0.0.0.0.0.0.0.0.0.0.0.0.0.0.0.0.0.0.0.0.0.0.0.0.0.0.s   % e 1.`._.oXoX_._.(.6 s p.0.0.0.0.0.0.0.0.0.0.0.0.0.0.0.0.0.0.",
"0.0.0.0.0.0.0.0.0.0.0.0.0.0.0.0.0.0.0.0.0.0.0.0.0.0.0.0.0.0.0.r + h _.#X#XoXXXXXXXXX_.{.k.p.0.0.0.0.0.0.0.0.0.0.0.0.0.0.0.0.0.0.",
"0.0.0.0.0.0.0.0.0.0.0.0.0.0.0.0.0.0.0.0.0.0.0.0.0.0.0.0.0.0.0.s h _.XXXX#XXXXXXXXXXXXXXX.X[.E.0.0.0.0.0.0.0.0.0.0.0.0.0.0.0.0.0.",
"0.0.0.0.0.0.0.0.0.0.0.0.0.0.0.0.0.0.0.0.0.0.0.0.0.0.0.0.0.0.0.c ).XXXX=X-X=X%X%X$X#XXXXXXX.X].E.0.0.0.0.0.0.0.0.0.0.0.0.0.0.0.0.",
"0.0.0.0.0.0.0.0.0.0.0.0.0.0.0.0.0.0.0.0.0.0.0.0.0.0.0.0.0.0.E.)..X#X=X-X-X-X=X=X=X=X=X=X%X$XXX].s.0.0.0.0.0.0.0.0.0.0.0.0.0.0.0.",
"0.0.0.0.0.0.0.0.0.0.0.0.0.0.0.0.0.0.0.0.0.0.0.0.0.0.0.0.0.E.].XX#X=X-X6X5X3X3X6X6X5X8X5X-X=X$X.X^.0.0.0.0.0.0.0.0.0.0.0.0.0.0.0.",
"0.0.0.0.0.0.0.0.0.0.0.0.0.0.0.0.0.0.0.0.0.0.0.0.0.0.0.0.i.]..X#X%X3X3X3X3X4X8X7X7X9X7X8X5X3X%XXX].i.0.0.0.0.0.0.0.0.0.0.0.0.0.0.",
"0.0.0.0.0.0.0.0.0.0.0.0.0.0.0.0.0.0.0.0.0.0.0.0.0.0.0.p.(..XXX#X=X-X=X=X-X6X8X8X9XqX7X3X3X=X=X+X.X/.t.0.0.0.0.0.0.0.0.0.0.0.0.0.",
"0.0.0.0.0.0.0.0.0.0.0.0.0.0.0.0.0.0.0.0.0.0.0.0.0.0.0.s..XXX#X%X=X=X=X=X-X3X3X8X7X9X7X3X=X=X&XXXXX].E.0.0.0.0.0.0.0.0.0.0.0.0.0.",
"0.0.0.0.0.0.0.0.0.0.0.0.0.0.0.0.0.0.0.0.0.0.0.0.0.t.t.i.XXXX#X%X=X$X%X%X=X=X3X5X7X9X7X7X5X-X%XXXXX.X/.0.0.0.0.0.0.0.0.0.0.0.0.0.",
"0.0.0.0.0.0.0.0.0.0.0.0.0.0.0.0.0.0.0.0.0.0.0.0.0.0.0.i.XXXX%X#X$X#X$X%X%X=X-X8X7X9X9X7X7X8X-X#XXXXX].u.0.0.0.0.0.0.0.0.0.0.0.0.",
"0.0.0.0.0.0.0.0.0.0.0.0.0.0.0.0.0.0.0.0.0.0.0.0.0.0.0.E.XXXX#X#X#X#XXX#X%X;X6X8X7X7X7X7X7X7X8X-XXX.X|.l.0.0.0.0.0.0.0.0.0.0.0.0.",
"0.0.0.0.0.0.0.0.0.0.0.0.0.0.0.0.0.0.0.0.0.0.0.0.0.0.t.Q.XXXXXXXXXXXX#X%X&X-X8X7X9X7X8X5X8X7X7X8X%XXX.X/.0.0.0.0.0.0.0.0.0.0.0.0.",
"0.0.0.0.0.0.0.0.0.0.0.0.0.0.0.0.0.0.0.0.0.0.0.0.0.0.0.^..XXXXXoXXXXX#X%X-X6X8X7X7X8X-X*X3X7X7X7X-X#XXX|.l.0.0.0.0.0.0.0.0.0.0.0.",
"0.0.0.0.0.0.0.0.0.0.0.0.0.0.0.0.0.0.0.0.0.0.0.0.0.0.t./..XXXoXXXXX#XOX;X4X6X8X7X8X5X%X#X%X6X8X8X6X-X$XXX/.t.t.0.0.0.0.0.0.0.0.0.",
"0.0.0.0.0.0.0.0.0.0.0.0.0.0.0.0.0.0.0.0.0.0.0.0.0.0.q.(.XXXXXXXXXX%X%X-X4X6X6X4X-X*X%X$X%X&X-X2X6X-X=X#X}.i.0.0.0.0.0.0.0.0.0.0.",
"0.0.0.0.0.0.0.0.0.0.0.0.0.0.0.0.0.0.0.0.0.0.0.0.0.0.t.].XXXXoX#X#X%X&X-X4X-X;X&X&X-X-X6X5X-X-X&X&X-X-X#X.XE.0.0.0.0.0.0.0.0.0.0.",
"0.0.0.0.0.0.0.0.0.0.0.0.0.0.0.0.0.0.0.0.0.0.0.0.0.0.t.].XXXXXXXX%X%X&X&X%X%X&X-X6X7XeXeXqX9X8X4X%X%X%X%X#XQ.0.0.0.0.0.0.0.0.0.0.",
"0.0.0.0.0.0.0.0.0.0.0.0.0.0.0.0.0.0.0.0.0.0.0.0.0.0.t.].XXoXXX#XOX%X%XOX%X&X4X8XrXyXpXpXpXuXwXrX4X%XXX%X#X~.0.0.0.0.0.0.0.0.0.0.",
"0.0.0.0.0.0.0.0.0.0.0.0.0.0.0.0.0.0.0.0.0.0.0.0.0.0.y.}.XXXXXX#X%XOXXX%X;X4X8XqXtXuXiXsXsXgXpXyX0X2X%XXXXX/.0.0.0.0.0.0.0.0.0.0.",
"0.0.0.0.0.0.0.0.0.0.0.0.0.0.0.0.0.0.0.0.0.0.0.0.0.0.l.|.XXXXXX#XXXXXOX;X4X8X0XqXtXuXiXgXfXfXgXpXwX7X-XXXXXQ.0.0.0.0.0.0.0.0.0.0.",
"0.0.0.0.0.0.0.0.0.0.0.0.0.0.0.0.0.0.0.0.0.0.0.0.0.0.^.XXXXXXXXXX.X%X-X-X6X8X0XeXtXyXeXtXiXsXgXpXwXqX6X%XXXE.0.0.0.0.0.0.0.0.0.0.",
"0.0.0.0.0.0.0.0.0.0.0.0.0.0.0.0.0.0.0.0.0.0.0.0.0.i.}.XXXXXXXXXX%X;X-X4X8X7XqXqX0X7X8XqXpXaXaXuX0X6X6X;X#XE.0.0.0.0.0.0.0.0.0.0.",
"0.0.0.0.0.0.0.0.0.0.0.0.0.0.0.0.0.0.0.0.0.0.0.0.t.~..XXXXXoXXX%X&X;X-X6X7X0X7X8X8X8XqXwXpXaXiXyX7X;X&X&X#XQ.0.0.0.0.0.0.0.0.0.0.",
"0.0.0.0.0.0.0.0.0.0.0.0.0.0.0.0.0.0.0.0.0.0.0.0.l.|.oXXXXXXX#X%X&X-X6X8X7X6X4X6X8XqXwXpXaXsXsXuXqX4X%XOXXX^.0.0.0.0.0.0.0.0.0.0.",
"0.0.0.0.0.0.0.0.0.0.0.0.0.0.0.0.0.0.0.0.0.0.0.0./..XXXXXXX#X#X;X4X8X8X6X-X-X6XqXqXyXpXaXfXfXsXaXyX0X-XOXXX[.u.0.0.0.0.0.0.0.0.0.",
"0.0.0.0.0.0.0.0.0.0.0.0.0.0.0.0.0.0.0.0.0.0.0.l.|.XXXX.XXX%X-X6X8X6X;X&X-X8XqXwXuXiXsXfXdXdXfXsXpXwX8X%XXX.XE.0.0.0.0.0.0.0.0.0.",
"0.0.0.0.0.0.0.0.0.0.0.0.0.0.0.0.0.0.0.0.0.0.y.].XXXXXXXX=X6X8X8X;X%X%X-X8XqXyXiXaXfXfXdXdXdXdXfXiXyX0X4XXX.XQ.t.0.0.0.0.0.0.0.0.",
"0.0.0.0.0.0.0.0.0.0.0.0.0.0.0.0.0.0.0.0.0.t.(.XXXXXX.X&X8X8X5X=XXX%X-X8XeXyXiXsXdXdXdXdXdXdXdXfXaXyXeX6X%X.X/.y.0.0.0.0.0.0.0.0.",
"0.0.0.0.0.0.0.0.0.0.0.0.0.0.0.0.0.0.0.0.0.Q..X.XXXXX%X=X6X-X$XXX%X-X8XeXyXaXsXfXdXdXdXdXdXdXdXfXaXpXeX8X&X.X(.y.0.0.0.0.0.0.0.0.",
"0.0.0.0.0.0.0.0.0.0.0.0.0.0.0.0.0.0.0.0.l..XXXXXXXOXXX#X%X+XXX%X5X9XeXuXaXsXdXdXdXdXdXdXdXdXfXfXaXpXwX7X=XXX[.y.0.0.0.0.0.0.0.0.",
"0.0.0.0.0.0.0.0.0.0.0.0.0.0.0.0.0.0.0.u.].XX.XXXXXOXOXOXXXXX%X6X9XeXuXiXsXfXdXdXdXdXdXdXdXdXdXfXaXyXeXrX-XXX Xp.0.0.0.0.0.0.0.0.",
"0.0.0.0.0.0.0.0.0.0.0.0.0.0.0.0.0.0.q.~.XXXXXXXXXXXXXXXXXX+X-X9XeXtXiXsXfXdXdXdXdXdXdXdXdXdXfXfXiXyXeX7X-XXX@Xs.0.0.0.0.0.0.0.0.",
"0.0.0.0.0.0.0.0.0.0.0.0.0.0.0.0.0.0.u.]..X.XXXXX.XXX.XXX*X-X8X9XeXuXiXgXfXfXdXdXdXdXdXdXdXdXfXsXpXyXqX7X=XXX Xs.0.0.0.0.0.0.0.0."
};
