/* XPM */
static char *result[] = {
/* columns rows colors chars-per-pixel */
"64 64 4 1 ",
"  c black",
". c #229D6E",
"X c #FEFFFE",
"o c white",
/* pixels */
"................................................................",
"................................................................",
"................................................................",
"....................o...........................................",
"..................ooo.....................oo....................",
".................ooo.......................oo...................",
"................ooo........................ooo..................",
"...............oooo........................oooo.................",
"..............oooo........oooooooooooo......oooo................",
".............oooooo.....oooooooooooooooo....ooooo...............",
"............oooooooo...ooooooooooooooooooo..oooooo..............",
"............oooooooooooooooooooooooooooooooooooooo..............",
"............oooooooooooooooooooooooooooooooooooooo..............",
"............oooooooooooooooooooooooooooooooooooooo..............",
".............ooooooooooooooooooooooooooooooooooooo..............",
"..............ooooooooooooooooooooo oooooooo oooo...............",
"...............ooooooo     oooooooo ooooooo oooo................",
"..................ooooooo    oooooo oooooo  ooooo...............",
"..................oooooooooo     o oooooo  oooooooo.............",
"..................oooooooooooo     ooooo  ooooooooooo...........",
"..................oooooooooooo    oo o   oooooo oooooooo........",
"..................ooooooooooo    oo ooo   ooooo ooooooooo.......",
"...............oX.ooooooooooo    oooooo   ooooo  ooooooooo......",
".............oooo ooooooooooo    oooooo   ooooo  ooooooooo......",
"...........oooooo  oooooooooo    oooooo   oooo....ooooooooo.....",
".........oooooooo  oooooooooo    oooooo   oooo....ooooooooo.....",
".........ooooooo    oooooooooo  ooooooo   ooo......oooooooo.....",
"........oooooooo    oooooooooo  oooooooo oooo.......oooooo......",
"........ooooooo      oooooooooooooooooooooooo........ooooo......",
"........ooooooo       oooooooooooooooooooooo...........oo.......",
".......ooooooo         ooooooooooooooooooooo....................",
".......ooooooo           ooooooooooooooooo......................",
".......oooooo   oo          oooooooooooooo......................",
".......oo       oo             ooo ooo oo.......................",
".......         ooo            ooo oo  oo.......................",
"....o.        o  oooo          oo  oo  .........................",
"....oo       oo  ooooooo               .........................",
"....ooo       oo   ooooooo             .........................",
"...ooooo   ..  ooo    ooooooo          .........................",
"...oooooo ...   oooo     ooooo  ooooooo.........................",
"...ooooooo....   ooooooo    oo  oooooo .........................",
"...oooooooo...oo   oooooooo oo oo      .........................",
"...ooooooooo...ooo     ooooooo oooooooo.........................",
"...oooooooooo.. oooooo     ooooooooo ...........................",
"....oooooooooo.   oooooooo ooooo     ...........................",
"....oooooooooo..     ooooooooooooooo............................",
".....ooooooooo..        ooooooooo   ............................",
".....oooooooooo.                     ...........................",
"......ooooooooo..                     ..........................",
".......oooooooo..                      .........................",
"........oooooo....      ........         .......................",
".........ooo......       ........         ......................",
"..................        .........        .....................",
"...................        .........        ....................",
"...................        ..........        ...................",
"...................        ...........        ..................",
"...................oooooooo...........oooooooo..................",
"...................ooooooo.............ooooooo..................",
"...................ooooooo..............oooooo..................",
"....................ooooo................oooo...................",
"................................................................",
"................................................................",
"................................................................",
"................................................................"
};
