/* XPM */
static char *result[] = {
/* columns rows colors chars-per-pixel */
"64 64 3 1 ",
"  c black",
". c #229D6E",
"X c white",
/* pixels */
"................................................................",
"................................................................",
"................................................................",
"................................................................",
"................................................................",
"..............................X.................................",
"............................XXX.....................XX..........",
"...........................XXX.......................XX.........",
"..........................XXX........................XXX........",
".........................XXXX........................XXXX.......",
"........................XXXX........XXXXXXXXXXXX......XXXX......",
".......................XXXXXX.....XXXXXXXXXXXXXXXX....XXXXX.....",
"......................XXXXXXXX...XXXXXXXXXXXXXXXXXXX..XXXXXX....",
"......................XXXXXXXXXXXXXXXXXXXXXXXXXXXXXXXXXXXXXX....",
"......................XXXXXXXXXXXXXXXXXXXXXXXXXXXXXXXXXXXXXX....",
"......................XXXXXXXXXXXXXXXXXXXXXXXXXXXXXXXXXXXXXX....",
".......................XXXXXXXXXXXXXXXXXXXXXXXXXXXXXXXXXXXXX....",
"........................XXXXXXXXXXXXXXXXXXXXX XXXXXXXX XXXX.....",
".........................XXXXXXX     XXXXXXXX XXXXXXX XXXX......",
"............................XXXXXXX    XXXXXX XXXXXX  XXX.......",
".......................XXXXXXXXXXXXXXX     X XXXXXX  XXXX.......",
"......................XXXXXXXXXXXXXXXXXX     XXXXX  XXXXX.......",
".....................XXXXXXXXXXXXXXXXXXX    XX X   XXXXXX.......",
"...............XX...XXXXXXXXXXXXXXXXXXX    XX XXX   XXXXX.......",
".............XXX.. XXXXXXXXXXXXXXXXXXXX    XXXXXX   XXXXX.......",
"............XXXX.  XXXXXXXXXXXXXXXXXXXX    XXXXXX   XXXXX.......",
"...........XXXXX    XXXXXXX  XXXXXXXXXX    XXXXXX   XXXX........",
"..........XXXXXX      XXXX   XXXXXXXXXX    XXXXXX   XXXX........",
"..........XXXXXX       ..     XXXXXXXXXX  XXXXXXX   XXX.........",
".........XXXXXXXX     ...     XXXXXXXXXX  XXXXXXXX XXXX.........",
"........XXXXXXXXX  .....       XXXXXXXXXXXXXXXXXXXXXXXX.........",
"........XXXXXXXXX.......        XXXXXXXXXXXXXXXXXXXXXX..........",
"........XXXXXXXXX......   XX     XXXXXXXXXXXXXXXXXXXXX..........",
"........XXXXXXXXX......   XX       XXXXXXXXXXXXXXXXX............",
".......XXXXXXXXXX.....    XXX         XXXXXXXXXXXXXX............",
".......XXXXXXXXXX.....  X  XXXX          XXX XXX XX  ...........",
".......XXXXXXXXXX..... XX  XXXXXXX       XXX XX  XX   ..........",
".......XXXXXXXXX......  XX   XXXXXXX     XX  XX        .........",
".......XXXXXXXX........  XXX    XXXXXXX                 ........",
"........XXXXXX.........   XXXX     XXXXX  XXXXX         .X......",
".........XXX............   XXXXXXX    XX  XXXXXX        XX......",
"........................XX   XXXXXXXX XX XX      .      XXX.....",
"........................ XXX     XXXXXXX XXXXXXXX...    XXXX....",
"........................  XXXXXX     XXXXXXXXX ...... XXXXXXX...",
"........................    XXXXXXXX XXXXX     .......XXXXXXX...",
"........................       XXXXXXXXXXXXXXX........XXXXXXX...",
"........................          XXXXXXXXX..........XXXXXXXX...",
".......................                    ..........XXXXXXXX...",
".......................                     .........XXXXXXXX...",
".......................                      .......XXXXXXXXX...",
".......................      .......         .......XXXXXXXXX...",
".......................      ........          .....XXXXXXXX....",
"......................        .......           .....XXXXXX.....",
"......................        ........          .......XXX......",
"......................        .........         ................",
"......................XXXXXXXX.........XXXXXXXXX................",
".....................XXXXXXXX..........XXXXXXXX.................",
"....................XXXXXXX...........XXXXXXXX..................",
"....................XXXXXX............XXXXXXX...................",
"....................XXXX..............XXXXXX....................",
"................................................................",
"................................................................",
"................................................................",
"................................................................"
};
