/* XPM */
static char *result[] = {
/* columns rows colors chars-per-pixel */
"64 64 4 1 ",
"  c black",
". c #010403",
"X c #229D6E",
"o c white",
/* pixels */
"XXXXXXXXXXXXXXXXXXXXXXXXXXXXXXXXXXXXXXXXXXXXXXXXXXXXXXXXXXXXXXXX",
"XXXXXXXXXXXXXXXXXXXXXXXXXXXXXXXXXXXXXXXXXXXXXXXXXXXXXXXXXXXXXXXX",
"XXXXXXXXXXXXXXXXXXXXXXXXXXXXXXXXXXXXXXXXXXXXXXXXXXXXXXXXXXXXXXXX",
"XXXXXXXXXXXXXXXXXXXXXXXXXXXXXXXXXXXXXXXXXXXXXXXXXXXXXXXXXXXXXXXX",
"XXXXXXXXXXXXXXXXXXXXXXXXXXXXXoXXXXXXXXXXXXXXXXXXXXXXXXXXXXXXXXXX",
"XXXXXXXXXXXXXXXXXXXXXXXXXXXoooXXXXXXXXXXXXXXXXXXXXXooXXXXXXXXXXX",
"XXXXXXXXXXXXXXXXXXXXXXXXXXoooXXXXXXXXXXXXXXXXXXXXXXXooXXXXXXXXXX",
"XXXXXXXXXXXXXXXXXXXXXXXXXoooXXXXXXXXXXXXXXXXXXXXXXXXoooXXXXXXXXX",
"XXXXXXXXXXXXXXXXXXXXXXXXooooXXXXXXXXXXXXXXXXXXXXXXXXooooXXXXXXXX",
"XXXXXXXXXXXXXXXXXXXXXXXooooXXXXXXXXooooooooooooXXXXXXooooXXXXXXX",
"XXXXXXXXXXXXXXXXXXXXXXooooooXXXXXooooooooooooooooXXXXoooooXXXXXX",
"XXXXXXXXXXXXXXXXXXXXXooooooooXXXoooooooooooooooooooXXooooooXXXXX",
"XXXXXXXXXXXXXXXXXXXXXooooooooooooooooooooooooooooooooooooooXXXXX",
"XXXXXXXXXXXXXXXXXXXXXooooooooooooooooooooooooooooooooooooooXXXXX",
"XXXXXXXXXXXXXXXXXXXXXooooooooooooooooooooooooooooooooooooooXXXXX",
"XXXXXXXXXXXXXXXXXXXXXXoooooooooooooooooooooooooooooooooooooXXXXX",
"XXXXXXXXXXXXXXXXXXXXXXXooooooooooooooooooooo oooooooo ooooXXXXXX",
"XXXXXXXXXXXXXXXXXXXXXXXXooooooo     oooooooo ooooooo ooooXXXXXXX",
"XXXXXXXXXXXXXXXXXXXXXXXXXXXooooooo    oooooo oooooo  oooXXXXXXXX",
"XXXXXXXXXXXXXXXXXXXXXXXXXXXoooooooooo     o oooooo  ooooXXXXXXXX",
"XXXXXXXXXXXXXXXXXXXXXXXXXXXoooooooooooo     ooooo  oooooXXXXXXXX",
"XXXXXXXXXXXXXXXXXXXXXXXXXX oooooooooooo    oo o   ooooooXXXXXXXX",
"XXXXXXXXXXXXXXXXXXXXXXXXX  ooooooooooo    oo ooo   oooooXXXXXXXX",
"XXXXXXXXXXXXXXXXXXooooooo  ooooooooooo    oooooo   oooooXXXXXXXX",
"XXXXXXXXXXXXXXXXXoooooooo  ooooooooooo    oooooo   oooooXXXXXXXX",
"XXXXXXXXXXXXXXXXooooooooo   oooooooooo    oooooo   ooooXXXXXXXXX",
"XXXXXXXXXXXXXXXoooooooo     oooooooooo    oooooo   ooooXXXXXXXXX",
"XXXXXXXXXXXXXXooooooooo      oooooooooo  ooooooo   oooXXXXXXXXXX",
"XXXXXXXXXXXXXXoooooooo       oooooooooo  oooooooo ooooXXXXXXXXXX",
"XXXXXXXXXXoXX oooooooo        ooooooooooooooooooooooooXXXXXXXXXX",
"XXXXXXXXXooX  ooooooo          ooooooooooooooooooooooXXXXXXXXXXX",
"XXXXXXXXooo        XX           oooooooooooooooooooooXXXXXXXXXXX",
"XXXXXXXoooo        X   oo         ooooooooooooooooo XXXXXXXXXXXX",
"XXXXXXXoooo       XX   oo            oooooooooooooo  XoXXXXXXXXX",
"XXXXXXoooooo    XXX    ooo              ooo ooo oo    ooXXXXXXXX",
"XXXXXXooooooo  XXXX  o  oooo            ooo oo  oo    oooXXXXXXX",
"XXXXXXooooooo XXXXX oo  ooooooo         oo  oo        ooooXXXXXX",
"XXXXXoooooooooXXXXX  oo   ooooooo             X       oooooXXXXX",
"XXXXXoooooooooXXXXXX  ooo    ooooooo          XXXX   ooooooXXXXX",
"XXXXXoooooooooXXXXXX   oooo     ooooo  oooooooXXXXXXXooooooXXXXX",
"XXXXXoooooooooXXXXXXX   ooooooo    oo  oooooo XXXXXXXoooooooXXXX",
"XXXXXooooooooooXXXXXXoo   oooooooo oo oo      XXXXXXXoooooooXXXX",
"XXXXXooooooooooXXXXXX ooo     ooooooo ooooooooXXXXXXXooooooooXXX",
"XXXXXoooooooooXXXXXXX  oooooo     ooooooooo XXXXXXXXXooooooooXXX",
"XXXXXooooooooXXXXXXXX    oooooooo ooooo     XXXXXXXXXooooooooXXX",
"XXXXXXooooooXXXXXXXXX       oooooooooooooooXXXXXXXXXXooooooooXXX",
"XXXXXXXooooXXXXXXXXXX          oooooooooXXXXXXXXXXXXXoooooooXXXX",
"XXXXXXXXXXXXXXXXXXXXX                   XXXXXXXXXXXXXXoooooXXXXX",
"XXXXXXXXXXXXXXXXXXXXX                     XXXXXXXXXXXXXXXXXXXXXX",
"XXXXXXXXXXXXXXXXXXXXX                      XXXXXXXXXXXXXXXXXXXXX",
"XXXXXXXXXXXXXXXXXXXXX      XXXXXXXX.       XXXXXXXXXXXXXXXXXXXXX",
"XXXXXXXXXXXXXXXXXXXXX      XXXXXXXXX         XXXXXXXXXXXXXXXXXXX",
"XXXXXXXXXXXXXXXXXXXXX       XXXXXXXX          XXXXXXXXXXXXXXXXXX",
"XXXXXXXXXXXXXXXXXXXXX        XXXXXXXX          XXXXXXXXXXXXXXXXX",
"XXXXXXXXXXXXXXXXXXXXX        XXXXXXXXX         XXXXXXXXXXXXXXXXX",
"XXXXXXXXXXXXXXXXXXXXXooooooooXXXXXXXXXoooooooooXXXXXXXXXXXXXXXXX",
"XXXXXXXXXXXXXXXXXXXXXoooooooXXXXXXXXXXooooooooXXXXXXXXXXXXXXXXXX",
"XXXXXXXXXXXXXXXXXXXXooooooXXXXXXXXXXXXoooooooXXXXXXXXXXXXXXXXXXX",
"XXXXXXXXXXXXXXXXXXXXoooooXXXXXXXXXXXXXooooooXXXXXXXXXXXXXXXXXXXX",
"XXXXXXXXXXXXXXXXXXXXooooXXXXXXXXXXXXXXooooooXXXXXXXXXXXXXXXXXXXX",
"XXXXXXXXXXXXXXXXXXXXXXXXXXXXXXXXXXXXXXXXXXXXXXXXXXXXXXXXXXXXXXXX",
"XXXXXXXXXXXXXXXXXXXXXXXXXXXXXXXXXXXXXXXXXXXXXXXXXXXXXXXXXXXXXXXX",
"XXXXXXXXXXXXXXXXXXXXXXXXXXXXXXXXXXXXXXXXXXXXXXXXXXXXXXXXXXXXXXXX",
"XXXXXXXXXXXXXXXXXXXXXXXXXXXXXXXXXXXXXXXXXXXXXXXXXXXXXXXXXXXXXXXX"
};
