/* XPM */
static char *result[] = {
/* columns rows colors chars-per-pixel */
"64 64 5 1 ",
"  c black",
". c #010604",
"X c #229D6E",
"o c #FEFFFE",
"O c white",
/* pixels */
"XXXXXXXXXXXXXXXXXXXXXXXXXXXXXXXXXXXXXXXXXXXXXXXXXXXXXXXXXXXXXXXX",
"XXXXXXXXXXXXXXXXXXXXXXXXXXXXXXXXXXXXXXXXXXXXXXXXXXXXXXXXXXXXXXXX",
"XXXXXXXXXXXXXXXXXXXXXXXXXXXXXXXXXXXXXXXXXXXXXXXXXXXXXXXXXXXXXXXX",
"XXXXXXXXXXXXXXXXXXXXXXXXXXXXXXXXXXXXXXXXXXXXXXXXXXXXXXXXXXXXXXXX",
"XXXXXXXXXXXXXXXXXXXXXXXXXXXXOXXXXXXXXXXXXXXXXXXXXXXXXXXXXXXXXXXX",
"XXXXXXXXXXXXXXXXXXXXXXXXXXOOOXXXXXXXXXXXXXXXXXXXXXOOXXXXXXXXXXXX",
"XXXXXXXXXXXXXXXXXXXXXXXXXOOOXXXXXXXXXXXXXXXXXXXXXXXOOXXXXXXXXXXX",
"XXXXXXXXXXXXXXXXXXXXXXXXOOOXXXXXXXXXXXXXXXXXXXXXXXXOOOXXXXXXXXXX",
"XXXXXXXXXXXXXXXXXXXXXXXOOOOXXXXXXXXXXXXXXXXXXXXXXXXOOOOXXXXXXXXX",
"XXXXXXXXXXXXXXXXXXXXXXOOOOXXXXXXXXOOOOOOOOOOOOXXXXXXOOOOXXXXXXXX",
"XXXXXXXXXXXXXXXXXXXXXOOOOOOXXXXXOOOOOOOOOOOOOOOOXXXXOOOOOXXXXXXX",
"XXXXXXXXXXXXXXXXXXXXOOOOOOOOXXXOOOOOOOOOOOOOOOOOOOXXOOOOOOXXXXXX",
"XXXXXXXXXXXXXXXXXXXXOOOOOOOOOOOOOOOOOOOOOOOOOOOOOOOOOOOOOOXXXXXX",
"XXXXXXXXXXXXXXXXXXXXOOOOOOOOOOOOOOOOOOOOOOOOOOOOOOOOOOOOOOXXXXXX",
"XXXXXXXXXXXXXXXXXXXXOOOOOOOOOOOOOOOOOOOOOOOOOOOOOOOOOOOOOOXXXXXX",
"XXXXXXXXXXXXXXXXXXXXXOOOOOOOOOOOOOOOOOOOOOOOOOOOOOOOOOOOOOXXXXXX",
"XXXXXXXXXXXXXXXXXXXXXXOOOOOOOOOOOOOOOOOOOOO OOOOOOOO OOOOXXXXXXX",
"XXXXXXXXXXXXXXXXXXXXXXXOOOOOOO     OOOOOOOO OOOOOOO OOOOXXXXXXXX",
"XXXXXXXXXXXXXXXXXXXXXXXXXXOOOOOOO    OOOOOO OOOOOO  OOOXXXXXXXXX",
"XXXXXXXXXXXXXXXXXXXXXXXXXXOOOOOOOOOO     O OOOOOO  OOOOXXXXXXXXX",
"XXXXXXXXXXXXXXXXXXXXXXXXXXOOOOOOOOOOOO     OOOOO  OOOOOXXXXXXXXX",
"XXXXXXXXXXXXXXXXXXXXXXXXX OOOOOOOOOOOO    OO O   OOOOOOXXXXXXXXX",
"XXXXXXXXXXXXXXXXXXXXXXXX  OOOOOOOOOOO    OO OOO   OOOOOXXXXXXXXX",
"XXXXXXXXXXXXXXXXOOOOOOO   OOOOOOOOOOO    OOOOOO   OOOOOXXXXXXXXX",
"XXXXXXXXXXXXXXXOOOOOOOO   OOOOOOOOOOO    OOOOOO   OOOOOXXXXXXXXX",
"XXXXXXXXXXXXXXOOOOOOOOO    OOOOOOOOOO    OOOOOO   OOOOXXXXXXXXXX",
"XXXXXXXXXXXXXOOOOOOOOO     OOOOOOOOOO    OOOOOO   OOOOXXXXXXXXXX",
"XXXXXXXXXXXXOOOOOOOOOO      OOOOOOOOOO  OOOOOOO   OOOXXXXXXXXXXX",
"XXXXXXXXXXXXOOOOOOOOO       OOOOOOOOOO  OOOOOOOO OOOOXXXXXXXXXXX",
"XXXXXXXXXXXOOOOOOOOOO        OOOOOOOOOOOOOOOOOOOOOOOOXXXXXXXXXXX",
"XXXXXXXXOX     OOOOO          OOOOOOOOOOOOOOOOOOOOOOXXXXXXXXXXXX",
"XXXXXXXOO         OO           OOOOOOOOOOOOOOOOOOOOO XOXXXXXXXXX",
"XXXXXXOOO         X   OO         OOOOOOOOOOOOOOOOO    OOXXXXXXXX",
"XXXXXXOOOO       XX   OO            OOOOOOOOOOOOOO    OOOXXXXXXX",
"XXXXXXOOOO      XX    OOO              OOO OOO OO     OOOOXXXXXX",
"XXXXXOOOOOO   XXXX  O  OOOO            OOO OO  OO     OOOOOXXXXX",
"XXXXXOOOOOOOXXXXXX OO  OOOOOOO         OO  OOXX       OOOOOOXXXX",
"XXXXXOOOOOOOXXXXXX  OO   OOOOOOO             XXXX     OOOOOOOXXX",
"XXXXXOOOOOOOXXXXXXX  OOO    OOOOOOO          XXXXXXXXXOOOOOOOOXX",
"XXXXOOOOOOOOXXXXXXX   OOOO     OOOOO  OOOOOOOXXXXXXXXXOOOOOOOOXX",
"XXXXOOOOOOOOXXXXXXX    OOOOOOO    OO  OOOOOO XXXXXXXXXOOOOOOOOXX",
"XXXXOOOOOOOOOXXXXXX OO   OOOOOOOO OO OO      XXXXXXXXXXOOOOOOOXX",
"XXXXOOOOOOOOOXXXXXX  OOO     OOOOOOO OOOOOOOOXXXXXXXXXXOOOOOOOXX",
"XXXXOOOOOOOOOXXXXXX   OOOOOO     OOOOOOOOO XXXXXXXXXXXXOOOOOOXXX",
"XXXXOOOOOOOOOXXXXXX     OOOOOOOO OOOOO     XXXXXXXXXXXXXOOOOXXXX",
"XXXXXOOOOOOOXXXXXXX        OOOOOOOOOOOOOOOXXXXXXXXXXXXXXXOOXXXXX",
"XXXXXOOOOOOXXXXXXXX           OOOOOOOOOXXXXXXXXXXXXXXXXXXXXXXXXX",
"XXXXXXOOoOOXXXXXXXX                     XXXXXXXXXXXXXXXXXXXXXXXX",
"XXXXXXXXXXXXXXXXXXXX                     XXXXXXXXXXXXXXXXXXXXXXX",
"XXXXXXXXXXXXXXXXXXXX                      XXXXXXXXXXXXXXXXXXXXXX",
"XXXXXXXXXXXXXXXXXXXX      XXXXXXXX          XXXXXXXXXXXXXXXXXXXX",
"XXXXXXXXXXXXXXXXXXXX       XXXXXXXX           XXXXXXXXXXXXXXXXXX",
"XXXXXXXXXXXXXXXXXXXX       XXXXXXXXX           XXXXXXXXXXXXXXXXX",
"XXXXXXXXXXXXXXXXXXXX        XXXXXXXXXX         XXXXXXXXXXXXXXXXX",
"XXXXXXXXXXXXXXXXXXXX        XXXXXXXXXXX        XXXXXXXXXXXXXXXXX",
"XXXXXXXXXXXXXXXXXXXX.       XXXXXXXXXXXOOOOOOOOXXXXXXXXXXXXXXXXX",
"XXXXXXXXXXXXXXXXXXXXOOOOOOOOXXXXXXXXXXXOOOOOOOOXXXXXXXXXXXXXXXXX",
"XXXXXXXXXXXXXXXXXXXXOOOOOOOXXXXXXXXXXXXOOOOOOOXXXXXXXXXXXXXXXXXX",
"XXXXXXXXXXXXXXXXXXXXOOOOOOXXXXXXXXXXXXXOOOOOOOXXXXXXXXXXXXXXXXXX",
"XXXXXXXXXXXXXXXXXXXXOOOOOXXXXXXXXXXXXXXOOOOOOXXXXXXXXXXXXXXXXXXX",
"XXXXXXXXXXXXXXXXXXXXXXXXXXXXXXXXXXXXXXXXXXXXXXXXXXXXXXXXXXXXXXXX",
"XXXXXXXXXXXXXXXXXXXXXXXXXXXXXXXXXXXXXXXXXXXXXXXXXXXXXXXXXXXXXXXX",
"XXXXXXXXXXXXXXXXXXXXXXXXXXXXXXXXXXXXXXXXXXXXXXXXXXXXXXXXXXXXXXXX",
"XXXXXXXXXXXXXXXXXXXXXXXXXXXXXXXXXXXXXXXXXXXXXXXXXXXXXXXXXXXXXXXX"
};
