/* XPM */
static char *result[] = {
/* columns rows colors chars-per-pixel */
"64 64 3 1 ",
"  c black",
". c #229D6E",
"X c white",
/* pixels */
"................................................................",
"................................................................",
"................................................................",
"................................................................",
"........................X.......................................",
"......................XXX.....................XX................",
".....................XXX.......................XX...............",
"....................XXX........................XXX..............",
"...................XXXX........................XXXX.............",
"..................XXXX........XXXXXXXXXXXX......XXXX............",
".................XXXXXX.....XXXXXXXXXXXXXXXX....XXXXX...........",
"................XXXXXXXX...XXXXXXXXXXXXXXXXXXX..XXXXXX..........",
"................XXXXXXXXXXXXXXXXXXXXXXXXXXXXXXXXXXXXXX..........",
"................XXXXXXXXXXXXXXXXXXXXXXXXXXXXXXXXXXXXXX..........",
"................XXXXXXXXXXXXXXXXXXXXXXXXXXXXXXXXXXXXXX..........",
".................XXXXXXXXXXXXXXXXXXXXXXXXXXXXXXXXXXXXX..........",
"..................XXXXXXXXXXXXXXXXXXXXX XXXXXXXX XXXX...........",
"...................XXXXXXX     XXXXXXXX XXXXXXX XXXX............",
"......................XXXXXXX    XXXXXX XXXXXX  XXX.............",
"......................XXXXXXXXXX     X XXXXXX  XXXX.............",
"......................XXXXXXXXXXXX     XXXXX  XXXXX.............",
"......................XXXXXXXXXXXX    XX X   XXXXXX.............",
"..................... XXXXXXXXXXX    XX XXX   XXXXX.............",
"....................  XXXXXXXXXXX    XXXXXX   XXXXX.............",
"....................  XXXXXXXXXXX    XXXXXX   XXXXX.............",
".............XXXXXXX   XXXXXXXXXX    XXXXXX   XXXX..............",
"............XXXXXXX    XXXXXXXXXX    XXXXXX   XXXX..............",
"...........XXXXXXXX     XXXXXXXXXX  XXXXXXX   XXX...............",
"..........XXXXXXXX      XXXXXXXXXX  XXXXXXXX XXXX ..X...........",
".........XXXXXXXXX       XXXXXXXXXXXXXXXXXXXXXXXX   XX..........",
".........XXXXXXXX         XXXXXXXXXXXXXXXXXXXXXX    XXX.........",
".........XXXXXXXX          XXXXXXXXXXXXXXXXXXXXX    XXXX........",
".........XXXXXXX   XX        XXXXXXXXXXXXXXXXX      XXXXXX......",
"......X.     XXX   XX           XXXXXXXXXXXXXX      XXXXXXX.....",
".....XX            XXX             XXX XXX.XX..     XXXXXXXX....",
".....XX          X  XXXX           XXX XX .XX.....  XXXXXXXX....",
"....XXXX      . XX  XXXXXXX        XX  XX ..........XXXXXXXXX...",
"....XXXX    ...  XX   XXXXXXX             ...........XXXXXXXX...",
"...XXXXXX ......  XXX    XXXXXXX          ...........XXXXXXXX...",
"...XXXXXXX......   XXXX     XXXXX  XXXXXXX............XXXXXXX...",
"...XXXXXXX.......   XXXXXXX    XX  XXXXXX ............XXXXXX....",
"...XXXXXXXX......XX   XXXXXXXX XX XX      .............XXXX.....",
"...XXXXXXXX...... XXX     XXXXXXX XXXXXXXX..............XX......",
"...XXXXXXXXX.....  XXXXXX     XXXXXXXXX ........................",
"...XXXXXXXXX.....    XXXXXXXX XXXXX     ........................",
"...XXXXXXXXX.....       XXXXXXXXXXXXXXX.........................",
"...XXXXXXXXX.....          XXXXXXXXX  ..........................",
"...XXXXXXXXX.....                      .........................",
"....XXXXXXX.......                      ........................",
"....XXXXXX........                        ......................",
".....XXXXX........       ........          .....................",
"....................      ........          ....................",
"....................      .........          ...................",
"....................       ..........         ..................",
"....................       ...........         .................",
"....................XXXXXXX............XXXXXXXX.................",
"....................XXXXXXX............XXXXXXXX.................",
"....................XXXXXXX............XXXXXXXX.................",
"....................XXXXXX.............XXXXXXX..................",
".....................XXXX...............XXXXX...................",
"................................................................",
"................................................................",
"................................................................",
"................................................................"
};
