/* XPM */
static char *result[] = {
/* columns rows colors chars-per-pixel */
"64 64 67 1 ",
"  c #020201",
". c #070708",
"X c #090709",
"o c #070808",
"O c #0B0B0B",
"+ c #100F0F",
"@ c #141314",
"# c #191717",
"$ c #171718",
"% c #1B1B1B",
"& c #21201F",
"* c #1F1F20",
"= c #201F21",
"- c #242424",
"; c #292726",
": c #282728",
"> c #2D2C2D",
", c #302F2F",
"< c #302F30",
"1 c #333133",
"2 c #3A3C3B",
"3 c #3F3F40",
"4 c #4B4A4B",
"5 c gray32",
"6 c #6D6C6C",
"7 c #706C6C",
"8 c #707170",
"9 c #229D6E",
"0 c #858484",
"q c #8B8B8B",
"w c #959595",
"e c #A0A0A0",
"r c #B7B7B8",
"t c #B9B8B8",
"y c #C4C4C4",
"u c #CECECE",
"i c #D0CFCE",
"p c #CFD0CF",
"a c #D0CFD0",
"s c #D4D4D4",
"d c #D7D8D7",
"f c #D6D7D8",
"g c #D8D7D8",
"h c #D7D9D9",
"j c #DCDDDD",
"k c #E0DFDE",
"l c #DFE0DF",
"z c #E0E0DF",
"x c #DEDFE0",
"c c #E1DFE1",
"v c #DFE0E1",
"b c #E2E3E4",
"n c #E9E6E7",
"m c #E6E8E7",
"M c #E8E9E7",
"N c #E7E6E8",
"B c #E8E7E9",
"V c #E7E9E9",
"C c #EBECEC",
"Z c #EFF0EF",
"A c #EFF1F0",
"S c #F4F4F4",
"D c #F8F8F7",
"F c #F7F7F8",
"G c #F8F7F8",
"H c #F7F8F8",
"J c #FCFCFC",
/* pixels */
"9999999999999999999999999999999999999999999999999999999999999999",
"9999999999999999999999999999999999999999999999999999999999999999",
"9999999999999999999999999999999999999999999999999999999999999999",
"9999999999999999999999999999999999999999999999999999999999999999",
"9999999999999999999999999999999999999999999999999999999999999999",
"9999999999999999999999999999999999999999999999999999999999999999",
"9999999999999999999999999999999999999999999999999999999999999999",
"9999999999999999999999999999999999999999999999999999999999999999",
"9999999999999999999999999999999999999999999999999999999999999999",
"9999999999999999999999999999999999999999999999999999999999999999",
"9999999999999999999999999999999999999999999999999999999999999999",
"9999999999999999999999999999999999999999999999999999999999999999",
"9999999999999999999999999999999999999999999999999999999999999999",
"9999999999999999999999999999999999999999999999999999999999999999",
"9999999999999999999999999999999999999999999999999999999999999999",
"9999999999999999999999999999999999999999999999999999999999999999",
"9999999999999999999999999999999999999999999999999999999999999999",
"9999999999999999999999999999999999999999999999999999999999999999",
"9999999999999999999999999999999999999999999999999999999999999999",
"9999999999999999999999999999999999999999999999999999999999999999",
"9999999999999999999999999999999999999999999999999999999999999999",
"9999999999999999999999999999999999999999999999999999999999999999",
"9999999999999999999999999999999999999999999999999999999999999999",
"9999999999999999999999999999999999999999999999999999999999999999",
"9999999999999999999999999999999999999999999999999999999999999999",
"9999999999999999999999999999999999999999999999999999999999999999",
"9999999999999999999999999999999999999999999999999999999999999999",
"9999999999999999999999999999999999999999999999999999999999999999",
"9999999999999999999999999999999999999999999999999999999999999999",
"9999999999999999999999999999999999999999999999999999999999999999",
"9999999999999999999999999999999999999999999999999999999999999999",
"9999999999999999999999999999999999999999999999999999999999999999",
"9999999999999999999999999999999999999999999999999999999999999999",
"9999999999999999999999999999999999999999999999999999999999999999",
"9999999999999999999999999999999999999999999999999999999999999999",
"9999999999999999999999999999999999999999999999999999999999999999",
"9999999999999999999999999999999999999999999999999999999999999999",
"9999999999999999999999999999999999999999999999999999999999999999",
"9999999999999999999999999999999999999999999999999999999999999999",
"9999999999999999999999999999999999999999999999999999999999999999",
"9999999999999999999999999999999999999999999999999999999999999999",
"9999999999999999999999999999999999999999999999999999999999999999",
"99999999999       9999999999999999bCAZZSCSSASCZ99999999999999999",
"9999999999   XOO.  9999999999999bbbCZCCZSGSSSSSSA999999999999999",
"999999999   O@$@Oo  9999999999bbbbbVNVCZSGGGGGGSSSF9999999999999",
"99999999   X%**$@o   9999999asjbjvbbNVZSGGJJJGGGSFFSC99999999999",
"99999999   @-:-*@X . 999999uupgjvbNNvNAFGJJJJJJJFSSSZN9999999999",
"9999999   O$*&:-$O   9999uuusfkcbbbbVCAFJJJJJJJJJFFCSCB999999999",
"9999999   .XOoooOX.. 999uuushzbbbbbNCCSSJJJJJJJJJJGSMCnN99999999",
"999999    XXXoo      99uuushjbbbbbnnbNmCDJJJJJJJJJFSCbnN99999999",
"999999    O-,1,&@.   9uuishzbvcbzzgjhzvVSSGGJJJJJGSCCnNNN9999999",
"99999     $;11,;$O.*6uuushjbvcbjhghjzzbNSSSHGJJJGAnbbNbNN9999999",
"99999    O;,111,*+10yuushjbvvvhfdgczvbNZSSFSDHJJSANjbbvNn9999999",
"99999  O;,,111<,<4wyyuusjzvvbhdfjkbbmVZSSSSHSJJGSSVvljjbbb999999",
"99999  >+     .+1qyuaaasjbvbjfhxvbNCASSSHSHSDJJGSSCNjhdlxx999999",
"99999    .+&>&#5euuuuasfjbcjhjxbbnCZSSDHSHHGJJGDSSZbvldlcj999999",
"99999    O$;<28tuuupupahxxjhjxvbMCZSDSDDGGGGGGDSSSZbbxgxjx999999",
"99999    O#-30yuuuuuupsxjhsjvvbCCSSSSASSGGGGGDGSSSAVcxjxcj999999",
"99999    X@2qyuuuppuuafxjshvvbMCSCCCCASSGSSSSSSSSSAZbvxjjj999999",
"99999    .;0uuuuuuuuushxfhvvbVCCCbmVCASSSSSSSSSSSZCVNbcjxx999999",
"99999    %0uuuuuuuuuusjxhjxbmmMbbzbmZASSSSSSSSSSSCNNNbxxjN999999",
"99999   #0uuuuuuuuuuushjjjbbCmcklbMZZSSDSSSSSSSSSCNbbbjxjN999999",
"99999  @7ypuuuuuuuuuuusfxvbVMzlzbMZZASSSSSSSSSSSSSZNbbxjbB999999",
"99999  4tuuuuuuauuuuuupsjvNZmllzmZZSSSASSSSSSSSSSSAVbvbcj9999999"
};
