/* XPM */
static char *result[] = {
/* columns rows colors chars-per-pixel */
"64 64 192 2 ",
"   c #020203",
".  c #04070A",
"X  c #0B0B0C",
"o  c #070A07",
"O  c #100D0F",
"+  c #0D100D",
"@  c #141201",
"#  c #1A1805",
"$  c #0E0F11",
"%  c #0F1011",
"&  c #141414",
"*  c #151618",
"=  c #171819",
"-  c #1B1B1C",
";  c #171818",
":  c #261907",
">  c #211B1A",
",  c #1D201E",
"<  c #362807",
"1  c #1F2223",
"2  c #232424",
"3  c #2B2C2C",
"4  c #292625",
"5  c #342F2E",
"6  c #30302D",
"7  c #2F2F30",
"8  c #2E3334",
"9  c #343434",
"0  c #3C3C3C",
"q  c #363837",
"w  c #523500",
"e  c #5B2B2B",
"r  c #4E3131",
"t  c #613130",
"y  c #652B2B",
"u  c #604301",
"i  c #7A4600",
"p  c #6B5C01",
"a  c #725E00",
"s  c #3F3F41",
"d  c #403F40",
"f  c #434444",
"g  c #4C4B4C",
"h  c #595454",
"j  c #6A4747",
"k  c #940D0C",
"l  c #982C0D",
"z  c #8A3936",
"x  c #B13827",
"c  c #D60201",
"v  c #CD100B",
"b  c #EC0E0A",
"n  c #F40503",
"m  c #FE0300",
"M  c #FE0C00",
"N  c #F10D0B",
"B  c #F60907",
"V  c #E3150E",
"C  c #E2180F",
"Z  c #FE1401",
"A  c #FF1900",
"S  c #F81606",
"D  c #FA1812",
"F  c #E51813",
"G  c #C53F0C",
"H  c #D13E0C",
"J  c #D62219",
"K  c #FF2401",
"L  c #FF2C01",
"P  c #FF2A0F",
"I  c #FE3301",
"U  c #FF3C02",
"Y  c #FF3208",
"T  c #F82714",
"R  c #FF2E20",
"E  c #F8382F",
"W  c #FC362D",
"Q  c #F23930",
"!  c #8D4100",
"~  c #8D7A01",
"^  c #9B6C02",
"/  c #A57700",
"(  c #CE4509",
")  c #EF410D",
"_  c #FE4202",
"`  c #FF4C01",
"'  c #FF440C",
"]  c #FF4C0F",
"[  c #EC5402",
"{  c #FF5B00",
"}  c #FF5508",
"|  c #DB7B07",
" . c #C06B08",
".. c #FF6400",
"X. c #FF6E00",
"o. c #F36504",
"O. c #FF7502",
"+. c #FF7900",
"@. c #FF6713",
"#. c #FF7314",
"$. c #FF432A",
"%. c #FE5E3E",
"&. c #FB4E39",
"*. c #925252",
"=. c #9D4A4A",
"-. c #A25454",
";. c #867F7F",
":. c #9D7170",
">. c #229D6E",
",. c #B98701",
"<. c #A7A001",
"1. c #ED8E00",
"2. c #FF8101",
"3. c #FE8D01",
"4. c #F38404",
"5. c #FF9300",
"6. c #FF9D03",
"7. c #FF9508",
"8. c #DCB510",
"9. c #E7A600",
"0. c #FEA301",
"q. c #FFAD00",
"w. c #F7AF00",
"e. c #E7B900",
"r. c #FEB300",
"t. c #FDBB00",
"y. c #F6BD00",
"u. c #E6C409",
"i. c #FDC400",
"p. c #FFC902",
"a. c #E5D900",
"s. c #FFD500",
"d. c #FFD900",
"f. c #FFE500",
"g. c #F7EB00",
"h. c #FCED01",
"j. c #F4E701",
"k. c #FEF200",
"l. c gray62",
"z. c #AD8E8E",
"x. c #AE9E9E",
"c. c #A39595",
"v. c #A7ABAA",
"b. c #ABACAB",
"n. c #AEA3A3",
"m. c #B0AFAF",
"M. c #AEB0AF",
"N. c #B0B1AF",
"B. c #AFAFB0",
"V. c #B0AFB0",
"C. c #AFB0B0",
"Z. c #B3B3B3",
"A. c #B8B7B6",
"S. c #B6B8B7",
"D. c #B9B9B7",
"F. c #B9B7B9",
"G. c #B7B8B8",
"H. c #BCBCBC",
"J. c #B7B7B8",
"K. c #BFC0BF",
"L. c #C0C1BF",
"P. c #BFBFC0",
"I. c #C0BFC1",
"U. c #BFC0C0",
"Y. c #C3C3C3",
"T. c #C8C6C6",
"R. c #C7C9C7",
"E. c #C9C9C7",
"W. c #C7C9C8",
"Q. c #CBCCCC",
"!. c #CFD1CF",
"~. c #D0D1CF",
"^. c #CFCED0",
"/. c #D4D4D4",
"(. c #D8D8D7",
"). c #DBDBDB",
"_. c #D7D8D7",
"`. c #DFE0DF",
"'. c #E1DFE0",
"]. c #E4E4E3",
"[. c #E9E8E7",
"{. c #ECECEB",
"}. c #E6EAEA",
"|. c #F0EFEF",
" X c #EFF2EE",
".X c #F2EFF0",
"XX c #EFF1F0",
"oX c #F3F4F3",
"OX c #F6FAF7",
"+X c #F7F9F8",
"@X c #FDFDFD",
"#X c #F8F7F7",
/* pixels */
">.>.>.>.>.>.>.>.>.>.>.>.>.>.>.>.>.>.>.>.>.>.>.>.>.>.>.>.>.>.>.>.>.>.>.>.>.>.>.>.>.>.>.>.>.>.>.>.>.>.>.>.>.>.>.>.>.>.>.>.>.>.>.>.",
">.>.>.>.>.>.>.>.>.>.>.>.>.>.>.>.>.>.>.>.>.>.>.>.>.>.>.>.>.>.>.>.>.>.>.>.>.>.>.>.>.>.>.>.>.>.>.>.>.>.>.>.>.>.>.>.>.>.>.>.>.>.>.>.",
">.>.>.>.>.>.>.>.>.>.>.>.>.>.>.>.>.>.>.>.>.>.>.>.>.m >.>.>.>.>.>.>.>.>.>.>.>.>.>.>.>.>.>.>.m >.>.>.>.>.>.>.>.>.>.>.>.>.>.>.>.>.>.",
">.>.>.>.>.>.>.>.>.>.>.>.>.>.>.>.>.>.>.>.>.>.>.>.>.m m >.>.>.>.>.>.>.>.>.>.>.>.>.>.>.>.F n m >.>.>.>.>.>.>.>.>.>.>.>.>.>.>.>.>.>.",
">.>.>.>.>.>.>.>.>.>.>.>.>.>.>.>.>.>.>.>.>.>.>.>.>.m m m D >.>.>.>.>.>.>.>.>.>.>.Q T S M m m m >.>.>.>.>.>.>.>.>.>.>.>.>.>.>.>.>.",
">.>.>.>.>.>.>.>.>.>.>.>.>.>.>.>.>.>.>.>.>.>.>.>.m m m D $.%.%.&.Q E E Q W R T T Y _ U L M m m >.>.>.>.>.>.>.>.>.>.>.>.>.>.>.>.>.",
">.>.>.>.>.>.>.>.>.>.>.>.>.>.>.>.>.>.>.>.>.>.>.m m m M L ] #.#.@.] ] Y ) H ( ( [ O.2.2.{ I M m m >.>.>.>.>.>.>.>.>.>.>.>.>.>.>.>.",
">.>.>.>.>.>.>.>.>.>.>.>.>.>.>.>.>.>.>.>.>.>.>.m m m Z ` +.7.0.7.7.4.#./ < : : w ^ 9.q.3.{ K m B m >.>.>.>.>.>.>.>.>.>.>.>.>.>.>.",
">.>.>.>.>.>.>.>.>.>.>.>.>.>.>.>.>.>.>.>.>.>.m m m M L X.6.t.p.p.8.8.& X . .     @ p e.r.+.` A M m m >.>.>.>.>.>.>.>.>.>.>.>.>.>.",
">.>.>.>.>.>.>.>.>.>.>.>.>.>.>.>.>.>.>.>.>.>.m m m Z ` 3.t.d.f.k.a.X     . % ; & . . ~ i.q.+._ Z m B m >.>.>.>.>.>.>.>.>.>.>.>.>.",
">.>.>.>.>.>.>.>.>.>.>.>.>.>.>.>.>.>.>.>.>.m m m M L O.r.d.h.k.k.+     . * 4 6 3 - o @ e.s.q.+._ Z m m C >.>.>.>.>.>.>.>.>.>.>.>.",
">.>.>.>.>.>.>.>.>.>.>.>.>.>.>.>.>.>.>.>.m m m m L { 5.p.f.k.k.<.      $ 2 q f s 6 %   a i.d.t.2.` A m m b >.>.>.>.>.>.>.>.>.>.>.",
">.>.>.>.>.>.>.>.>.>.>.>.>.>.>.>.>.>.>.>.V m m M I O.6.p.h.k.k.#       & 6 0 f f q =     y.p.d.q.X.L m m m b >.>.>.>.>.>.>.>.>.>.",
">.>.>.>.>.>.>.>.>.>.>.>.>.>.>.>.>.>.>.>.>.N m M I { 5.r.s.k.h.      o - 3 9 q q 3 - o   ,.i.d.6.{ K m m m >.>.>.>.>.>.>.>.>.>.>.",
">.>.>.>.>.>.>.>.>.>.>.>.>.>.>.>.>.>.>.>.>.>.B m Z U ..5.t.h.g.      X & - 2 4 4 2 * X   / t.t.+.U M m B >.>.>.>.>.>.>.>.>.>.>.>.",
">.>.>.>.>.>.>.>.>.>.>.>.>.>.>.>.>.>.>.>.>.>.>.>.m Z I ..5.f.g.    o X , 3 0 d q 2 - & o 9.y.r.` Z m m >.>.>.>.>.>.>.>.>.>.>.>.>.",
">.>.>.>.>.>.>.>.>.>.>.>.>.>.>.>.>.>.>.>.>.>.>.>.>.N M L { s.g.  o & 1 9 f g g g f 9 - O ,.q.4.L M m D >.>.>.>.>.>.>.>.>.>.>.>.>.",
">.>.>.>.>.>.>.>.>.>.>.>.>.>.>.>.>.>.>.>.>.>.>.>.>.>.n M K 0.u.@ o - 2 2 4 9 3 3 7 3 4 & / 1.[ Z m m >.>.>.>.>.>.>.>.>.>.>.>.>.>.",
">.>.>.>.>.>.>.>.>.>.>.>.>.>.>.>.>.>.>.>.>.>.>.>.>.>.>.m M _ | <   O $ o & - 2 - & & * = c Z K n m N >.>.>.>.>.>.>.>.>.>.>.>.>.>.",
">.>.>.>.>.>.>.>.>.>.>.>.>.>.>.>.>.>.>.>.>.>.>.>.>.>.>.V m K o.u o = % & 2 3 6 2 ; & 2 - n m B m m J >.>.>.>.>.>.>.>.>.>.>.>.>.>.",
">.>.>.>.>.>.>.>.>.>.>.>.>.>.>.>.>.>.>.>.>.>.>.>.>.>.>.>.n A ` i O 4 = = 3 q 0 6 > - 3 & c m S m m >.>.>.>.>.>.>.>.>.>.>.>.>.>.>.",
">.>.>.>.>.>.>.>.>.>.>.>.>.>.>.>.>.>.>.>.>.>.>.>.>.>.>.>.>.S _ ! X 4 = & 3 0 d 9 - & - X c m Z m m >.>.>.>.>.>.>.>.>.>.>.>.>.>.>.",
">.>.>.>.>.>.>.>.>.>.>.>.>.>.>.>.>.>.>.>.>.>.>.>.>.>.>.>.>.S L l o 1 = & 3 0 f 9 * $ , X n m M m m >.>.>.>.>.>.>.>.>.>.>.>.>.>.>.",
">.>.>.>.>.>.>.>.>.>.>.>.>.>.>.>.>.>.>.>.>.>.>.>.>.>.>.>.>.C T l   1 * & 3 d d 9 * $ 2 $ m m m m m >.>.>.>.>.>.>.>.>.>.>.>.>.>.>.",
">.>.>.>.>.>.>.>.>.>.>.>.>.>.>.>.>.>.>.>.>.>.>.>.>.>.>.>.>.J B k   1 = & 3 d d 9 = X 4 $ >.>.>.m m x >.>.>.>.>.>.>.>.>.>.>.>.>.>.",
">.>.>.>.>.>.>.>.>.>.>.>.>.>.>.>.>.>.>.>.>.>.>.>.>.>.>.>.>.J m k   ; = & 7 f f 9 = $ 3 & >.>.>.>.>.x >.>.>.>.>.>.>.>.>.>.>.>.>.>.",
">.>.>.>.>.>.>.>.>.>.>.>.>.>.>.>.>.>.>.>.>.>.>.>.>.>.>.>.>.V >.>.  ; - = 3 9 9 7 - * 3 & >.>.>.>.>.>.>.>.>.>.>.>.>.>.>.>.>.>.>.>.",
">.>.>.>.>.>.>.>.>.>.>.>.>.>.>.>.>.>.>.>.>.>.>.>.>.>.>.>.>.>.>.>.  O = = 2 2 2 4 2 = = . >.>.>.>.>.>.>.>.>.>.>.>.>.>.>.>.>.>.>.>.",
">.>.>.>.>.>.>.>.>.>.>.>.>.>.>.>.>.>.>.>.>.>.>.>.>.>.>.>.>.>.>.>.    o 2 r e y t r q %   >.>.>.>.>.>.>.>.>.>.>.>.>.>.>.>.>.>.>.>.",
">.>.>.>.>.>.>.>.>.>.>.>.>.>.>.>.>.>.>.>.>.>.>.>.>.>.>.>.>.>.>.>.    > e z =.-.-.*.j 2   >.>.>.>.>.>.>.>.>.>.>.>.>.>.>.>.>.>.>.>.",
">.>.>.>.>.>.>.>.>.>.>.>.>.>.>.>.>.>.>.>.>.>.>.>.>.>.>.>.>.>.>.>.  ; j :.z.x.x.x.x.c.;.8 >.>.>.>.>.>.>.>.>.>.>.>.>.>.>.>.>.>.>.>.",
">.>.>.>.>.>.>.>.>.>.>.>.>.>.>.>.>.>.>.>.>.>.>.>.>.>.>.>.>.>.>.>.X h c.b.b.b.v.B.b.b.b.v.>.>.>.>.>.>.>.>.>.>.>.>.>.>.>.>.>.>.>.>.",
">.>.>.>.>.>.>.>.>.>.>.>.>.>.>.>.>.>.>.>.>.>.>.>.>.>.>.>.>.>.>.>.& l.b.b.V.Z.b.b.b.b.b.v.v.v.>.>.>.>.>.>.>.>.>.>.>.>.>.>.>.>.>.>.",
">.>.>.>.>.>.>.>.>.>.>.>.>.>.>.>.>.>.>.>.>.>.>.>.>.>.>.>.>.>.>.>.v.b.B.Z.H.Z.Z.Z.C.b.b.M.b.v.b.>.>.>.>.>.>.>.>.>.>.>.>.>.>.>.>.>.",
">.>.>.>.>.>.>.>.>.>.>.>.>.>.>.>.>.>.>.>.>.>.>.>.>.>.>.>.>.>.>.v.v.m.J.H.H.H.J.G.H.S.G.H.Z.C.v.v.>.>.>.>.>.>.>.>.>.>.>.>.>.>.>.>.",
">.>.>.>.>.>.>.>.>.>.>.>.>.>.>.>.>.>.>.>.>.>.>.>.>.>.>.>.>.>.v.v.m.F.K.Y.U.P.H.Y.Y.Y.Y.Y.K.G.C.v.>.>.>.>.>.>.>.>.>.>.>.>.>.>.>.>.",
">.>.>.>.>.>.>.>.>.>.>.>.>.>.>.>.>.>.>.>.>.>.>.>.>.>.>.>.>.v.b.b.J.H.U.P.U.Y.Y.Q.Q.!.Q.Y.Y.H.Z.v.v.>.>.>.>.>.>.>.>.>.>.>.>.>.>.>.",
">.>.>.>.>.>.>.>.>.>.>.>.>.>.>.>.>.>.>.>.>.>.>.>.>.>.>.>.v.v.v.Z.S.H.G.G.H.Y.W.Q.Q./.Q.U.P.H.Z.M.v.>.>.>.>.>.>.>.>.>.>.>.>.>.>.>.",
">.>.>.>.>.>.>.>.>.>.>.>.>.>.>.>.>.>.>.>.>.>.>.>.>.>.>.>.v.b.B.Z.S.G.J.J.H.P.P.Y.Q./.Q.U.J.G.Z.M.b.v.>.>.>.>.>.>.>.>.>.>.>.>.>.>.",
">.>.>.>.>.>.>.>.>.>.>.>.>.>.>.>.>.>.>.>.>.>.>.>.>.>.>.>.v.b.V.Z.Z.Z.Z.Z.J.G.P.Y.Q.~.Q.W.Y.H.Z.b.b.v.>.>.>.>.>.>.>.>.>.>.>.>.>.>.",
">.>.>.>.>.>.>.>.>.>.>.>.>.>.>.>.>.>.>.>.>.>.>.>.>.>.>.>.v.m.V.Z.Z.C.C.Z.C.J.P.Y.Q./.Q.!.Q.Y.K.Z.b.b.v.>.>.>.>.>.>.>.>.>.>.>.>.>.",
">.>.>.>.>.>.>.>.>.>.>.>.>.>.>.>.>.>.>.>.>.>.>.>.>.>.>.>.v.b.V.V.C.b.b.Z.Z.H.U.W.Q.!.Q.Q.Q.Q.Y.H.m.b.v.>.>.>.>.>.>.>.>.>.>.>.>.>.",
">.>.>.>.>.>.>.>.>.>.>.>.>.>.>.>.>.>.>.>.>.>.>.>.>.>.>.>.v.b.b.B.b.B.B.Z.J.H.Y.Q.!.Q.Y.Y.Q.Q.^.Y.Z.b.v.>.>.>.>.>.>.>.>.>.>.>.>.>.",
">.>.>.>.>.>.>.>.>.>.>.>.>.>.>.>.>.>.>.>.>.>.>.>.>.>.>.>.b.b.b.n.b.b.B.Z.H.Y.E.Q.Q.R.H.S.H.Q.^.E.H.V.v.v.>.>.>.>.>.>.>.>.>.>.>.>.",
">.>.>.>.>.>.>.>.>.>.>.>.>.>.>.>.>.>.>.>.>.>.>.>.>.>.>.>.v.b.b.b.b.V.Z.A.P.Y.E.Q.R.K.Z.b.Z.Y.E.E.Y.H.m.b.>.>.>.>.>.>.>.>.>.>.>.>.",
">.>.>.>.>.>.>.>.>.>.>.>.>.>.>.>.>.>.>.>.>.>.>.>.>.>.>.>.v.n.b.b.B.V.Z.H.I.Y.Y.Y.H.S.Z.Z.Z.Z.H.P.Y.P.S.v.b.>.>.>.>.>.>.>.>.>.>.>.",
">.>.>.>.>.>.>.>.>.>.>.>.>.>.>.>.>.>.>.>.>.>.>.>.>.>.>.>.v.b.b.b.m.Z.A.H.H.H.F.F.Z.H.P.Y.Y.H.H.A.Z.D.D.Z.v.>.>.>.>.>.>.>.>.>.>.>.",
">.>.>.>.>.>.>.>.>.>.>.>.>.>.>.>.>.>.>.>.>.>.>.>.>.>.>.>.b.b.b.m.V.Z.A.A.A.Z.A.F.Y.Q._._./.~.E.P.Z.Z.Z.Z.v.>.>.>.>.>.>.>.>.>.>.>.",
">.>.>.>.>.>.>.>.>.>.>.>.>.>.>.>.>.>.>.>.>.>.>.>.>.>.>.>.v.b.m.b.Z.Z.Z.V.Z.Z.P.E./.).].{.[.].).~.Y.Z.b.m.b.>.>.>.>.>.>.>.>.>.>.>.",
">.>.>.>.>.>.>.>.>.>.>.>.>.>.>.>.>.>.>.>.>.>.>.>.>.>.>.>.v.b.b.m.b.V.b.Z.F.P.E./.).].|.oXoX X[.`./.Y.Z.b.b.>.>.>.>.>.>.>.>.>.>.>.",
">.>.>.>.>.>.>.>.>.>.>.>.>.>.>.>.>.>.>.>.>.>.>.>.>.>.>.v.b.b.b.m.b.b.Z.Z.I.E.Q._.).[.{. XoX#X.X[.).E.H.m.v.>.>.>.>.>.>.>.>.>.>.>.",
">.>.>.>.>.>.>.>.>.>.>.>.>.>.>.>.>.>.>.>.>.>.>.>.>.>.>.b.b.b.m.b.b.Z.H.H.Y.E.^._.'.`.).).XXoX X[.)./.Y.Z.v.>.>.>.>.>.>.>.>.>.>.>.",
">.>.>.>.>.>.>.>.>.>.>.>.>.>.>.>.>.>.>.>.>.>.>.>.>.>.b.n.v.b.b.b.Z.A.H.P.E.Q./._./.Q.Q./.[.XX|.]./.Y.I.F.v.>.>.>.>.>.>.>.>.>.>.>.",
">.>.>.>.>.>.>.>.>.>.>.>.>.>.>.>.>.>.>.>.>.>.>.>.>.>.v.v.b.b.b.Z.F.H.H.Y.E.^.Q.E.Y.E.~.).[.oX{.].Q.A.A.A.b.>.>.>.>.>.>.>.>.>.>.>.",
">.>.>.>.>.>.>.>.>.>.>.>.>.>.>.>.>.>.>.>.>.>.>.>.>.v.v.b.b.b.m.Z.F.H.Y.E.Q.Y.P.Y.Q./.).[.{.oXoX[./.Y.Z.Z.b.>.>.>.>.>.>.>.>.>.>.>.",
">.>.>.>.>.>.>.>.>.>.>.>.>.>.>.>.>.>.>.>.>.>.>.>.>.v.b.b.b.m.Z.D.Y.Y.E.Y.H.H.E.Q._.].[.{.oX#XoX|.).^.H.V.b.b.>.>.>.>.>.>.>.>.>.>.",
">.>.>.>.>.>.>.>.>.>.>.>.>.>.>.>.>.>.>.>.>.>.>.>.b.b.b.b.b.Z.L.Y.Y.Y.F.A.H.E.~.).].{.oX#X@X@X#XoX[.(.E.A.b.v.>.>.>.>.>.>.>.>.>.>.",
">.>.>.>.>.>.>.>.>.>.>.>.>.>.>.>.>.>.>.>.>.>.>.>.b.b.b.b.Z.Y.Q.Y.H.Z.m.H.E.(.'.[..X#X#X@X@X@X@X#X|.'.^.H.b.v.>.>.>.>.>.>.>.>.>.>.",
">.>.>.>.>.>.>.>.>.>.>.>.>.>.>.>.>.>.>.>.>.>.>.v.b.b.b.Z.Y.Q.Y.Z.b.m.H.E.(.'.|..X@X@X@X@X@X@X@X#X|.'._.Y.Z.b.>.>.>.>.>.>.>.>.>.>.",
">.>.>.>.>.>.>.>.>.>.>.>.>.>.>.>.>.>.>.>.>.>.v.b.b.b.Z.D.Y.H.Z.b.Z.P.E.(.].|..X@X@X@X@X@X@X@X@X#X.X[.).Y.Z.v.>.>.>.>.>.>.>.>.>.>.",
">.>.>.>.>.>.>.>.>.>.>.>.>.>.>.>.>.>.>.>.>.b.b.b.b.m.b.Z.Z.M.b.Z.U.!._.].{.oX@X@X@X@X@X@X@X@X+X+X.X]._.^.A.b.>.>.>.>.>.>.>.>.>.>.",
">.>.>.>.>.>.>.>.>.>.>.>.>.>.>.>.>.>.>.>.b.b.b.b.b.m.b.m.v.M.Z.Y.!._.].{.oX#X@X@X@X@X@X@X@X@X@X+X|.]._.Q.H.v.>.>.>.>.>.>.>.>.>.>.",
">.>.>.>.>.>.>.>.>.>.>.>.>.>.>.>.>.>.>.>.b.b.b.b.b.b.b.b.v.M.H.!._.].{.oX#X@X@X@X@X@X@X@X@X@X+X+X{.]._.^.H.v.>.>.>.>.>.>.>.>.>.>.",
">.>.>.>.>.>.>.>.>.>.>.>.>.>.>.>.>.>.>.>.v.v.b.v.b.b.v.m.S.K.U.!._.].{.oX#X+X@X@X@X@X@X@X@X@X+XoX}.)./.Q.S.v.>.>.>.>.>.>.>.>.>.>."
};
