/* XPM */
static char *result[] = {
/* columns rows colors chars-per-pixel */
"64 64 96 2 ",
"   c #000000",
".  c #01060C",
"X  c #070A09",
"o  c #0A0A0A",
"O  c #0D0E11",
"+  c #0E1213",
"@  c #141414",
"#  c #171718",
"$  c #181718",
"%  c #161819",
"&  c #1C1D1C",
"*  c #201F1E",
"=  c #1D211D",
"-  c #20201E",
";  c #1E1F21",
":  c #1F2121",
">  c #232424",
",  c #272827",
"<  c #282728",
"1  c #2B2C2B",
"2  c #2F2F30",
"3  c #312F30",
"4  c #343433",
"5  c #383738",
"6  c #373939",
"7  c #3B3C3C",
"8  c #40403F",
"9  c #3F3E40",
"0  c #424343",
"q  c #4A4B4B",
"w  c #505050",
"e  c gray39",
"r  c #757676",
"t  c #229D6E",
"y  c #848585",
"u  c #898989",
"i  c gray57",
"p  c #9A9B9B",
"a  c #9FA09F",
"s  c #9EA1A0",
"d  c #A3A4A4",
"f  c #A7A8A7",
"g  c #A7AEAB",
"h  c #ACACAC",
"j  c #B0AEAF",
"k  c #AEB0AF",
"l  c #B1B1AF",
"z  c #AFAFB0",
"x  c #B1AFB0",
"c  c #AFB0B1",
"v  c #B3B4B4",
"b  c #B6B9B6",
"n  c #B9B9B7",
"m  c #B6B7B8",
"M  c #B9B6B9",
"N  c #B7B9B9",
"B  c #BCBCBC",
"V  c #C0BEBF",
"C  c #BEC1BF",
"Z  c #BEBEC0",
"A  c #C1BFC1",
"S  c #BFC1C1",
"D  c #C3C3C3",
"F  c #C8C7C7",
"G  c #C7C8C7",
"H  c #C9C8C7",
"J  c #C6C7C8",
"K  c #C7C8C9",
"L  c #CBCCCC",
"P  c #D0CFCF",
"I  c #CED0CE",
"U  c #D1CFD4",
"Y  c #CFD2D1",
"T  c #D3D3D3",
"R  c #D8D7D7",
"E  c #D8DAD7",
"W  c #D5D6D8",
"Q  c #DBD7D9",
"!  c #D7D9D8",
"~  c #DCDCDC",
"^  c #E0DEDF",
"/  c #E0E1DF",
"(  c #DEE2E0",
")  c #E3E4E3",
"_  c #E9E7E7",
"`  c #E7E8E7",
"'  c #E9E9E7",
"]  c #E7EAEA",
"[  c #EBECEB",
"{  c #EFF0ED",
"}  c #EFF5F2",
"|  c #F4F4F3",
" . c #F8F7F5",
".. c #F9F9F7",
"X. c #F8F7F9",
"o. c #FCFDFC",
/* pixels */
"t t t t t t t t t t t t t t t t t t t t t t t t t t t t t t t t t t t t t t t t t t t t t t t t t t t t t t t t t t t t t t t t ",
"t t t t t t t t t t t t t t t t t t t t t t t t t t t t t t t t t t t t t t t t t t t t t t t t t t t t t t t t t t t t t t t t ",
"t t t t t t t t t t t t t t t t t t t t t t t t t t t t t t t t t t t t t t t t t t t t t t t t t t t t t t t t t t t t t t t t ",
"t t t t t t t t t t t t t t t t t t t t t t t t t t t t t t t t t t t t t t t t t t t t t t t t t t t t t t t t t t t t t t t t ",
"t t t t t t t t t t t t t t t t t t t t t t t t t t t t t t t t t t t t t t t t t t t t t t t t t t t t t t t t t t t t t t t t ",
"t t t t t t t t t t t t t t t t t t t t t t t t t t t t t t t t t t t t t t t t t t t t t t t t t t t t t t t t t t t t t t t t ",
"t t t t t t t t t t t t t t t t t t t t t t t t t t t t t t t t t t t t t t t t t t t t t t t t t t t t t t t t t t t t t t t t ",
"t t t t t t t t t t t t t t t t t t t t t t t t t t t t t t t t t t t t t t t t t t t t t t t t t t t t t t t t t t t t t t t t ",
"t t t t t t t t t t t t t t t t t t t t t t t t t t t t t t t t t t t t t t t t t t t t t t t t t t t t t t t t t t t t t t t t ",
"t t t t t t t t t t t t t t t t t t t t t t t t t t t t t t t t t t t t t t t t t t t t t t t t t t t t t t t t t t t t t t t t ",
"t t t t t t t t t t t t t t t t t t t t t t t t t t t t t t t t t t t t t t t t t t t t t t t t t t t t t t t t t t t t t t t t ",
"t t t t t t t t t t t t t t t t t t t t t t t t t t t t t t t t t t t t t t t t t t t t t t t t t t t t t t t t t t t t t t t t ",
"t t t t t t t t t t t t t t t t t t t t t t t t t t t t t t t t t t t t t t t t t t t t t t t t t t t t t t t t t t t t t t t t ",
"t t t t t t t t t t t t t t t t t t t t t t t t t t t t t t t t t t t t t t t t t t t t t t t t t t t t t t t t t t t t t t t t ",
"t t t t t t t t t t t t t t t t t t t t t t t t t t t t t t t t t t t t t t t t t t t t t t t t t t t t t t t t t t t t t t t t ",
"t t t t t t t t t t t t t t t t t t t t t t t t t t t t t t t t t t t t t t t t t t t t t t t t t t t t t t t t t t t t t t t t ",
"t t t t t t t t t t t t t t t t t t t t t t t t t t t t t t t t t t t t t t t t t t t t t t t t t t t t t t t t t t t t t t t t ",
"t t t t t t t t t t t t t t t t t t t t t t t t t t t t t t t t t t t t t t t t t t t t t t t t t t t t t t t t t t t t t t t t ",
"t t t t t t t t t t t t t t t t t t t t t t t t t t t t t t t t t t t t t t t t t t t t t t t t t t t t t t t t t t t t t t t t ",
"t t t t t t t t t t t t t t t t t t t t t t t t t t t t t                 t t t t t t t t t t t t t t t t t t t t t t t t t t t ",
"t t t t t t t t t t t t t t t t t t t t t t t t t t t t         . . .       t t t t t t t t t t t t t t t t t t t t t t t t t t ",
"t t t t t t t t t t t t t t t t t t t t t t t t t t t           . o O O       t t t t t t t t t t t t t t t t t t t t t t t t t ",
"t t t t t t t t t t t t t t t t t t t t t t t t t t         . X + : 1 < $ O     t t t t t t t t t t t t t t t t t t t t t t t t ",
"t t t t t t t t t t t t t t t t t t t t t t t t t t         + > > 4 8 8 3 %     t t t t t t t t t t t t t t t t t t t t t t t t ",
"t t t t t t t t t t t t t t t t t t t t t t t t t       X o % , , 5 0 q 7 :     t t t t t t t t t t t t t t t t t t t t t t t t ",
"t t t t t t t t t t t t t t t t t t t t t t t t t     o @ @ & & = 1 6 8 6 &     t t t t t t t t t t t t t t t t t t t t t t t t ",
"t t t t t t t t t t t t t t t t t t t t t t t t t   X @ > 1 4 5 4 1 1 2 1 @     t t t t t t t t t t t t t t t t t t t t t t t t ",
"t t t t t t t t t t t t t t t t t t t t t t t t t   o @ @ & 5 q q 0 1 & @ X     t t t t t t t t t t t t t t t t t t t t t t t t ",
"t t t t t t t t t t t t t t t t t t t t t t t t     & @ o o & 4 9 q 7 * % o     t t t t t t t t t t t t t t t t t t t t t t t t ",
"t t t t t t t t t t t t t t t t t t t t t t t     & 1 # @ ; & - > 5 7 1 $ o     t t t t t t t t t t t t t t t t t t t t t t t t ",
"t t t t t t t t t t t t t t t t t t t t t t t     : $ @ ; 2 4 1 & & > < $ o     t t t t t t t t t t t t t t t t t t t t t t t t ",
"t t t t t t t t t t t t t t t t t t t t t t t   # ; @ # 1 7 7 4 * @ @ & $     t t t t t t t t t t t t t t t t t t t t t t t t t ",
"t t t t t t t t t t t t t t t t t t t t t t   o & % @ > 7 0 7 2 * $ * & @     t t t t t t t t t t t t t t t t t t t t t t t t t ",
"t t t t t t t t t t t t t t t t t t t t t t   & 2 0 e y u u r w 7 3 1 $     t t t t t t t t t t t t t t t t t t t t t t t t t t ",
"t t t t t t t t t t t t t t t t t t t t t     u a f h h h h h f a i r 0   t t t t t t t t t t t t t t t t t t t t t t t t t t t ",
"t t t t t t t t t t t t t t t t t t t t d d h f h h h h h k c b v x h d s t t t t t t t t t t t t t t t t t t t t t t t t t t t ",
"t t t t t t t t t t t t t t t t t t t a d h v v b v b v n n B C Z Z m v h h t t t t t t t t t t t t t t t t t t t t t t t t t t ",
"t t t t t t t t t t t t t t t t t t t d f h b B N B B B B D D J J D S B m v h t t t t t t t t t t t t t t t t t t t t t t t t t ",
"t t t t t t t t t t t t t t t t t t p p h v B B C A Z Z J G L P L L D B B m h z h t t t t t t t t t t t t t t t t t t t t t t t ",
"t t t t t t t t t t t t t t t t t t p d k n B C Z Z B D J J L L T I L A N N b c h k t t t t t t t t t t t t t t t t t t t t t t ",
"t t t t t t t t t t t t t t t t t p p d c b N B B B B B Z D J J L L I L G D C N v h h t t t t t t t t t t t t t t t t t t t t t ",
"t t t t t t t t t t t t t t t t t p p h z v M B m m m B B B B A D L I I T L L G D N v h t t t t t t t t t t t t t t t t t t t t ",
"t t t t t t t t t t t t t t t t d a d f j v b b b v v v v b b B D J L L L L L L F D B v k t t t t t t t t t t t t t t t t t t t ",
"t t t t t t t t t t t t t t t t f f f f j x v v v v x v v v v M C D L L L L D D D D J A v k t t t t t t t t t t t t t t t t t t ",
"t t t t t t t t t t t t t t t t h h f h j x v x x x h x j v m N B J L L L J D D D D J J C v g t t t t t t t t t t t t t t t t t ",
"t t t t t t t t t t t t t t t t t h h h j j x x z h h h x v b N D D K K J A A D D D D A D B v g t t t t t t t t t t t t t t t t ",
"t t t t t t t t t t t t t t t t t h h h h h h h h h h h j v n B C D J J D D A V Z Z Z A S C B v g t t t t t t t t t t t t t t t ",
"t t t t t t t t t t t t t t t t t t h h h h h f h h h z x v M B D D D D A V V B A J L J D B n b c g t t t t t t t t t t t t t t ",
"t t t t t t t t t t t t t t t t t t h f h h h f h h h h x v N V S D A D A V D L T R E E T L F N b k g t t t t t t t t t t t t t ",
"t t t t t t t t t t t t t t t t t t t h g h h h h h h h v b B A A Z D B D F L R ^ / / ) / ~ ~ T S b g k t t t t t t t t t t t t ",
"t t t t t t t t t t t t t t t t t t t t f f h h h h h l v M A B B Z B D L T ~ ( ) [ [ [ [ ' ) ~ Y J b g h t t t t t t t t t t t ",
"t t t t t t t t t t t t t t t t t t t t t h h f h h h j v n M n N B J L W ~ ) ) [ [ [ [ { [ ] ~ T L S c h t t t t t t t t t t t ",
"t t t t t t t t t t t t t t t t t t t t t t f h h h h h v v v n B D L T ~ ^ ) ) / / ' [ [ [ ` ~ L S B m h t t t t t t t t t t t ",
"t t t t t t t t t t t t t t t t t t t t t t t h h h h j h l b N S L T ! Q ~ ~ ~ ^ / ) ' [ ' ( W J N b b h t t t t t t t t t t t ",
"t t t t t t t t t t t t t t t t t t t t t t t t h h h h j v b B J L T T T T T W ^ ) ' [ [ ` ( ! L S v l h t t t t t t t t t t t ",
"t t t t t t t t t t t t t t t t t t t t t t t t h f h h h b N D H L L J L L W ~ ) ' [ { [ ] ` ^ T J N k h t t t t t t t t t t t ",
"t t t t t t t t t t t t t t t t t t t t t t t t h f h h v N A F D D D H P E ^ ) [ { | | | { ' ` ~ U D b h j t t t t t t t t t t ",
"t t t t t t t t t t t t t t t t t t t t t t t t h h h x B A D B V D H P E / [ { |  . . . .| | [ ) Q L B z h t t t t t t t t t t ",
"t t t t t t t t t t t t t t t t t t t t t t t h h h v B D A B n B H T ^ _ [ {  .o.o.o.o.o.X. .| ' ^ T D h h t t t t t t t t t t ",
"t t t t t t t t t t t t t t t t t t t t t t h h h x n B V n v B F T / _ { | ..o.o.o.o.o.o. . .| [ ) W F z x t t t t t t t t t t ",
"t t t t t t t t t t t t t t t t t t t t t h h h h x x b v l b D T ~ ] } X.o.o.o.o.o.o.o.o.X.X.| [ ) R L z h t t t t t t t t t t ",
"t t t t t t t t t t t t t t t t t t t t t h h h z h h x j v D L ~ ] [  .X.o.o.o.o.o.o.o.o.o.o.| [ ) Q P v h t t t t t t t t t t ",
"t t t t t t t t t t t t t t t t t t t t h f h h h h h j k N L ! ) [ | X.o.o.o.o.o.o.o.o.o.o.X.| [ ^ W L z h t t t t t t t t t t ",
"t t t t t t t t t t t t t t t t t t t t h h h f g h h c B S L E ) {  ...o.o.o.o.o.o.o.o.o.X.X.} ] ~ T L z z t t t t t t t t t t "
};
