/* XPM */
static char *result[] = {
/* columns rows colors chars-per-pixel */
"64 64 208 2 ",
"   c #020400",
".  c #0B0400",
"X  c #010C01",
"o  c #0B0B04",
"O  c #0D0C08",
"+  c #130402",
"@  c #1D0102",
"#  c #110A05",
"$  c #180A07",
"%  c #1E0B0A",
"&  c #1A0809",
"*  c #001202",
"=  c #001A04",
"-  c #081209",
";  c #011B0B",
":  c #0A180B",
">  c #15120D",
",  c #1A120C",
"<  c #061E11",
"1  c #220205",
"2  c #220807",
"3  c #220509",
"4  c #2D040B",
"5  c #220D0D",
"6  c #2C0A0C",
"7  c #2F0506",
"8  c #3D060D",
"9  c #340A0E",
"0  c #3B0A0E",
"q  c #340004",
"w  c #2C0F12",
"e  c #320710",
"r  c #320C14",
"t  c #3D0B11",
"y  c #3C0614",
"u  c #351215",
"i  c #3D1113",
"p  c #3F111B",
"a  c #3D191D",
"s  c #00220C",
"d  c #002411",
"f  c #002912",
"g  c #0D2515",
"h  c #073C22",
"j  c #42050E",
"k  c #4D020C",
"l  c #430A0F",
"z  c #4B090E",
"x  c #510A08",
"c  c #51040E",
"v  c #43100F",
"b  c #440612",
"n  c #4B0612",
"m  c #440C13",
"M  c #4B0C15",
"N  c #460B19",
"B  c #4D0D1A",
"V  c #540413",
"C  c #590716",
"Z  c #530C16",
"A  c #5A0916",
"S  c #5A0719",
"D  c #540D19",
"F  c #5B0D1A",
"G  c #54051A",
"H  c #431216",
"J  c #4B1116",
"K  c #461219",
"L  c #4C1219",
"P  c #521216",
"I  c #53121B",
"U  c #5B111C",
"Y  c #5F181C",
"T  c #6B0E16",
"R  c #660518",
"E  c #630E1C",
"W  c #6B0D1C",
"Q  c #630B17",
"!  c #601114",
"~  c #63121E",
"^  c #6C121E",
"/  c #72101F",
"(  c #7D171F",
")  c #560F21",
"_  c #4D1221",
"`  c #561420",
"'  c #5C1321",
"]  c #5D1921",
"[  c #6D0D28",
"{  c #720F23",
"}  c #641422",
"|  c #6C1423",
" . c #641A26",
".. c #691925",
"X. c #671629",
"o. c #681B2C",
"O. c #721524",
"+. c #7A1424",
"@. c #751924",
"#. c #7A1A26",
"$. c #73152A",
"%. c #741A2A",
"&. c #7D1B2B",
"*. c #7C152A",
"=. c #73242D",
"-. c #752130",
";. c #7C2430",
":. c #11452E",
">. c #134730",
",. c #184C36",
"<. c #0C5335",
"1. c #18583D",
"2. c #115234",
"3. c #314E3A",
"4. c #22543B",
"5. c #09633F",
"6. c #1F5E41",
"7. c #0F6945",
"8. c #196946",
"9. c #1A6745",
"0. c #17734F",
"q. c #1D714F",
"w. c #1F7351",
"e. c #1F7954",
"r. c #1F7D58",
"t. c #246B4E",
"y. c #286A4F",
"u. c #256147",
"i. c #306048",
"p. c #206F50",
"a. c #356C52",
"s. c #227553",
"d. c #287757",
"f. c #247A57",
"g. c #2B7558",
"h. c #237D5A",
"j. c #2B7D5C",
"k. c #307056",
"l. c #317B5C",
"z. c #3A7B5D",
"x. c #327E60",
"c. c #3A7F60",
"v. c #841525",
"b. c #8D1424",
"n. c #841A26",
"m. c #8D162A",
"M. c #841B2B",
"N. c #8C1B2B",
"B. c #921C2D",
"V. c #991D28",
"C. c #921928",
"Z. c #8B1E33",
"A. c #961D33",
"S. c #981934",
"D. c #9C1533",
"F. c #90202E",
"G. c #8E2438",
"H. c #862133",
"J. c #90243C",
"K. c #0F8F5F",
"L. c #1D845B",
"P. c #1C895F",
"I. c #23835D",
"U. c #2A825E",
"Y. c #1C8E62",
"T. c #0E9C6A",
"R. c #169665",
"E. c #1D9365",
"W. c #149B66",
"Q. c #1A9A66",
"!. c #1E966A",
"~. c #159D6A",
"^. c #1D9D6C",
"/. c #1D9E71",
"(. c #258760",
"). c #2C8561",
"_. c #238B62",
"`. c #298D66",
"'. c #2A8B68",
"]. c #388768",
"[. c #338D6A",
"{. c #388969",
"}. c #209467",
"|. c #25956A",
" X c #29956C",
".X c #229D6E",
"XX c #2A9A6E",
"oX c #32936C",
"OX c #259E71",
"+X c #2B9D71",
"@X c #319B72",
"#X c #15A36D",
"$X c #1CA16E",
"%X c #17A471",
"&X c #1DA371",
"*X c #17AB73",
"=X c #1BA973",
"-X c #1BAB78",
";X c #21A06E",
":X c #21A86E",
">X c #23A272",
",X c #2BA274",
"<X c #23AA75",
"1X c #2CA778",
"2X c #2BAB7A",
"3X c #24A97A",
"4X c #36A278",
"5X c #29B17F",
/* pixels */
".X.X.X.X.X.X.X.X.X.X.X.X.X.X.X.X.X.X.X.X.X.X.X.X.X^.$X.XXX.X~.=X.X+X.X^.&X^.$X&X.X.X.X.X.X.X.X.X.X.X.X.X.X.X.X.X.X.X.X.X.X.X.X.X",
".X.X.X.X.X.X.X.X.X.X.X.X.X.X.X.X.X.X.X.X.X.X.X.X.X^.^.^..X+X.X$X,X.XQ.^.>X.X}.>X.X.X.X.X.X.X.X.X.X.X.X.X.X.X.X.X.X.X.X.X.X.X.X.X",
".X.X.X.X.X.X.X.X.X.X.X.X.X.X.X.X.X.X.X.X.X.X.X.X.X.X$X^.}.+X.X X~.$X^..X.X+XXX@X.X.X.X.X.X.X.X.X.X.X.X.X.X.X.X.X.X.X.X.X.X.X.X.X",
".X.X.X.X.X.X.X.X.X.X.X.X.X;X.X.X.X.X.X.X.X.X.X.X X.X>X;X^.>X.X.X|.,X,X,X}.&X$X&X.X.X.X;X.X.X.X.X.X.X.X.X.X.X.X.X.X.X.X.X.X.X.X.X",
".X.X.X.X.X.X.X.X.X.X.X.X.X.X.X.X.X.X.X.X.X.X.X.X^.;X^.>X~.$X^.~.%XW.~.>X.X$XW.-X.X.X.X.X.X.X.X.X.X.X.X.X.X.X.X.X.X.X.X.X.X.X.X;X",
".X.X.X.X.X.X.X.X.X.X.X.X.X.X.X.X.X.X.X.X.X.X.X.X$X>XP.oXoXoX'.'._.P.I.(._.4X}.Q..X.X.X.X.X.X.X.X.X.X.X.X;X.X.X.X.X.X.X.X.X.X.X.X",
".X.X.X.X.X.X.X.X.X.X.X.X.X.X.X.X.X.X.X.X.X.X.X.X>Xr.s X       . + # o X d j.oX,X.X.X.X.X.X.X.X.X.X.X.X.X.X.X.X.X.X.X.X.X.X.X.X.X",
".X.X.X.X.X.X.X.X.X.X.X.X.X.X.X.X.X.X.X.X.X.X.X.X_.a.# N o.$.[ [ _ B B y @ $   X .X.X.X.X.X.X.X.X.X.X.X.X.X.X.X.X.X.X.X.X.X.X.X.X",
".X.X.X.X.X.X.X.X.X.X.X.X.X.X.X.X:X!.XXOX>X|.a.  1 e N } #.n.C.V.N.b.v.+.} Z 7 1 X ].$X^.%X+XW.$X;X.X.X.X.X.X.X.X.X.X.X.X.X.X.X.X",
".X.X.X.X.X.X.X.X.X.X.X.X.X.X.X.XQ.,X!..X X= > N K m Z E @.n.n.n.B.m.m.N.Z.&...U @ : f.oXOX X=X;X.X.X.X.X.X.X.X.X.X.X.X.X.X.X.X.X",
".X.X.X.X.X.X.X.X.X.X.X.X.X.X.X.X;X^.~.OXl.  U S.;.@.Q W ^ O.%.=.&.M.Z.A.V.B.N.B.%.q O * '.>X$XXX.X.X.X.X.X.X.X.X.X.X.X.X.X.X.X.X",
"^.OX.X.X.X.X.X.X.X.X.X.X;X.X.X.X~.%X>X(.* a { D.N.N.N.n.O.E I ` I ~ $.M.N.b.C.F.S.*.m   ].;X$XXX.X.X.X.X.X.X.X.X.X.X.X.X.X.X.X.X",
".X.X.X.X.X.X.X.X.X.X.X.X.X.X.X.X&XOX'.= + j H.b.b.C.A.N.O.V n b K m A ^ M.F.F.F.A.G.F $ k.3XW.|..X.X.X.X.X.X.X.X.X.X.X.X.X.X.X.X",
".X.X.X.X.X.X.X.X.X.X.X.X.X.X.X.X^.oXX @ k | #.n.C.N.M.M.+.E C D M Z A / n.N.N.M.&.Q F @ X R.&X+X.X.X.X.X.X.X.X.X.X.X.X.X.X.X;X.X",
".X.X.X.X.X.X.X.X.X.X.X.X.X.XOX^.=X{.  _ X.E #.;.%.#.#.&.&.$.| } T ^ ( +.+./ | | F ! ~ + X ,X^..X.X.X.X.X.X.X.X.X.X.X.X.X.X.X.X.X",
".X.X.X.X.X.X.X.X.X.X.X.X.X.X.X.X%Xj.O y  . .^ T  .~ Q W O.+.+.+.( ( v.n.+.} U I x P I 2   `.4X!..X.X.X.X.X.X.X.X.X.X.X.X.X.X.X.X",
".X.X.X.X.X.X.X.X.X.X.X^.>X.X.X.X^.e.+ m L Y U F J M M I I F F } ~ ~ ~ ~ F I Z l Z J Z 6    XOX^..X.X.X.X.X.X.X.X.X.X.X.X.X.X.X.X",
";X.X.X.X.X.X.X.X.X.X.X.X.X.X.X.X^.e.o N L U U A m M M M B D D U ~ ~ ~ ! F U P z Z L D 6   |.&X/..X.X.X.X.X.X.X.X.X.X.X.X.X.X.X.X",
".X.X.X.X.X.X.X.X.X.X.X.X.X.X.X.X>Xf.o N L I D Z m 0 m M b M M P I F F F F ! Z l Z L D 6   |.>X^..X.X.X.X.X.X.X.X.X.X.X.X.X.X.X.X",
".X.X.X.X.X.X.X.X.X.X.X.X.X.X.X.X.Xf.+ m M A I Z t m l m m b l M Z P U Z U P L b M K C e . _.,X!..X.X.X.X.X.X.X.X.X.X.X.X.X.X.X.X",
".X.X.X.X.X.X.X.X.X.X.X.X.X.X.X.XOXs.. m M P Z P H m N H H l m M M P Z U U D M M L J C 9 + L.,X.X.X.X.X.X.X.X.X.X.X.X.X.X.X.X.X.X",
".X.X.X.X.X.X.X.X.X.X.X.X.X.X.X.X^.e.. m m M M P B M m J J N m J M M Z I D M L L M H A t $ 0.OX.X.X.X.X.X.X.X.X;X.X.X.X.X.X.X.X.X",
".X.X.X.X.X.XOX.X.X.X.X.X.X.X.X.X.Xs.. m m M L P L M b J M M M H H m M I Z M M L J m F t % 7..X.X.X.X.X.X.X.X.X.X.X.X.X.X;X.X.X.X",
".X.X.X.X.X.X.X.X.X.X.X.X.X.X.X.X.Xs.. m m z M L M M z b J M m m m m M M M M b L L t C N 5 5. X.X.X.X.X.X.X.X.X.X.X.X.X.X.X.X.X.X",
".X.X.X.X.X.X.X.X.X.X.X.X.X.X.X.X.Xg.1 w N 0 H k l t 0 j j b M M M b b H m l m H M D N @ < g..X$X.X.X.X.X.X.X.X.X.X.X.X.X.X.X.X.X",
".X.X.X.X.X.X.X.X.X.X.X.X.X.X.X.XQ.(.. @ B m 0 l 0 m t m H m H m m j 0 i t 0 b m l N 3 < g.+X>X#X.X.X.X.X.X.X.X.X.X.X.X.X.X.X.X.X",
".X.X.X.X.X.X.X.X.X.X.X.X.X.X.X.X<XY.= X 1 b P z l j 8 8 8 j H H m t H i m 8 0 l C K O p.^.%X&X>X.X.X.X.X.X.X.X.X.X.X.X.X.X.X.X.X",
".X.X.X.X.X.X.X.X.X.X.X.X.X.X;X.X+X>X'.g.> N -.@. .~ Z n j l l l l l l m m M I U $.` O [.T.~.+X X.X.X.X.X.X.X.X.X.X.X.X.X.X.X.X.X",
".X.X.X.X.XOX.X.X.X.X.X.X.X.X.X.XY.^.5Xp.o b O./ O.$.O.| } U I Z F U Z Z Z Z ~ } | } # p.3X!.@XXX.X.X.X.X.X.X.X.X.X.X.X.X.X.X.X.X",
"^..X.X.X.X.X.X.X.X.X.X.X.X.X.X.X<X.XK.= + F F ~ ^ ^ O.| | | ..^ %...~ F V c A ~ Z ` & p.&X;XXX$X.X.X.X.X.X.X.X.X.X.X.X.X.X.X^..X",
".X;X.X.X.X.X.X.X.X.X.X.X.X.X.X.XW.@X XX w ) S ] } ~ ~ ! E F ~ ^ ^ ~ ~ I P z Z I I Z + I.T.,X X~..X.X.X.X.X.X.X.X.X.X.X.X.X.X>X.X",
".X.X.X.X.X.X.X.X.X.X.X.X.X.X.X.X.X[.@X  @ G O.~ U U I U U U F F F A Y P v i l v U S & 0.-X!.+X;X.X.X.X.X.X.X.X.X.X.X.X.X.X.X.X.X",
"OX^..X.X.X.X.X.X.X.X.X.X.X.X.X.XXX&X XX 4 M } ^ } } ~ ~ U U U F ~ U F U D M b t M D 2 6.+X XXX/.OX.X.X.X.X.X.X.X.X^..X.X.X.X.X.X",
".X.X.X.X.X.X.X.X.X.X.X.X.X.X.X.X X~.|.; 1 M U ! F F F F F F ' Y F D D Z D M m m 0 I , 8.&X&X/.&XOX^..X.X.X.X.X.X.X.X.X.X.X.X.X.X",
".X.X.X.X.X.X.X.X.X.X.X.X.X.X.X.X.X$X+X,.% K L P M D D D F ' } } U D M M L N m H b H o 9.$X*X~./..X.X.X.X.X.X.X.X.X.X.X.X.X.XOX.X",
".X.X.X.X.X.X.X.X.X.X.X.X.X.X.X.X.X~.>Xy.O K J v L I I U U U ~ } I L M N H m M M P M 9 3.e.2X^.^..X.X.X.X.X.X.X.X.X.X.X.X.X.X.X.X",
".X.X.X.X.X.X.X.X.X.X.X.X.X.X.X.X;XQ.^.d.  m M H L J M P U U F F L M m t l M M n A E } K = I..XOX.X.X.X.X.X.X.X.X.X.X.X.X.X.X.X.X",
".X.X.X.X.X.X.X.X.X.X.X.X.X.X.X.X;X$X>Xj.  n V j b M M M P Z Z Z M M t t j l Z A E $.J.$.+ l..X+X.XOX.X.X.X.X.X.X.X.X.X.X.X.X.X.X",
".X.X.X.X.X.X.X.X.X.X.X.X.X.X.X.X^.^.>Xh.o F W z M M z M M L M M Z M m m M n F } O.O.*.$.+ d.^..X.X.X.X.X.X.X.X.X.X.X.X.X.X.X.X.X",
".X.X.X.X.X.X.X.X.X.X.X.X.X.X.X.X$X/..Xw.O $.Z.=.] I M M J J J l M M L L L F } $.O.} S Y . L.*X.X.X.X.X.X.X.X.X.X.X.X.X.X.X.X.X.X",
".X.X.X.X.X.X.X.X.X.X.X.X.X.X.X.X.X>X|.  b H U | U A F ~ ^ ^ ^ ^ O.O.%.$.O.| } ..~ E Z D   ). X X.X.X.X.X.X.X.X.X.X.X.X.X.X.X.X.X",
".X.X.X.X.X.X.X.X.X.X.X.X.X.X.X.X.XOXY.  N H F U P L J P I I U P E W | | E ! F F Z D I ` . I.+XOX.X.X.X.X.X.X.X.X.X.X.X.X.X.X^..X",
".X.X.X.X.X.X.X.X.X.X.X.XOX.X.X.X.XOXY.  B L D D L z 0 l l l l v A F E ~ ~ U Z Z m M I D o f./.&X.X.X.X.X.X.X.X.X.X.X.X.XOX.X.X.X",
".X.X.X.X.X.X.X.X.X.X.X.X.X.X.X.X.X^.Y.  M K Z D P J l j l 0 0 0 z n Z F U U P L t B n D . h.^.%XOX^..X.X.X.X.X.X.X.X.X.X.X.X.X.X",
".X.X.X.X.X.X.X;X.X.X.X.X.X.X.X.X.XOX_.  n m M I I Z M M M m l j l l z M P I L M J D M } . x.!./..X.X.X.X.X.X.X.X.X.X.X.X.X.X.X.X",
".X.X.X.X.X.X.X.X.X.X.X.X.X.X.X.X.X.X_.. n m M L I Z Z D M M m M H H N M M M M m D Z M I   h..XOX.X.X.X.X.X.X.X.X.X.X.X.X.X.X.X.X",
".X.X.X.X.X.X.X.X.X.X.X.X.X.X.X.X/..X_.. D H b H m m m J L M M M H H J M M M M M M M t 7 g P.~.OX.X.X.X.X.X.X.X.X.X.X.X.X.X.X.X.X",
".X.X.X.X.X.X.X.X.X.X.X.X.X.X.X.X^.!._.+ ` L l 0 i 0 9 0 m b l z t m b m n M M j l L u + i.>X~./..X.X.X.X.X.X.X.X.X.X.X.X.X.X.X.X",
".X.X.X.X.X.X.X.X.X.X.X.X.X.X.X.X>X^.Y.. } ' E D N 0 0 0 i u 0 H M l l m m b m m n }  .. z.OX=X^..X.X.X.X.X.X.X.X.X.X.X.X.X.X.X.X",
".X.X.X.X.X.X.X.X.X.X.X.X.X.X.X.X.X/.Y.  F ' ` I I I L l j b l j M b l b M M M L | -. .2 4..X&X&X.X.X.X.X.X.X.X.X.X.X.X.X.X.X.X.X",
".X.X.X.X.X.X.X.X.X.X.X.X.X.X.X.X^.^.E.  F D F I E  .~ Z Z Y ~ V M M M M L L I I } } V y ; I./.^..X.X.X.X.X.X;X.X.X.X.X.X.X.X.X.X",
".X.X.X.X.X.X.X.X.X.X.X.X.X.X.X.X.X.XY.. F D D B Q ~ ~ Z F  . .~ I I I I D Z I I F S V L   j.>X.X.X.X.X.X.X.X.X.X.X.X.X.X.X.X.X.X",
".X.X.X.X.X.X.X.X.X.X.X.X.X.X.X.XOXOXY.. F L Z b F I I M M I Z Z D M M Z M M n Z F P F ` . g.>X.X.X.X.X.X.X.X.X.X.X.X.X.X.X.X.X.X",
".X.X.X.X>X^..X.X.X.X.X.X.X.X.X.XOX/.E.  F I M t I I J N v l l l b b b M b z b L V N D Z . q./.!..X.X.X.X.X.X.X.X.X.X.X.X.X.X^..X",
".X.X.X.X.X.X.X.X.X.X.X.X.X.X.X.XOX^.E.  D B B H I I J m J H M M m m m H H m m b n i L M + e.&XOX.X.X.X.X.X.X.X.X.X.X.X.X.X.XOX.X",
".X.X.X.X.X.X.X.X.X.X.X.X.X.X.X.X|.OX}.. Z B D K Z M M l l J M M m b 0 m H j 0 8 M i p B . r.&X^..X.X.X.X.X.X.X.X.X.X.X.X.X.X.X.X",
".X.X.X.X.X;X.X.X.X.X.X.X.X.X.X.X!.<X|.= 4 D N p M l m l m m m m m m M H m 0 0 t w _ G p X '.Q.OX.X.X.X.X.X.X.X.X.X.X.X.X.X.X.X.X",
".X.X.X.X.X.X.X.X.X.X.X.X.X.X.X.X^.;X!.l.O 4 G N n M M M m M m b t 0 r t 0 9 y i b b b 5 ; h.1X^..X.X.X.X.X.X.X.X.X.X.X.X.X.X.X.X",
".X.X.X.X.X.X.X.X.X.X.X.X.X.X.X.X$X.X,X;Xs.o N D m 0 0 0 0 i i H H N b b b j b m D K + * g.4X!.>X.X.X.X.X.X.X.X.X.X.X.X.X.X.X.X.X",
".X.X.X.X.X.X.X.X;X.X.X.X.X.X.X.X^..XQ.#X1X1.> e t H H N b j b N b b j j 8 8 0 t r   :.U.4XY..X!..X.X.X.X.X.X.X^.;X.X.X.X.X.X.X.X",
"OX.X.X.X.X.X.X.X.X.XOX.X.X.X.X.XXX.X.X5X^.,X<.* 3 6 y m B B G M u u 6 5 # . X   X t.+X#X$X,X.XOX.X.X.X.X.X.X.XOX.X.X.X.X.X.X.X.X",
"^..X.X.X.X.X.X.X.X.X^..X.X.X.X.X,X!.|.|.$X=X1XU.u.>.d X   X X * ; f h 2.8.U.`.@X{.,X#X*X~.>X|..X.X.X.X.X.X;X.X.X.X.X.X.X.X.X.X.X",
".X.X.X.X.X.X.X.X.X.X.X.X.X.X.X.X.X,X!.,X&X~.~.1X%X^.!. X+X+X|..X X X X.X.X;X$X^.,X^.W.$X.X.X!.<X.X.X.X.X.X.X.X.X.X.X.X.X.X.X.X.X",
".X.X.X.X.X.X.X.X.X.X.X.X.X.X.X.X$X.X.X%X~.,X!.%X$X>X>X+X X.X$X%X$X^.$X!..X>X;X.X;X.X,X@X X X&X#X.X.X.X.X.X.X.X.X.X.X.X.X.X.X.X.X"
};
