/* XPM */
static char *result[] = {
/* columns rows colors chars-per-pixel */
"64 64 172 2 ",
"   c #1E0205",
".  c #230306",
"X  c #2A0406",
"o  c #260408",
"O  c #2C050A",
"+  c #2F080C",
"@  c #320407",
"#  c #33070C",
"$  c #39070B",
"%  c #36080D",
"&  c #3B090E",
"*  c #3D0A10",
"=  c #3D1416",
"-  c #3C1E1D",
";  c #32221F",
":  c #352521",
">  c #3D2623",
",  c #382F27",
"<  c #343129",
"1  c #373F33",
"2  c #47060F",
"3  c #430A0F",
"4  c #5D070B",
"5  c #5E090E",
"6  c #430B12",
"7  c #4B0D15",
"8  c #4F0E18",
"9  c #530E16",
"0  c #5B0D16",
"q  c #530F18",
"w  c #5D0E19",
"e  c #411117",
"r  c #451519",
"t  c #4C141A",
"y  c #4B191E",
"u  c #561017",
"i  c #591017",
"p  c #56101A",
"a  c #5B111B",
"s  c #620A0F",
"d  c #640D14",
"f  c #6B0D15",
"g  c #620F1A",
"h  c #6D0F19",
"j  c #710E17",
"k  c #720F19",
"l  c #64121C",
"z  c #6B121D",
"x  c #73111C",
"c  c #7B131E",
"v  c #441E20",
"b  c #4D1D22",
"n  c #541B22",
"m  c #5C1920",
"M  c #661320",
"N  c #6D1421",
"B  c #741422",
"V  c #7B1523",
"C  c #7E1826",
"Z  c #7E1828",
"A  c #432323",
"S  c #4D2022",
"D  c #482827",
"F  c #462928",
"G  c #4E2F2D",
"H  c #4A3532",
"J  c #443B34",
"K  c #4C3A33",
"L  c #4A3E38",
"P  c #6A252C",
"I  c #652B2F",
"U  c #68282E",
"Y  c #71252E",
"T  c #7E252E",
"R  c #6B2930",
"E  c #772930",
"W  c #7F2933",
"Q  c #6F3333",
"!  c #6F3D3E",
"~  c #7B373C",
"^  c #763A3B",
"/  c #364738",
"(  c #3F473B",
")  c #364D3C",
"_  c #3A4A3B",
"`  c #3D523E",
"'  c #45433A",
"]  c #42483A",
"[  c #5A473F",
"{  c #7F3D41",
"}  c #275E44",
"|  c #2C5A43",
" . c #325540",
".. c #3F5341",
"X. c #345E47",
"o. c #3F5E48",
"O. c #226246",
"+. c #28674A",
"@. c #26684A",
"#. c #2C6B4E",
"$. c #34664C",
"%. c #3B664E",
"&. c #286F50",
"*. c #356C51",
"=. c #2D7555",
"-. c #2E7A59",
";. c #337456",
":. c #377758",
">. c #337D5B",
",. c #3D7C5D",
"<. c #444D40",
"1. c #435243",
"2. c #495042",
"3. c #425847",
"4. c #445F4C",
"5. c #4A5949",
"6. c #575847",
"7. c #5D5A4E",
"8. c #5D5F50",
"9. c #684441",
"0. c #694C47",
"q. c #724341",
"w. c #7A4646",
"e. c #615048",
"r. c #66584E",
"t. c #68594F",
"y. c #655B50",
"u. c #4E654F",
"i. c #53614E",
"p. c #59604F",
"a. c #446F56",
"s. c #506250",
"d. c #5B6253",
"f. c #576956",
"g. c #526F5A",
"h. c #47755A",
"j. c #4C745B",
"k. c #417C5E",
"l. c #457E60",
"z. c #81141F",
"x. c #821624",
"c. c #881624",
"v. c #851826",
"b. c #891926",
"n. c #831728",
"m. c #851929",
"M. c #8C1A2A",
"N. c #931C2D",
"B. c #991D2E",
"V. c #951C30",
"C. c #9A1D30",
"Z. c #85202B",
"A. c #872630",
"S. c #832C36",
"D. c #932534",
"F. c #89333C",
"G. c #823A3F",
"H. c #27875F",
"J. c #2E835E",
"K. c #34815F",
"L. c #298760",
"P. c #268B62",
"I. c #2B8D64",
"U. c #338560",
"Y. c #3E8362",
"T. c #348C66",
"R. c #269267",
"E. c #2D9067",
"W. c #269669",
"Q. c #2A956A",
"!. c #229D6D",
"~. c #28986B",
/* pixels */
"!.!.!.!.!.!.!.!.!.!.!.!.!.!.!.!.!.!.!.!.!.!.!.!.!.!.!.!.!.!.!.!.!.!.!.!.!.!.!.!.!.!.!.!.!.!.!.!.!.!.!.!.!.!.!.!.!.!.!.!.!.!.!.!.",
"!.!.!.!.!.!.!.!.!.!.!.!.!.!.!.!.!.!.!.!.!.!.!.!.!.!.!.!.!.!.!.!.!.!.!.!.!.!.!.!.!.!.!.!.!.!.!.!.!.!.!.!.!.!.!.!.!.!.!.!.!.!.!.!.",
"!.!.!.!.!.!.!.!.!.!.!.!.!.!.!.!.!.!.!.!.!.!.!.!.!.!.!.!.!.!.!.!.!.!.!.!.!.!.!.!.!.!.!.!.!.!.!.!.!.!.!.!.!.!.!.!.!.!.!.!.!.!.!.!.",
"!.!.!.!.!.!.!.!.!.!.!.!.!.!.!.!.!.!.!.!.!.!.!.!.!.!.!.!.!.!.!.!.!.!.!.!.!.!.!.!.!.!.!.!.!.!.!.!.!.!.!.!.!.!.!.!.!.!.!.!.!.!.!.!.",
"!.!.!.!.!.!.!.!.!.!.!.!.!.!.!.!.!.!.!.!.!.!.!.!.!.!.!.!.!.!.!.!.!.!.!.!.!.!.!.!.!.!.!.!.!.!.!.!.!.!.!.!.!.!.!.!.!.!.!.!.!.!.!.!.",
"!.!.!.!.!.!.!.!.!.!.!.!.!.!.!.!.!.!.!.!.!.!.!.!.!.!.!.!.!.!.!.!.!.!.!.!.!.!.!.!.!.!.!.!.!.!.!.!.!.!.!.!.!.!.!.!.!.!.!.!.!.!.!.!.",
"!.!.!.!.!.!.!.!.!.!.!.!.!.!.!.!.!.!.!.!.!.!.!.!.!.!.!.!.!.!.!.!.!.!.!.!.!.!.!.!.!.!.!.!.!.!.!.!.!.!.!.!.!.!.!.!.!.!.!.!.!.!.!.!.",
"!.!.!.!.!.!.!.!.!.!.!.!.!.!.!.!.!.!.!.!.!.!.!.!.!.!.!.!.!.!.!.k.t.f.Y.T.~.!.!.!.!.!.!.!.!.!.!.!.!.!.!.!.!.!.!.!.!.!.!.!.!.!.!.!.",
"!.!.!.!.!.!.!.!.!.!.!.!.!.!.!.!.!.!.!.!.!.!.!.!.!.!.!.!.T.t.F.C.C.B.B.Z.T 8.W.!.!.!.!.!.!.!.!.!.!.!.!.!.!.!.!.!.!.!.!.!.!.!.!.!.",
"!.!.!.!.!.!.!.!.!.!.!.!.!.!.!.!.!.!.!.!.Q.k.j.6.p.Y.t.~ D.C.C.N.N.M.B.M.n.V P 9.I.!.!.!.!.!.!.!.!.!.!.!.!.!.!.!.!.!.!.!.!.!.!.!.",
"!.!.!.!.!.!.!.!.!.!.!.!.!.!.!.!.!.!.h.q.A.M.M.b.N.M.c.N.N.B.C.B.N.V.B.M.V z h B Y T.!.!.!.!.!.!.!.!.!.!.!.!.!.!.!.!.!.!.!.!.!.!.",
"!.!.!.!.!.!.!.!.!.!.!.!.!.!.!.!.Y.p.N.c.N.M.N.N.M.M.N.c.c.c.M.M.M.C c z.z w N b.Z s.!.!.!.!.!.!.!.!.!.!.!.!.!.!.!.!.!.!.!.!.!.!.",
"!.!.!.!.!.!.!.!.!.!.!.!.!.u.^ S.B.B.B.N.N.B.c.V x.M.N.c.n.M.n.B l d 0 0 0 9 9 f N P e.,.~.~.!.!.!.!.!.!.!.!.!.!.!.!.!.!.!.!.!.!.",
"!.!.!.!.!.!.!.!.!.!.K.6.Q z.z.x.M.N.B.B.M.N.v.x c x.c.x.n.M.Z h i a 9 i d 0 7 w g B n.M.W ~ l.!.!.!.!.!.!.!.!.!.!.!.!.!.!.!.!.!.",
"!.!.!.!.!.!.!.!.!.j.b.c.c c j s z.N.B.M.b.x.x V c.c c x.V M.n.V c V B B x N N z B n.M.M.m.M.V.0.r.!.!.!.!.!.!.!.!.!.!.!.!.!.!.!.",
"!.!.!.!.!.!.!.T.g.D.N.z.z.x f 4 x b.c.c.x h V V V V f z V n.m.m.m.C B z N x h N M.M.M.n.Z N.V.m.B :.!.!.!.!.!.!.!.!.!.!.!.!.!.!.",
"!.!.!.!.!.!.T.D.N.D.N.c k V c d j z.x.x.b.x.x.x k h 0 g x V V B N g g M N 0 2 2 9 z V V m.M.M.m.V I I.!.!.!.!.!.!.!.!.!.!.!.!.!.",
"!.!.!.!.!.T.G.N.N.V.N.c.c c.b.x c c.N.M.N.b.c.c s 9 f k j x.C C B B V w 0 w 2 7 7 w C C m.n.M.M.Z Z 9.!.!.!.!.!.!.!.!.!.!.!.!.!.",
"!.!.!.~.w.D.B.B.V.N.D.M.b.M.M.x.c x.b.b.b.M.x.d d h k V k j c c.n.n.M.V h 2 2 2 d z V.V.M.m.M.M.m.Z Z E.!.!.!.!.!.!.!.!.!.!.!.!.",
"!.!.!.Y.N.N.V.V.V.N.N.N.M.M.b.V x c x.x.c x j h x V k k k f k x.V.m.M.V B g 0 g V n.M.Z.m.Z C n.m.Z N ,.!.!.!.!.!.!.!.!.!.!.!.!.",
"!.!.!.K.b.N.D.B.N.B.N.M.M.b.C x k x.b.z.c c f h j k k k f f x.c.M.M.Z B h g 0 w B V B N B Z n.n.C w q 5.!.!.!.!.!.!.!.!.!.!.!.!.",
"!.!.!.U.z C B.B.B.D.N.V.N.b.x c c M.M.C c f 5 4 f f c x j z.M.N.n.V.V B n.B w 0 g w q 2 0 B n.M.V M N R Q.!.!.!.!.!.!.!.!.!.!.!.",
"!.!.!.U.l l z C m.M.M.M.M.M.x h c v.M.c c j d s 5 d c b.c.c.M.M.N.M.n.m.n.N h N 0 7 w w 0 g N B Z m.m.m.R U Y { a.!.!.!.!.!.!.!.",
"!.!.!.K.a a a u u a B M.M.m.x.x c V M.V j d j f 5 d M.M.c.V C x.V V n.n.n.n.n.z 7 2 w z z z z x V n.M.M.n.n.V V m.8.!.!.!.!.!.!.",
"!.!.!.U.z l a p p u 7 l m.x.C B x c x.c h h c c j x b.b.B 0 0 g h x N V V n.z 9 2 7 9 0 V N.n.B N B n.M.M.M.z B m.W W.!.!.!.!.!.",
"!.!.!.E.a 9 u u t u 7 u a N B x l x c x c C M.v.x x V z g 0 0 g B x z z g g w 7 9 q 9 g x.c.C B V x N B B B B n.m.Z k.!.!.!.!.!.",
"!.!.!.R.y 6 3 u 7 7 t l u a z z z z c V C v.B b.C V B l d l l z V V N z w 8 9 w q z B N g z z a w w g N N B C V M M a.!.!.!.!.!.",
"!.!.!.R.= 3 & 7 7 7 9 9 u t a l l l V v.V z B v.C B x z a g d 0 B B B z g g z g p 7 q p q q u 6 9 q N B N N l a p q 2.!.!.!.!.!.",
"!.!.!.R.= & % 6 9 a q q 8 8 q u u a N C C Z v.b.C C V a l l 9 0 l V V V M N l a a a p p u q q * * * 9 8 6 a M q 6 6 n T.!.!.!.!.",
"!.!.!.R.= & 3 6 7 a u 7 8 u 7 q a N N z N V C T C c b.z x B d z N N B z w q 9 M l p p 8 6 6 7 u 9 6 6 6 q M p 8 8 8 q 4.!.!.!.!.",
"!.!.!.P.= 6 6 6 * 8 9 6 6 t q a l P z z l l z z N a z l l l i a l a 7 6 8 q a q 7 7 6 6 6 6 6 u M M l w M w p 7 7 8 q K !.!.!.!.",
"!.!.!.K.7 9 9 l u q 7 6 6 7 q l l l a a a a p l l u u u u u 9 u p & & 7 q q 8 8 7 7 6 * 6 6 6 6 p M B B M 8 q 8 8 p a b R.!.!.!.",
"!.!.!.;.q 9 8 9 8 8 7 + % 7 8 p z l a i l a i i u 9 l l i u 6 7 6 6 6 7 t 6 7 6 6 8 * * * * * 7 8 8 q l 8 7 q u q p q t >.!.!.!.",
"!.!.!.4.l 8 6 * 8 p 8 * 6 6 6 a z a i a a u u u i 5 9 u 9 2 3 7 6 6 6 6 3 3 * 6 6 7 8 * 6 * * 6 8 8 8 7 9 9 9 u p p 7 t %.!.!.!.",
"!.!.!._ q 8 6 6 7 q 7 * * 6 w M l i u i a a u 7 3 3 2 2 3 3 7 6 & 6 3 3 & * * 6 6 * 7 8 * * * 7 8 9 q 6 9 9 7 q q 8 8 7 ] !.!.!.",
"!.!.!.] 8 6 3 7 8 6 6 6 6 q M M i r 7 7 9 t 9 3 @ 3 @ $ & % 6 * & 6 3 3 6 6 * 6 * & * 6 * * * 7 8 q 7 6 6 7 6 7 8 6 6 7 _ !.!.!.",
"!.!.!.J w 8 8 9 2 7 6 * e w M q & @ O @ % & 7 3 3 @ @ @ # % 3 & % & 7 e 6 7 & * # O # % * % # * * * & * & * 6 3 * * % * _ !.!.!.",
"!.!.!.G q 8 7 6 6 8 * % q a w * @ O O # $ 3 6 7 3 $ @ @ X # & & $ & 3 & & 3 e & # % % & * + O * * # # 6 6 & 6 6 * * * & ) !.!.!.",
"!.!.!.*.9 6 6 6 6 7 & 6 a a 7 % X % % $ & $ & 6 3 @ $ @ # O & & % % % % & & 3 3 * 6 6 8 8 + % * 6 6 2 6 6 & & 6 # % & # } !.!.!.",
"!.!.!.-.8 * * 6 7 8 6 q q q # # & & e & & # % @ @ X @ @ O # # O # % & $ % $ & % % % * 6 * + * * 6 6 6 6 & & & 6 * % % O } !.!.!.",
"!.!.!.*.9 6 6 6 6 7 7 q q * . O & & # # & @ % X O @ @ % % 3 6 * & 6 7 & O O X o . O o O + + * * 6 & * * 6 * * 6 * * % O +.!.!.!.",
"!.!.!.;.7 6 6 3 * & % & % o   O O O o O $ # & $ & & * e & 7 7 7 % & % # O . . O # O O o o + * 6 & * * * 7 6 * * 7 7 * % &.!.!.!.",
"!.!.!.P.7 6 & & * 3 6 7 * # o o . o O & & & 3 & & 3 6 * 6 6 7 & * & + @ # o . # 6 % # o   o % * * * 7 6 6 6 6 6 7 7 * 6 &.!.!.!.",
"!.!.!.!.H 9 6 8 6 7 m 8 7 * & O O O # $ & $ 6 3 3 6 6 6 6 7 & & & . . o O # . o % & & O     # * * & * * & % & % * 6 e e L.!.!.!.",
"!.!.!.!.>.q 9 7 6 u p 7 6 6 # o O . % $ $ 3 7 3 & & 3 6 7 3 # # % .     . X O . O % % + O o + 6 6 6 6 * % * 6 7 * 7 6 A ~.!.!.!.",
"!.!.!.!.!.<.7 7 q p 8 7 6 * O . .     X $ 3 3 & 3 % % 3 & # @ @ O .     . . O O O # * O O O # % 6 * * % # * 8 e e 7 6 ) !.!.!.!.",
"!.!.!.!.!.!.' 7 q p 7 7 6 % .         O % % & % % X # $ O O . . . o .     # # * % % O + o + * % * & * 6 * * 7 e 8 6 7 L.!.!.!.!.",
"!.!.!.!.!.!.!.J p p 8 6 6 6 # .   . . o X O X X @ @ X X X o . . . . X . . # & # # O # O o + * 6 & & * 6 * * & * 6 * $.!.!.!.!.!.",
"!.!.!.!.!.!.!.R.n q 8 6 6 7 7 O o   o o o . o   o @ . . .   . . o     o o * * * + % + o o o + # o O O & # # + o o @.!.!.!.!.!.!.",
"!.!.!.!.!.!.!.!.L q 8 7 6 6 6 %   o o . o       . o X . . . . X o   o   o + # # O o o o o   o + O O * 6 # O O O O.!.!.!.!.!.!.!.",
"!.!.!.!.!.!.!.!.>.q q 6 7 8 e O   o o o     . o . X X O @ O . . O .       o o % % o O + +   o O O # O % # O O } !.!.!.!.!.!.!.!.",
"!.!.!.!.!.!.!.!.!.3.8 6 7 8 6 O . o o o + O O # # # # & $ @ X . X . o o o O # % 6 % + * % o   O # # O # % ; &.!.!.!.!.!.!.!.!.!.",
"!.!.!.!.!.!.!.!.!.!.<.v 7 6 7 * O o   . O % * * & O o * 6 # O o @ O . . o + * * * * * * * O o O # % * = | W.!.!.!.!.!.!.!.!.!.!.",
"!.!.!.!.!.!.!.!.!.!.!.E.( 6 7 6 O     o O # * 6 * * * 7 8 6 6 % & # O . O # * 6 * * 7 e e  . .< : - 1 -.!.!.!.!.!.!.!.!.!.!.!.!.",
"!.!.!.!.!.!.!.!.!.!.!.!.!.*.F 6 % # % * 7 6 6 7 6 6 7 t 9 8 q 8 * * # O O 6 7 e v ..$.;.W.!.!.!.!.!.!.!.!.!.!.!.!.!.!.!.!.!.!.!.",
"!.!.!.!.!.!.!.!.!.!.!.!.!.!.!.-...b e 8 8 8 8 2 7 6 7 7 8 q 8 6 * + * - , v  .=.W.!.!.!.!.!.!.!.!.!.!.!.!.!.!.!.!.!.!.!.!.!.!.!.",
"!.!.!.!.!.!.!.!.!.!.!.!.!.!.!.!.!.R.X.J D b t v v 8 8 n 8 t > 1 X.-.P.W.!.!.!.!.!.!.!.!.!.!.!.!.!.!.!.!.!.!.!.!.!.!.!.!.!.!.!.!.",
"!.!.!.!.!.!.!.!.!.!.!.!.!.!.!.!.!.!.!.!.!.!.!.!.!.!.!.!.!.!.!.!.!.!.!.!.!.!.!.!.!.!.!.!.!.!.!.!.!.!.!.!.!.!.!.!.!.!.!.!.!.!.!.!.",
"!.!.!.!.!.!.!.!.!.!.!.!.!.!.!.!.!.!.!.!.!.!.!.!.!.!.!.!.!.!.!.!.!.!.!.!.!.!.!.!.!.!.!.!.!.!.!.!.!.!.!.!.!.!.!.!.!.!.!.!.!.!.!.!.",
"!.!.!.!.!.!.!.!.!.!.!.!.!.!.!.!.!.!.!.!.!.!.!.!.!.!.!.!.!.!.!.!.!.!.!.!.!.!.!.!.!.!.!.!.!.!.!.!.!.!.!.!.!.!.!.!.!.!.!.!.!.!.!.!.",
"!.!.!.!.!.!.!.!.!.!.!.!.!.!.!.!.!.!.!.!.!.!.!.!.!.!.!.!.!.!.!.!.!.!.!.!.!.!.!.!.!.!.!.!.!.!.!.!.!.!.!.!.!.!.!.!.!.!.!.!.!.!.!.!.",
"!.!.!.!.!.!.!.!.!.!.!.!.!.!.!.!.!.!.!.!.!.!.!.!.!.!.!.!.!.!.!.!.!.!.!.!.!.!.!.!.!.!.!.!.!.!.!.!.!.!.!.!.!.!.!.!.!.!.!.!.!.!.!.!.",
"!.!.!.!.!.!.!.!.!.!.!.!.!.!.!.!.!.!.!.!.!.!.!.!.!.!.!.!.!.!.!.!.!.!.!.!.!.!.!.!.!.!.!.!.!.!.!.!.!.!.!.!.!.!.!.!.!.!.!.!.!.!.!.!.",
"!.!.!.!.!.!.!.!.!.!.!.!.!.!.!.!.!.!.!.!.!.!.!.!.!.!.!.!.!.!.!.!.!.!.!.!.!.!.!.!.!.!.!.!.!.!.!.!.!.!.!.!.!.!.!.!.!.!.!.!.!.!.!.!."
};
