/* XPM */
static char *result[] = {
/* columns rows colors chars-per-pixel */
"64 64 53 1 ",
"  c black",
". c #120507",
"X c #24090D",
"o c #2A0B0F",
"O c #2F0D11",
"+ c #300E13",
"@ c #380E13",
"# c #391017",
"$ c #3E1118",
"% c #430F15",
"& c #451016",
"* c #4A1117",
"= c #45131A",
"- c #4D1219",
"; c #53141B",
": c #5B161E",
"> c #5F181E",
", c #60171F",
"< c #61181F",
"1 c #67231C",
"2 c #68261C",
"3 c #6B2D19",
"4 c #521620",
"5 c #5D1720",
"6 c #551821",
"7 c #5D1821",
"8 c #621720",
"9 c #631922",
"0 c #6C1B25",
"q c #6F1D29",
"w c #721D27",
"e c #741E29",
"r c #7A1F2B",
"t c #75202E",
"y c #7C202C",
"u c #7C2130",
"i c #7A4018",
"p c #83222E",
"a c #852331",
"s c #8C2532",
"d c #922634",
"f c #952836",
"g c #9B2937",
"h c #962839",
"j c #9D2A3A",
"k c #A32C3D",
"l c #A92F3F",
"z c #A72F40",
"x c #A92F40",
"c c #AA3041",
"v c #229D6E",
"b c #F4EF02",
"n c #F9F601",
/* pixels */
"vvvvvvvvvvvvvvvvvvvvvvvvvvvvvvvvvvvvvvvvvvvvvvvvvvvvvvvvvvvvvvvv",
"vvvvvvvvvvvvvvvvvvvvvvvvvvvvvvvvvvvvvvvvvvvvvvvvvvvvvvvvvvvvvvvv",
"vvvvvvvvvvvvvvvvvvvvvvvvvvvvvvvvvvvvvvvvvvvvvvvvvvvvvvvvvvvvvvvv",
"vvvvvvvvvvvvvvvvvvvvvvvvvvvvvvvvvvvvvvvvvvvvvvvvvvvvvvvvvvvvvvvv",
"vvvvvvvvvvvvvvvvvvvvvvvvvvvvvvvvvvvvvvvvvvvvvvvvvvvvvvvvvvvvvvvv",
"vvvvvvvvvvvvvvvvvvvvvvvvvvvvvvvvvvvvvvvvvvvvvvvvvvvvvvvvvvvvvvvv",
"vvvvvvvvvvvvvvvvvvvvvvvvvv           vvvvvvvvvvvvvvvvvvvvvvvvvvv",
"vvvvvvvvvvvvvvvvvvvvvvvvvv 7utyw64=#    vvvvvvvvvvvvvvvvvvvvvvvv",
"vvvvvvvvvvvvvvvvvvvvvvv   *wkkklzhhse-+. vvvvvvvvvvvvvvvvvvvvvvv",
"vvvvvvvvvvvvvvvvvvvvv  =9*,wddgkzzkxxga9O vvvvvvvvvvvvvvvvvvvvvv",
"vvvvvvvvvvvvvvvvvvvvv txldr0wskkgkkxxkkxu$  vvvvvvvvvvvvvvvvvvvv",
"vvvvvvvvvvvvvvvvvvvv =hjkklkd,<<0wakklzxcj= vvvvvvvvvvvvvvvvvvvv",
"vvvvvvvvvvvvvvvvvvv  4dkkkzzp<,331>pkkxxczq vvvvvvvvvvvvvvvvvvvv",
"vvvvvvvvvvvvvvvvvv o=ejxkghks<1nb3,rdkzkhs9  vvvvvvvvvvvvvvvvvvv",
"vvvvvvvvvvvvvvvvvv 4uahhkdsdkspyrrdkdrrseq9X vvvvvvvvvvvvvvvvvvv",
"vvvvvvvvvvvvvvvvvv 6uapeerrpasdddggdssw9997X vvvvvvvvvvvvvvvvvvv",
"vvvvvvvvvvvvvvvvvv 40tq9,:;0000eyyytww0*99>o vvvvvvvvvvvvvvvvvvv",
"vvvvvvvvvvvvvvvvvv -7009;*;,::90wtw0099;>99O vvvvvvvvvvvvvvvvvvv",
"vvvvvvvvvvvvvvvvvv ;9909**-;;::><w0w099;:99# vvvvvvvvvvvvvvvvvvv",
"vvvvvvvvvvvvvvvvvv ;9<97-;;-;;;:<<9w095::79& vvvvvvvvvvvvvvvvvvv",
"vvvvvvvvvvvvvvvvvv ;:599;;;;;;;;<<<w085:::9& vvvvvvvvvvvvvvvvvvv",
"vvvvvvvvvvvvvvvvvv -;799,-:,;;;:<<,909:5>:7= vvvvvvvvvvvvvvvvvvv",
"vvvvvvvvvvvvvvvvvv -;:999--:5;;5::>>85>5::>- vvvvvvvvvvvvvvvvvvv",
"vvvvvvvvvvvvvvvvvv -;;:,>;-;5;;;;;;::;;::77- vvvvvvvvvvvvvvvvvvv",
"vvvvvvvvvvvvvvvvvv =4-;;;-***;;;;-;;;;;;;;;  vvvvvvvvvvvvvvvvvvv",
"vvvvvvvvvvvvvvvvvv O=---*****-;;------;;-;  vvvvvvvvvvvvvvvvvvvv",
"vvvvvvvvvvvvvvvvvv   ;54;****-;5;-;;;;*;74 vvvvvvvvvvvvvvvvvvvvv",
"vvvvvvvvvvvvvvvvvvvv 7ssa0:;--;;:;;;;->edy vvvvvvvvvvvvvvvvvvvvv",
"vvvvvvvvvvvvvvvvvvvv 7ahgddsr08,,,,90;rspt vvvvvvvvvvvvvvvvvvvvv",
"vvvvvvvvvvvvvvvvvvv X;0urpauypsddgr,;;,09q vvvvvvvvvvvvvvvvvvvvv",
"vvvvvvvvvvvvvvvvvvv o9turerrwweerrr<,;;<99 vvvvvvvvvvvvvvvvvvvvv",
"vvvvvvvvvvvvvvvvvvv o9tur090w00000000;-,90 vvvvvvvvvvvvvvvvvvvvv",
"vvvvvvvvvvvvvvvvvvv o9ryrreew090w<9>9:*-:0 vvvvvvvvvvvvvvvvvvvvv",
"vvvvvvvvvvvvvvvvvvv .590098eee0eww009;*>-5 vvvvvvvvvvvvvvvvvvvvv",
"vvvvvvvvvvvvvvvvvvvv 5:999890eee0,:59;;>:: vvvvvvvvvvvvvvvvvvvvv",
"vvvvvvvvvvvvvvvvvvvv 55595:;wree0:;;:;>;:9 vvvvvvvvvvvvvvvvvvvvv",
"vvvvvvvvvvvvvvvvvvvv 4:;5,:9w09985*--;;::qf  vvvvvvvvvvvvvvvvvvv",
"vvvvvvvvvvvvvvvvvvvv ;;;:;:>,9985---*;;:whzj vvvvvvvvvvvvvvvvvvv",
"vvvvvvvvvvvvvvvvvvvv q04;;;;::;;55-4;;,rddsa vvvvvvvvvvvvvvvvvvv",
"vvvvvvvvvvvvvvvvvvvv akjs9>::,:;55589epsp0ww vvvvvvvvvvvvvvvvvvv",
"vvvvvvvvvvvvvvvvvvv =5erw<wprrpppddhpasrww,9 vvvvvvvvvvvvvvvvvvv",
"vvvvvvvvvvvvvvvvvvv 779ww,-:89,0wrrpre<0,090 vvvvvvvvvvvvvvvvvvv",
"vvvvvvvvvvvvvvvvvvv 99998-*;--;:<0wwe099;999 vvvvvvvvvvvvvvvvvvv",
"vvvvvvvvvvvvvvvvvvv 5::98::*----;::<e08;::>0 vvvvvvvvvvvvvvvvvvv",
"vvvvvvvvvvvvvvvvvvv ;;799<,;>:;-*;;;09>55:>9 vvvvvvvvvvvvvvvvvvv",
"vvvvvvvvvvvvvvvvvvv ;5;9,,;:,,;;>;;;99>>>:49 vvvvvvvvvvvvvvvvvvv",
"vvvvvvvvvvvvvvvvvvv 5;;;:,-;,8;;;5;::;;;:8:= vvvvvvvvvvvvvvvvvvv",
"vvvvvvvvvvvvvvvvvvv a5;--;--**-;;*-;-;;;;5* vvvvvvvvvvvvvvvvvvvv",
"vvvvvvvvvvvvvvvvvvv pt>::-%*-**;5;***;-;;rt vvvvvvvvvvvvvvvvvvvv",
"vvvvvvvvvvvvvvvvvvv 0w0t0<>;---;-;**;;;>uja vvvvvvvvvvvvvvvvvvvv",
"vvvvvvvvvvvvvvvvvvv 7<wwww0,0r9>58::990wtr7* vvvvvvvvvvvvvvvvvvv",
"vvvvvvvvvvvvvvvvvvv 999:,rw;wpppw0ww8:,ee079 vvvvvvvvvvvvvvvvvvv",
"vvvvvvvvvvvvvvvvvvv 989-8e0;;:0<5:;;:-;,9>99 vvvvvvvvvvvvvvvvvvv",
"vvvvvvvvvvvvvvvvvvv 05:;w0>>>;*-;;;;;:;:::5: vvvvvvvvvvvvvvvvvvv",
"vvvvvvvvvvvvvvvvvvv 9::909>:*::**-*;;;*;;>:; vvvvvvvvvvvvvvvvvvv",
"vvvvvvvvvvvvvvvvvvv 7;59::5;;:;>---;;%%;;;:4 vvvvvvvvvvvvvvvvvvv",
"vvvvvvvvvvvvvvvvvvv  :9:;;;;;;55:**;*%*;;-;; vvvvvvvvvvvvvvvvvvv",
"vvvvvvvvvvvvvvvvvvvv  5;;;;-*-*=;-***%*;--;  vvvvvvvvvvvvvvvvvvv",
"vvvvvvvvvvvvvvvvvvvvv ;;;-;-**-5:**;*%**-;  vvvvvvvvvvvvvvvvvvvv",
"vvvvvvvvvvvvvvvvvvvvvv =;----*;;-****%%;  vvvvvvvvvvvvvvvvvvvvvv",
"vvvvvvvvvvvvvvvvvvvvvvv    :;-5;         vvvvvvvvvvvvvvvvvvvvvvv",
"vvvvvvvvvvvvvvvvvvvvvvvvvv       vvvvvvvvvvvvvvvvvvvvvvvvvvvvvvv",
"vvvvvvvvvvvvvvvvvvvvvvvvvvvvvvvvvvvvvvvvvvvvvvvvvvvvvvvvvvvvvvvv",
"vvvvvvvvvvvvvvvvvvvvvvvvvvvvvvvvvvvvvvvvvvvvvvvvvvvvvvvvvvvvvvvv"
};
